<svg width="21" height="21" viewBox="0 0 21 21" fill="none" xmlns="http://www.w3.org/2000/svg">
<path d="M0.727063 0.726947C0.410596 1.04341 0.232807 1.47264 0.232807 1.92019C0.232807 2.36774 0.410596 2.79696 0.727063 3.11343L7.88652 10.2729L0.727063 17.4323C0.410596 17.7488 0.232807 18.178 0.232807 18.6256C0.232807 19.0731 0.410596 19.5024 0.727063 19.8188C1.04353 20.1353 1.47275 20.3131 1.92031 20.3131C2.36786 20.3131 2.79708 20.1353 3.11355 19.8188L10.273 12.6594L17.4325 19.8188C17.7489 20.1353 18.1782 20.3131 18.6257 20.3131C19.0733 20.3131 19.5025 20.1353 19.8189 19.8188C20.1354 19.5024 20.3132 19.0731 20.3132 18.6256C20.3132 18.178 20.1354 17.7488 19.8189 17.4323L12.6595 10.2729L19.8189 3.11343C20.1354 2.79696 20.3132 2.36774 20.3132 1.92019C20.3132 1.47264 20.1354 1.04341 19.8189 0.726947C19.5025 0.410479 19.0733 0.232689 18.6257 0.232689C18.1782 0.232689 17.7489 0.410479 17.4325 0.726947L10.273 7.8864L3.11355 0.726947C2.79708 0.410479 2.36786 0.23269 1.92031 0.23269C1.47275 0.23269 1.04353 0.410479 0.727063 0.726947V0.726947Z" fill="white"/>
</svg>
