<svg width="181" height="15" viewBox="0 0 181 15" fill="none" xmlns="http://www.w3.org/2000/svg">
<path d="M0.25 14.5999H5.84714C10.2284 14.5999 13.1633 11.7225 13.1633 7.39583C13.1633 3.06919 10.2284 0.191772 5.84714 0.191772H0.25V14.5999ZM3.05905 12.0795V2.71214H5.84714C8.55138 2.71214 10.3542 4.58141 10.3542 7.39583C10.3542 10.2102 8.55138 12.0795 5.84714 12.0795H3.05905Z" fill="white"/>
<path d="M19.9384 14.8939C23.3554 14.8939 25.6194 12.6676 25.6194 9.34911C25.6194 6.03063 23.3554 3.8043 19.9384 3.8043C16.5214 3.8043 14.2574 6.03063 14.2574 9.34911C14.2574 12.6676 16.5214 14.8939 19.9384 14.8939ZM19.9384 12.6676C18.0308 12.6676 16.773 11.3444 16.773 9.34911C16.773 7.35382 18.0308 6.03063 19.9384 6.03063C21.8461 6.03063 23.1038 7.35382 23.1038 9.34911C23.1038 11.3444 21.8461 12.6676 19.9384 12.6676Z" fill="white"/>
<path d="M26.9188 14.5999H29.4344V8.38297C29.4344 6.97577 30.5454 6.03063 32.2225 6.03063H33.0819V4.09835C32.7885 3.97233 32.3482 3.88831 31.9709 3.88831C31.0066 3.88831 29.9794 4.4764 29.4344 5.33753V4.09835H26.9188V14.5999Z" fill="white"/>
<path d="M38.6237 14.8939C39.8605 14.8939 41.2231 14.3268 42.0197 13.4657V14.5999H44.5353V4.09835H42.0197V5.23251C41.2231 4.37139 39.8605 3.8043 38.6237 3.8043C35.3535 3.8043 33.1733 6.03063 33.1733 9.34911C33.1733 12.6676 35.3535 14.8939 38.6237 14.8939ZM38.8753 12.6676C36.9676 12.6676 35.6889 11.3444 35.6889 9.34911C35.6889 7.35382 36.9676 6.03063 38.8753 6.03063C40.762 6.03063 42.0197 7.35382 42.0197 9.34911C42.0197 11.3444 40.762 12.6676 38.8753 12.6676Z" fill="white"/>
<path d="M51.5263 14.8939C54.0838 14.8939 56.264 13.3397 56.9558 11.0294H54.3983C53.9161 12.0795 52.7631 12.7936 51.5263 12.7936C49.8912 12.7936 48.6334 11.7015 48.4028 10.0422H56.9977L57.2073 9.83218V9.34911C57.2073 6.03063 54.9433 3.8043 51.5263 3.8043C48.1093 3.8043 45.8453 6.03063 45.8453 9.34911C45.8453 12.6676 48.1093 14.8939 51.5263 14.8939ZM48.5705 7.94191C49.0527 6.63972 50.1218 5.90461 51.5263 5.90461C52.9309 5.90461 54 6.63972 54.4821 7.94191H48.5705Z" fill="white"/>
<path d="M58.7114 14.5999H61.227V7.52185C61.227 6.61871 61.9817 6.03063 63.1346 6.03063C64.2876 6.03063 65.0423 6.61871 65.0423 7.52185V14.5999H67.5578V7.52185C67.5578 6.61871 68.3125 6.03063 69.4655 6.03063C70.6184 6.03063 71.3731 6.61871 71.3731 7.52185V14.5999H73.8887V7.26981C73.8887 5.19051 72.2116 3.8043 69.717 3.8043C68.5641 3.8043 67.3063 4.30838 66.5726 5.06449C65.8598 4.30838 64.7488 3.8043 63.7845 3.8043C62.7783 3.8043 61.8559 4.24537 61.227 5.04348V4.09835H58.7114V14.5999Z" fill="white"/>
<path d="M80.8828 14.8939C84.2998 14.8939 86.5638 12.6676 86.5638 9.34911C86.5638 6.03063 84.2998 3.8043 80.8828 3.8043C77.4658 3.8043 75.2018 6.03063 75.2018 9.34911C75.2018 12.6676 77.4658 14.8939 80.8828 14.8939ZM80.8828 12.6676C78.9752 12.6676 77.7174 11.3444 77.7174 9.34911C77.7174 7.35382 78.9752 6.03063 80.8828 6.03063C82.7905 6.03063 84.0482 7.35382 84.0482 9.34911C84.0482 11.3444 82.7905 12.6676 80.8828 12.6676Z" fill="white"/>
<path d="M87.8632 14.5999H90.3788V8.36197C90.3788 6.95476 91.406 6.03063 92.9363 6.03063C94.4666 6.03063 95.4937 6.95476 95.4937 8.36197V14.5999H98.0093V8.06793C98.0093 5.50555 96.1017 3.8043 93.2297 3.8043C92.2026 3.8043 91.0705 4.22436 90.3788 4.87546V4.09835H87.8632V14.5999Z" fill="white"/>
<path d="M99.9415 14.5999H103.044V11.4914H99.9415V14.5999Z" fill="white"/>
<path d="M105.229 14.5999H108.038V8.46698H114.222V5.94661H108.038V2.71214H114.977V0.191772H105.229V14.5999Z" fill="white"/>
<path d="M116.524 2.50211H119.039V0.191772H116.524V2.50211ZM116.524 14.5999H119.039V4.09835H116.524V14.5999Z" fill="white"/>
<path d="M120.966 14.5999H123.482V8.36197C123.482 6.95476 124.509 6.03063 126.039 6.03063C127.569 6.03063 128.597 6.95476 128.597 8.36197V14.5999H131.112V8.06793C131.112 5.50555 129.204 3.8043 126.333 3.8043C125.305 3.8043 124.173 4.22436 123.482 4.87546V4.09835H120.966V14.5999Z" fill="white"/>
<path d="M138.075 14.8939C139.312 14.8939 140.675 14.3268 141.471 13.4657V14.5999H143.987V4.09835H141.471V5.23251C140.675 4.37139 139.312 3.8043 138.075 3.8043C134.805 3.8043 132.625 6.03063 132.625 9.34911C132.625 12.6676 134.805 14.8939 138.075 14.8939ZM138.327 12.6676C136.419 12.6676 135.141 11.3444 135.141 9.34911C135.141 7.35382 136.419 6.03063 138.327 6.03063C140.214 6.03063 141.471 7.35382 141.471 9.34911C141.471 11.3444 140.214 12.6676 138.327 12.6676Z" fill="white"/>
<path d="M145.921 14.5999H148.437V8.36197C148.437 6.95476 149.464 6.03063 150.994 6.03063C152.524 6.03063 153.552 6.95476 153.552 8.36197V14.5999H156.067V8.06793C156.067 5.50555 154.16 3.8043 151.288 3.8043C150.26 3.8043 149.128 4.22436 148.437 4.87546V4.09835H145.921V14.5999Z" fill="white"/>
<path d="M163.056 14.8939C165.907 14.8939 168.109 13.0667 168.549 10.3363H166.138C165.824 11.7435 164.587 12.6676 163.056 12.6676C161.149 12.6676 159.891 11.3444 159.891 9.34911C159.891 7.35382 161.149 6.03063 163.056 6.03063C164.566 6.03063 165.782 6.91276 166.117 8.25695H168.528C168.067 5.58956 165.886 3.8043 163.056 3.8043C159.639 3.8043 157.375 6.03063 157.375 9.34911C157.375 12.6676 159.639 14.8939 163.056 14.8939Z" fill="white"/>
<path d="M175.319 14.8939C177.877 14.8939 180.057 13.3397 180.748 11.0294H178.191C177.709 12.0795 176.556 12.7936 175.319 12.7936C173.684 12.7936 172.426 11.7015 172.196 10.0422H180.79L181 9.83218V9.34911C181 6.03063 178.736 3.8043 175.319 3.8043C171.902 3.8043 169.638 6.03063 169.638 9.34911C169.638 12.6676 171.902 14.8939 175.319 14.8939ZM172.363 7.94191C172.845 6.63972 173.914 5.90461 175.319 5.90461C176.724 5.90461 177.793 6.63972 178.275 7.94191H172.363Z" fill="white"/>
</svg>
