<svg width="40" height="40" viewBox="0 0 40 40" fill="none" xmlns="http://www.w3.org/2000/svg">
<path opacity="0.4" d="M20 36.6663C29.2048 36.6663 36.6667 29.2044 36.6667 19.9997C36.6667 10.7949 29.2048 3.33301 20 3.33301C10.7953 3.33301 3.33337 10.7949 3.33337 19.9997C3.33337 29.2044 10.7953 36.6663 20 36.6663Z" fill="#555761"/>
<path d="M26.6666 18.7497H21.25V13.333C21.25 12.6497 20.6833 12.083 20 12.083C19.3166 12.083 18.75 12.6497 18.75 13.333V18.7497H13.3333C12.65 18.7497 12.0833 19.3163 12.0833 19.9997C12.0833 20.683 12.65 21.2497 13.3333 21.2497H18.75V26.6663C18.75 27.3497 19.3166 27.9163 20 27.9163C20.6833 27.9163 21.25 27.3497 21.25 26.6663V21.2497H26.6666C27.35 21.2497 27.9166 20.683 27.9166 19.9997C27.9166 19.3163 27.35 18.7497 26.6666 18.7497Z" fill="white"/>
</svg>
