<svg width="1316" height="524" viewBox="0 0 1316 524" fill="none" xmlns="http://www.w3.org/2000/svg">
<path d="M1102.34 169.325L1092.19 178.06L1105.42 176.009L1104.42 189.367L1112.33 178.557L1121.06 188.715L1119.01 175.476L1132.37 176.486L1121.56 168.577L1131.72 159.842L1118.48 161.891L1119.49 148.535L1111.57 159.343L1102.84 149.187L1104.89 162.426L1091.53 161.416L1102.34 169.325Z" fill="#FFB749"/>
<path d="M173.444 124.556L175.33 134L181.5 127.83L187.67 134L189.556 124.556L199 122.67L192.83 116.5L199 110.33L189.556 108.439L187.67 99L181.5 105.166L175.33 99L173.444 108.439L164 110.33L170.17 116.5L164 122.67L173.444 124.556Z" fill="#84DAFF"/>
<circle cx="1308" cy="310" r="8" fill="#84DAFF"/>
<circle opacity="0.6" cx="729" cy="6" r="6" fill="#29D9FF"/>
<circle cx="1027" cy="518" r="6" fill="#BE89FB"/>
<circle opacity="0.6" cx="8" cy="444" r="8" fill="#0E67DC"/>
</svg>
