<svg width="183" height="56" viewBox="0 0 183 56" fill="none" xmlns="http://www.w3.org/2000/svg">
<path d="M43.108 26.2898H40.983C40.9223 25.9413 40.8106 25.6326 40.6477 25.3636C40.4848 25.0909 40.2822 24.8598 40.0398 24.6705C39.7973 24.4811 39.5208 24.339 39.2102 24.2443C38.9034 24.1458 38.572 24.0966 38.2159 24.0966C37.5833 24.0966 37.0227 24.2557 36.5341 24.5739C36.0455 24.8883 35.6629 25.3504 35.3864 25.9602C35.1098 26.5663 34.9716 27.3068 34.9716 28.1818C34.9716 29.072 35.1098 29.822 35.3864 30.4318C35.6667 31.0379 36.0492 31.4962 36.5341 31.8068C37.0227 32.1136 37.5814 32.267 38.2102 32.267C38.5587 32.267 38.8845 32.2216 39.1875 32.1307C39.4943 32.036 39.7689 31.8977 40.0114 31.7159C40.2576 31.5341 40.464 31.3106 40.6307 31.0455C40.8011 30.7803 40.9186 30.4773 40.983 30.1364L43.108 30.1477C43.0284 30.7008 42.8561 31.2197 42.5909 31.7045C42.3295 32.1894 41.9867 32.6174 41.5625 32.9886C41.1383 33.3561 40.642 33.6439 40.0739 33.8523C39.5057 34.0568 38.875 34.1591 38.1818 34.1591C37.1591 34.1591 36.2462 33.9223 35.4432 33.4489C34.6402 32.9754 34.0076 32.2917 33.5455 31.3977C33.0833 30.5038 32.8523 29.4318 32.8523 28.1818C32.8523 26.928 33.0852 25.8561 33.5511 24.9659C34.017 24.072 34.6515 23.3883 35.4545 22.9148C36.2576 22.4413 37.1667 22.2045 38.1818 22.2045C38.8295 22.2045 39.4318 22.2955 39.9886 22.4773C40.5455 22.6591 41.0417 22.9261 41.4773 23.2784C41.9129 23.6269 42.2708 24.0549 42.5511 24.5625C42.8352 25.0663 43.0208 25.642 43.108 26.2898ZM48.7543 34.1705C47.902 34.1705 47.1634 33.983 46.5384 33.608C45.9134 33.233 45.4285 32.7083 45.0838 32.0341C44.7429 31.3598 44.5724 30.572 44.5724 29.6705C44.5724 28.7689 44.7429 27.9792 45.0838 27.3011C45.4285 26.6231 45.9134 26.0966 46.5384 25.7216C47.1634 25.3466 47.902 25.1591 48.7543 25.1591C49.6065 25.1591 50.3452 25.3466 50.9702 25.7216C51.5952 26.0966 52.0781 26.6231 52.419 27.3011C52.7637 27.9792 52.9361 28.7689 52.9361 29.6705C52.9361 30.572 52.7637 31.3598 52.419 32.0341C52.0781 32.7083 51.5952 33.233 50.9702 33.608C50.3452 33.983 49.6065 34.1705 48.7543 34.1705ZM48.7656 32.5227C49.2277 32.5227 49.6141 32.3958 49.9247 32.142C50.2353 31.8845 50.4664 31.5398 50.6179 31.108C50.7732 30.6761 50.8509 30.1951 50.8509 29.6648C50.8509 29.1307 50.7732 28.6477 50.6179 28.2159C50.4664 27.7803 50.2353 27.4337 49.9247 27.1761C49.6141 26.9186 49.2277 26.7898 48.7656 26.7898C48.2921 26.7898 47.8982 26.9186 47.5838 27.1761C47.2732 27.4337 47.0402 27.7803 46.8849 28.2159C46.7334 28.6477 46.6577 29.1307 46.6577 29.6648C46.6577 30.1951 46.7334 30.6761 46.8849 31.108C47.0402 31.5398 47.2732 31.8845 47.5838 32.142C47.8982 32.3958 48.2921 32.5227 48.7656 32.5227ZM56.7386 28.8864V34H54.6818V25.2727H56.6477V26.7557H56.75C56.9508 26.267 57.2708 25.8788 57.7102 25.5909C58.1534 25.303 58.7008 25.1591 59.3523 25.1591C59.9545 25.1591 60.4792 25.2879 60.9261 25.5455C61.3769 25.803 61.7254 26.1761 61.9716 26.6648C62.2216 27.1534 62.3447 27.7462 62.3409 28.4432V34H60.2841V28.7614C60.2841 28.178 60.1326 27.7216 59.8295 27.392C59.5303 27.0625 59.1155 26.8977 58.5852 26.8977C58.2254 26.8977 57.9053 26.9773 57.625 27.1364C57.3485 27.2917 57.1307 27.517 56.9716 27.8125C56.8163 28.108 56.7386 28.4659 56.7386 28.8864ZM66.4886 28.8864V34H64.4318V25.2727H66.3977V26.7557H66.5C66.7008 26.267 67.0208 25.8788 67.4602 25.5909C67.9034 25.303 68.4508 25.1591 69.1023 25.1591C69.7045 25.1591 70.2292 25.2879 70.6761 25.5455C71.1269 25.803 71.4754 26.1761 71.7216 26.6648C71.9716 27.1534 72.0947 27.7462 72.0909 28.4432V34H70.0341V28.7614C70.0341 28.178 69.8826 27.7216 69.5795 27.392C69.2803 27.0625 68.8655 26.8977 68.3352 26.8977C67.9754 26.8977 67.6553 26.9773 67.375 27.1364C67.0985 27.2917 66.8807 27.517 66.7216 27.8125C66.5663 28.108 66.4886 28.4659 66.4886 28.8864ZM78.0455 34.1705C77.1705 34.1705 76.4148 33.9886 75.7784 33.625C75.1458 33.2576 74.6591 32.7386 74.3182 32.0682C73.9773 31.3939 73.8068 30.6004 73.8068 29.6875C73.8068 28.7898 73.9773 28.0019 74.3182 27.3239C74.6629 26.642 75.1439 26.1117 75.7614 25.733C76.3788 25.3504 77.1042 25.1591 77.9375 25.1591C78.4754 25.1591 78.983 25.2462 79.4602 25.4205C79.9413 25.5909 80.3655 25.8561 80.733 26.2159C81.1042 26.5758 81.3958 27.0341 81.608 27.5909C81.8201 28.1439 81.9261 28.803 81.9261 29.5682V30.1989H74.7727V28.8125H79.9545C79.9508 28.4186 79.8655 28.0682 79.6989 27.7614C79.5322 27.4508 79.2992 27.2064 79 27.0284C78.7045 26.8504 78.3598 26.7614 77.9659 26.7614C77.5455 26.7614 77.1761 26.8636 76.858 27.0682C76.5398 27.2689 76.2917 27.5341 76.1136 27.8636C75.9394 28.1894 75.8504 28.5473 75.8466 28.9375V30.1477C75.8466 30.6553 75.9394 31.0909 76.125 31.4545C76.3106 31.8144 76.5701 32.0909 76.9034 32.2841C77.2367 32.4735 77.6269 32.5682 78.0739 32.5682C78.3731 32.5682 78.6439 32.5265 78.8864 32.4432C79.1288 32.3561 79.339 32.2292 79.517 32.0625C79.6951 31.8958 79.8295 31.6894 79.9205 31.4432L81.8409 31.6591C81.7197 32.1667 81.4886 32.6098 81.1477 32.9886C80.8106 33.3636 80.3788 33.6553 79.8523 33.8636C79.3258 34.0682 78.7235 34.1705 78.0455 34.1705ZM87.473 34.1705C86.6018 34.1705 85.8537 33.9792 85.2287 33.5966C84.6075 33.214 84.1283 32.6856 83.7912 32.0114C83.4579 31.3333 83.2912 30.553 83.2912 29.6705C83.2912 28.7841 83.4616 28.0019 83.8026 27.3239C84.1435 26.642 84.6245 26.1117 85.2457 25.733C85.8707 25.3504 86.6094 25.1591 87.4616 25.1591C88.17 25.1591 88.7969 25.2898 89.3423 25.5511C89.8916 25.8087 90.3291 26.1742 90.6548 26.6477C90.9806 27.1174 91.1662 27.6667 91.2116 28.2955H89.2457C89.1662 27.875 88.9768 27.5246 88.6776 27.2443C88.3821 26.9602 87.9863 26.8182 87.4901 26.8182C87.0696 26.8182 86.7003 26.9318 86.3821 27.1591C86.0639 27.3826 85.8158 27.7045 85.6378 28.125C85.4635 28.5455 85.3764 29.0492 85.3764 29.6364C85.3764 30.2311 85.4635 30.7424 85.6378 31.1705C85.812 31.5947 86.0563 31.9223 86.3707 32.1534C86.6889 32.3807 87.062 32.4943 87.4901 32.4943C87.7931 32.4943 88.0639 32.4375 88.3026 32.3239C88.545 32.2064 88.7476 32.0379 88.9105 31.8182C89.0734 31.5985 89.1851 31.3314 89.2457 31.017H91.2116C91.1624 31.6345 90.9806 32.1818 90.6662 32.6591C90.3518 33.1326 89.9238 33.5038 89.3821 33.7727C88.8404 34.0379 88.2041 34.1705 87.473 34.1705ZM97.2585 25.2727V26.8636H92.2415V25.2727H97.2585ZM93.4801 23.1818H95.5369V31.375C95.5369 31.6515 95.5786 31.8636 95.6619 32.0114C95.7491 32.1553 95.8627 32.2538 96.0028 32.3068C96.143 32.3598 96.2983 32.3864 96.4688 32.3864C96.5975 32.3864 96.715 32.3769 96.821 32.358C96.9309 32.339 97.0142 32.322 97.071 32.3068L97.4176 33.9148C97.3078 33.9527 97.1506 33.9943 96.946 34.0398C96.7453 34.0852 96.4991 34.1117 96.2074 34.1193C95.6922 34.1345 95.2282 34.0568 94.8153 33.8864C94.4025 33.7121 94.0748 33.4432 93.8324 33.0795C93.5938 32.7159 93.4763 32.2614 93.4801 31.7159V23.1818ZM105.487 34L102.203 22.3636H104.47L106.567 30.9148H106.675L108.913 22.3636H110.976L113.22 30.9205H113.322L115.419 22.3636H117.686L114.402 34H112.322L109.993 25.8352H109.902L107.567 34H105.487ZM120.678 34.1761C120.125 34.1761 119.626 34.0777 119.183 33.8807C118.744 33.6799 118.395 33.3845 118.138 32.9943C117.884 32.6042 117.757 32.1231 117.757 31.5511C117.757 31.0587 117.848 30.6515 118.03 30.3295C118.212 30.0076 118.46 29.75 118.774 29.5568C119.089 29.3636 119.443 29.2178 119.837 29.1193C120.234 29.017 120.645 28.9432 121.07 28.8977C121.581 28.8447 121.996 28.7973 122.314 28.7557C122.632 28.7102 122.863 28.642 123.007 28.5511C123.155 28.4564 123.229 28.3106 123.229 28.1136V28.0795C123.229 27.6515 123.102 27.3201 122.848 27.0852C122.594 26.8504 122.229 26.733 121.751 26.733C121.248 26.733 120.848 26.8428 120.553 27.0625C120.261 27.2822 120.064 27.5417 119.962 27.8409L118.041 27.5682C118.193 27.0379 118.443 26.5947 118.791 26.2386C119.14 25.8788 119.566 25.6098 120.07 25.4318C120.573 25.25 121.13 25.1591 121.74 25.1591C122.161 25.1591 122.579 25.2083 122.996 25.3068C123.412 25.4053 123.793 25.5682 124.138 25.7955C124.482 26.0189 124.759 26.3239 124.967 26.7102C125.179 27.0966 125.286 27.5795 125.286 28.1591V34H123.308V32.8011H123.24C123.115 33.0436 122.939 33.2708 122.712 33.483C122.488 33.6913 122.206 33.8598 121.865 33.9886C121.528 34.1136 121.132 34.1761 120.678 34.1761ZM121.212 32.6648C121.625 32.6648 121.982 32.5833 122.286 32.4205C122.589 32.2538 122.821 32.0341 122.984 31.7614C123.151 31.4886 123.234 31.1913 123.234 30.8693V29.8409C123.17 29.8939 123.06 29.9432 122.905 29.9886C122.753 30.0341 122.583 30.0739 122.393 30.108C122.204 30.142 122.017 30.1723 121.831 30.1989C121.645 30.2254 121.484 30.2481 121.348 30.267C121.041 30.3087 120.767 30.3769 120.524 30.4716C120.282 30.5663 120.09 30.6989 119.95 30.8693C119.81 31.036 119.74 31.2519 119.74 31.517C119.74 31.8958 119.878 32.1818 120.155 32.375C120.431 32.5682 120.784 32.6648 121.212 32.6648ZM129.411 22.3636V34H127.354V22.3636H129.411ZM133.582 22.3636V34H131.526V22.3636H133.582ZM139.561 34.1705C138.686 34.1705 137.93 33.9886 137.294 33.625C136.661 33.2576 136.175 32.7386 135.834 32.0682C135.493 31.3939 135.322 30.6004 135.322 29.6875C135.322 28.7898 135.493 28.0019 135.834 27.3239C136.179 26.642 136.66 26.1117 137.277 25.733C137.894 25.3504 138.62 25.1591 139.453 25.1591C139.991 25.1591 140.499 25.2462 140.976 25.4205C141.457 25.5909 141.881 25.8561 142.249 26.2159C142.62 26.5758 142.911 27.0341 143.124 27.5909C143.336 28.1439 143.442 28.803 143.442 29.5682V30.1989H136.288V28.8125H141.47C141.466 28.4186 141.381 28.0682 141.214 27.7614C141.048 27.4508 140.815 27.2064 140.516 27.0284C140.22 26.8504 139.875 26.7614 139.482 26.7614C139.061 26.7614 138.692 26.8636 138.374 27.0682C138.055 27.2689 137.807 27.5341 137.629 27.8636C137.455 28.1894 137.366 28.5473 137.362 28.9375V30.1477C137.362 30.6553 137.455 31.0909 137.641 31.4545C137.826 31.8144 138.086 32.0909 138.419 32.2841C138.752 32.4735 139.143 32.5682 139.589 32.5682C139.889 32.5682 140.16 32.5265 140.402 32.4432C140.644 32.3561 140.855 32.2292 141.033 32.0625C141.211 31.8958 141.345 31.6894 141.436 31.4432L143.357 31.6591C143.235 32.1667 143.004 32.6098 142.663 32.9886C142.326 33.3636 141.894 33.6553 141.368 33.8636C140.841 34.0682 140.239 34.1705 139.561 34.1705ZM149.54 25.2727V26.8636H144.523V25.2727H149.54ZM145.761 23.1818H147.818V31.375C147.818 31.6515 147.86 31.8636 147.943 32.0114C148.03 32.1553 148.144 32.2538 148.284 32.3068C148.424 32.3598 148.58 32.3864 148.75 32.3864C148.879 32.3864 148.996 32.3769 149.102 32.358C149.212 32.339 149.295 32.322 149.352 32.3068L149.699 33.9148C149.589 33.9527 149.432 33.9943 149.227 34.0398C149.027 34.0852 148.78 34.1117 148.489 34.1193C147.973 34.1345 147.509 34.0568 147.097 33.8864C146.684 33.7121 146.356 33.4432 146.114 33.0795C145.875 32.7159 145.758 32.2614 145.761 31.7159V23.1818Z" fill="#FF464B"/>
<rect x="1" y="1" width="181" height="54" rx="27" stroke="#FF464B" stroke-width="2"/>
</svg>
