<svg width="204" height="56" viewBox="0 0 204 56" fill="none" xmlns="http://www.w3.org/2000/svg">
<rect width="204" height="56" rx="28" fill="#FF464B"/>
<path d="M43.108 26.2898H40.983C40.9223 25.9413 40.8106 25.6326 40.6477 25.3636C40.4848 25.0909 40.2822 24.8598 40.0398 24.6705C39.7973 24.4811 39.5208 24.339 39.2102 24.2443C38.9034 24.1458 38.572 24.0966 38.2159 24.0966C37.5833 24.0966 37.0227 24.2557 36.5341 24.5739C36.0455 24.8883 35.6629 25.3504 35.3864 25.9602C35.1098 26.5663 34.9716 27.3068 34.9716 28.1818C34.9716 29.072 35.1098 29.822 35.3864 30.4318C35.6667 31.0379 36.0492 31.4962 36.5341 31.8068C37.0227 32.1136 37.5814 32.267 38.2102 32.267C38.5587 32.267 38.8845 32.2216 39.1875 32.1307C39.4943 32.036 39.7689 31.8977 40.0114 31.7159C40.2576 31.5341 40.464 31.3106 40.6307 31.0455C40.8011 30.7803 40.9186 30.4773 40.983 30.1364L43.108 30.1477C43.0284 30.7008 42.8561 31.2197 42.5909 31.7045C42.3295 32.1894 41.9867 32.6174 41.5625 32.9886C41.1383 33.3561 40.642 33.6439 40.0739 33.8523C39.5057 34.0568 38.875 34.1591 38.1818 34.1591C37.1591 34.1591 36.2462 33.9223 35.4432 33.4489C34.6402 32.9754 34.0076 32.2917 33.5455 31.3977C33.0833 30.5038 32.8523 29.4318 32.8523 28.1818C32.8523 26.928 33.0852 25.8561 33.5511 24.9659C34.017 24.072 34.6515 23.3883 35.4545 22.9148C36.2576 22.4413 37.1667 22.2045 38.1818 22.2045C38.8295 22.2045 39.4318 22.2955 39.9886 22.4773C40.5455 22.6591 41.0417 22.9261 41.4773 23.2784C41.9129 23.6269 42.2708 24.0549 42.5511 24.5625C42.8352 25.0663 43.0208 25.642 43.108 26.2898ZM44.9474 34V25.2727H46.9418V26.7273H47.0327C47.1918 26.2235 47.4645 25.8352 47.8509 25.5625C48.241 25.286 48.6861 25.1477 49.1861 25.1477C49.2997 25.1477 49.4266 25.1534 49.5668 25.1648C49.7107 25.1723 49.83 25.1856 49.9247 25.2045V27.0966C49.8376 27.0663 49.6993 27.0398 49.5099 27.017C49.3243 26.9905 49.1444 26.9773 48.9702 26.9773C48.5952 26.9773 48.258 27.0587 47.9588 27.2216C47.6634 27.3807 47.4304 27.6023 47.2599 27.8864C47.0895 28.1705 47.0043 28.4981 47.0043 28.8693V34H44.9474ZM54.7955 34.1705C53.9205 34.1705 53.1648 33.9886 52.5284 33.625C51.8958 33.2576 51.4091 32.7386 51.0682 32.0682C50.7273 31.3939 50.5568 30.6004 50.5568 29.6875C50.5568 28.7898 50.7273 28.0019 51.0682 27.3239C51.4129 26.642 51.8939 26.1117 52.5114 25.733C53.1288 25.3504 53.8542 25.1591 54.6875 25.1591C55.2254 25.1591 55.733 25.2462 56.2102 25.4205C56.6913 25.5909 57.1155 25.8561 57.483 26.2159C57.8542 26.5758 58.1458 27.0341 58.358 27.5909C58.5701 28.1439 58.6761 28.803 58.6761 29.5682V30.1989H51.5227V28.8125H56.7045C56.7008 28.4186 56.6155 28.0682 56.4489 27.7614C56.2822 27.4508 56.0492 27.2064 55.75 27.0284C55.4545 26.8504 55.1098 26.7614 54.7159 26.7614C54.2955 26.7614 53.9261 26.8636 53.608 27.0682C53.2898 27.2689 53.0417 27.5341 52.8636 27.8636C52.6894 28.1894 52.6004 28.5473 52.5966 28.9375V30.1477C52.5966 30.6553 52.6894 31.0909 52.875 31.4545C53.0606 31.8144 53.3201 32.0909 53.6534 32.2841C53.9867 32.4735 54.3769 32.5682 54.8239 32.5682C55.1231 32.5682 55.3939 32.5265 55.6364 32.4432C55.8788 32.3561 56.089 32.2292 56.267 32.0625C56.4451 31.8958 56.5795 31.6894 56.6705 31.4432L58.5909 31.6591C58.4697 32.1667 58.2386 32.6098 57.8977 32.9886C57.5606 33.3636 57.1288 33.6553 56.6023 33.8636C56.0758 34.0682 55.4735 34.1705 54.7955 34.1705ZM62.9276 34.1761C62.3745 34.1761 61.8764 34.0777 61.4332 33.8807C60.9938 33.6799 60.6454 33.3845 60.3878 32.9943C60.134 32.6042 60.0071 32.1231 60.0071 31.5511C60.0071 31.0587 60.098 30.6515 60.2798 30.3295C60.4616 30.0076 60.7098 29.75 61.0241 29.5568C61.3385 29.3636 61.6927 29.2178 62.0866 29.1193C62.4844 29.017 62.8954 28.9432 63.3196 28.8977C63.831 28.8447 64.2457 28.7973 64.5639 28.7557C64.8821 28.7102 65.1132 28.642 65.2571 28.5511C65.4048 28.4564 65.4787 28.3106 65.4787 28.1136V28.0795C65.4787 27.6515 65.3518 27.3201 65.098 27.0852C64.8442 26.8504 64.4787 26.733 64.0014 26.733C63.4976 26.733 63.098 26.8428 62.8026 27.0625C62.5109 27.2822 62.3139 27.5417 62.2116 27.8409L60.2912 27.5682C60.4427 27.0379 60.6927 26.5947 61.0412 26.2386C61.3897 25.8788 61.8158 25.6098 62.3196 25.4318C62.8234 25.25 63.3802 25.1591 63.9901 25.1591C64.4105 25.1591 64.8291 25.2083 65.2457 25.3068C65.6624 25.4053 66.0431 25.5682 66.3878 25.7955C66.7325 26.0189 67.009 26.3239 67.2173 26.7102C67.4295 27.0966 67.5355 27.5795 67.5355 28.1591V34H65.5582V32.8011H65.4901C65.3651 33.0436 65.1889 33.2708 64.9616 33.483C64.7382 33.6913 64.456 33.8598 64.1151 33.9886C63.7779 34.1136 63.3821 34.1761 62.9276 34.1761ZM63.4616 32.6648C63.8745 32.6648 64.2325 32.5833 64.5355 32.4205C64.8385 32.2538 65.0715 32.0341 65.2344 31.7614C65.401 31.4886 65.4844 31.1913 65.4844 30.8693V29.8409C65.42 29.8939 65.3101 29.9432 65.1548 29.9886C65.0033 30.0341 64.8329 30.0739 64.6435 30.108C64.4541 30.142 64.2666 30.1723 64.081 30.1989C63.8954 30.2254 63.7344 30.2481 63.598 30.267C63.2912 30.3087 63.0166 30.3769 62.7741 30.4716C62.5317 30.5663 62.3404 30.6989 62.2003 30.8693C62.0601 31.036 61.9901 31.2519 61.9901 31.517C61.9901 31.8958 62.1283 32.1818 62.4048 32.375C62.6813 32.5682 63.0336 32.6648 63.4616 32.6648ZM73.9616 25.2727V26.8636H68.9446V25.2727H73.9616ZM70.1832 23.1818H72.2401V31.375C72.2401 31.6515 72.2817 31.8636 72.3651 32.0114C72.4522 32.1553 72.5658 32.2538 72.706 32.3068C72.8461 32.3598 73.0014 32.3864 73.1719 32.3864C73.3007 32.3864 73.4181 32.3769 73.5241 32.358C73.634 32.339 73.7173 32.322 73.7741 32.3068L74.1207 33.9148C74.0109 33.9527 73.8537 33.9943 73.6491 34.0398C73.4484 34.0852 73.2022 34.1117 72.9105 34.1193C72.3954 34.1345 71.9313 34.0568 71.5185 33.8864C71.1056 33.7121 70.7779 33.4432 70.5355 33.0795C70.2969 32.7159 70.1795 32.2614 70.1832 31.7159V23.1818ZM79.4517 34.1705C78.5767 34.1705 77.821 33.9886 77.1847 33.625C76.5521 33.2576 76.0653 32.7386 75.7244 32.0682C75.3835 31.3939 75.2131 30.6004 75.2131 29.6875C75.2131 28.7898 75.3835 28.0019 75.7244 27.3239C76.0691 26.642 76.5502 26.1117 77.1676 25.733C77.785 25.3504 78.5104 25.1591 79.3438 25.1591C79.8816 25.1591 80.3892 25.2462 80.8665 25.4205C81.3475 25.5909 81.7718 25.8561 82.1392 26.2159C82.5104 26.5758 82.8021 27.0341 83.0142 27.5909C83.2263 28.1439 83.3324 28.803 83.3324 29.5682V30.1989H76.179V28.8125H81.3608C81.357 28.4186 81.2718 28.0682 81.1051 27.7614C80.9384 27.4508 80.7055 27.2064 80.4062 27.0284C80.1108 26.8504 79.7661 26.7614 79.3722 26.7614C78.9517 26.7614 78.5824 26.8636 78.2642 27.0682C77.946 27.2689 77.6979 27.5341 77.5199 27.8636C77.3456 28.1894 77.2566 28.5473 77.2528 28.9375V30.1477C77.2528 30.6553 77.3456 31.0909 77.5312 31.4545C77.7169 31.8144 77.9763 32.0909 78.3097 32.2841C78.643 32.4735 79.0331 32.5682 79.4801 32.5682C79.7794 32.5682 80.0502 32.5265 80.2926 32.4432C80.535 32.3561 80.7453 32.2292 80.9233 32.0625C81.1013 31.8958 81.2358 31.6894 81.3267 31.4432L83.2472 31.6591C83.1259 32.1667 82.8949 32.6098 82.554 32.9886C82.2169 33.3636 81.785 33.6553 81.2585 33.8636C80.732 34.0682 80.1297 34.1705 79.4517 34.1705ZM89.1321 34V22.3636H93.4957C94.3897 22.3636 95.1397 22.5303 95.7457 22.8636C96.3556 23.197 96.8158 23.6553 97.1264 24.2386C97.4408 24.8182 97.598 25.4773 97.598 26.2159C97.598 26.9621 97.4408 27.625 97.1264 28.2045C96.812 28.7841 96.348 29.2405 95.7344 29.5739C95.1207 29.9034 94.3651 30.0682 93.4673 30.0682H90.5753V28.3352H93.1832C93.706 28.3352 94.134 28.2443 94.4673 28.0625C94.8007 27.8807 95.0469 27.6307 95.206 27.3125C95.3688 26.9943 95.4503 26.6288 95.4503 26.2159C95.4503 25.803 95.3688 25.4394 95.206 25.125C95.0469 24.8106 94.7988 24.5663 94.4616 24.392C94.1283 24.214 93.6984 24.125 93.1719 24.125H91.2401V34H89.1321ZM99.3381 34V25.2727H101.332V26.7273H101.423C101.582 26.2235 101.855 25.8352 102.241 25.5625C102.632 25.286 103.077 25.1477 103.577 25.1477C103.69 25.1477 103.817 25.1534 103.957 25.1648C104.101 25.1723 104.221 25.1856 104.315 25.2045V27.0966C104.228 27.0663 104.09 27.0398 103.901 27.017C103.715 26.9905 103.535 26.9773 103.361 26.9773C102.986 26.9773 102.649 27.0587 102.349 27.2216C102.054 27.3807 101.821 27.6023 101.651 27.8864C101.48 28.1705 101.395 28.4981 101.395 28.8693V34H99.3381ZM109.129 34.1705C108.277 34.1705 107.538 33.983 106.913 33.608C106.288 33.233 105.804 32.7083 105.459 32.0341C105.118 31.3598 104.947 30.572 104.947 29.6705C104.947 28.7689 105.118 27.9792 105.459 27.3011C105.804 26.6231 106.288 26.0966 106.913 25.7216C107.538 25.3466 108.277 25.1591 109.129 25.1591C109.982 25.1591 110.72 25.3466 111.345 25.7216C111.97 26.0966 112.453 26.6231 112.794 27.3011C113.139 27.9792 113.311 28.7689 113.311 29.6705C113.311 30.572 113.139 31.3598 112.794 32.0341C112.453 32.7083 111.97 33.233 111.345 33.608C110.72 33.983 109.982 34.1705 109.129 34.1705ZM109.141 32.5227C109.603 32.5227 109.989 32.3958 110.3 32.142C110.61 31.8845 110.841 31.5398 110.993 31.108C111.148 30.6761 111.226 30.1951 111.226 29.6648C111.226 29.1307 111.148 28.6477 110.993 28.2159C110.841 27.7803 110.61 27.4337 110.3 27.1761C109.989 26.9186 109.603 26.7898 109.141 26.7898C108.667 26.7898 108.273 26.9186 107.959 27.1761C107.648 27.4337 107.415 27.7803 107.26 28.2159C107.108 28.6477 107.033 29.1307 107.033 29.6648C107.033 30.1951 107.108 30.6761 107.26 31.108C107.415 31.5398 107.648 31.8845 107.959 32.142C108.273 32.3958 108.667 32.5227 109.141 32.5227ZM115.057 37.2727V25.2727H117.08V26.7159H117.199C117.305 26.5038 117.455 26.2784 117.648 26.0398C117.841 25.7973 118.102 25.5909 118.432 25.4205C118.761 25.2462 119.182 25.1591 119.693 25.1591C120.367 25.1591 120.975 25.3314 121.517 25.6761C122.063 26.017 122.494 26.5227 122.812 27.1932C123.134 27.8598 123.295 28.678 123.295 29.6477C123.295 30.6061 123.138 31.4205 122.824 32.0909C122.509 32.7614 122.081 33.2727 121.54 33.625C120.998 33.9773 120.384 34.1534 119.699 34.1534C119.199 34.1534 118.784 34.0701 118.455 33.9034C118.125 33.7367 117.86 33.536 117.659 33.3011C117.462 33.0625 117.309 32.8371 117.199 32.625H117.114V37.2727H115.057ZM117.074 29.6364C117.074 30.2008 117.153 30.6951 117.312 31.1193C117.475 31.5436 117.708 31.875 118.011 32.1136C118.318 32.3485 118.689 32.4659 119.125 32.4659C119.58 32.4659 119.96 32.3447 120.267 32.1023C120.574 31.8561 120.805 31.5208 120.96 31.0966C121.119 30.6686 121.199 30.1818 121.199 29.6364C121.199 29.0947 121.121 28.6136 120.966 28.1932C120.811 27.7727 120.58 27.4432 120.273 27.2045C119.966 26.9659 119.583 26.8466 119.125 26.8466C118.686 26.8466 118.312 26.9621 118.006 27.1932C117.699 27.4242 117.466 27.7481 117.307 28.1648C117.152 28.5814 117.074 29.072 117.074 29.6364ZM128.864 34.1705C128.011 34.1705 127.273 33.983 126.648 33.608C126.023 33.233 125.538 32.7083 125.193 32.0341C124.852 31.3598 124.682 30.572 124.682 29.6705C124.682 28.7689 124.852 27.9792 125.193 27.3011C125.538 26.6231 126.023 26.0966 126.648 25.7216C127.273 25.3466 128.011 25.1591 128.864 25.1591C129.716 25.1591 130.455 25.3466 131.08 25.7216C131.705 26.0966 132.188 26.6231 132.528 27.3011C132.873 27.9792 133.045 28.7689 133.045 29.6705C133.045 30.572 132.873 31.3598 132.528 32.0341C132.188 32.7083 131.705 33.233 131.08 33.608C130.455 33.983 129.716 34.1705 128.864 34.1705ZM128.875 32.5227C129.337 32.5227 129.723 32.3958 130.034 32.142C130.345 31.8845 130.576 31.5398 130.727 31.108C130.883 30.6761 130.96 30.1951 130.96 29.6648C130.96 29.1307 130.883 28.6477 130.727 28.2159C130.576 27.7803 130.345 27.4337 130.034 27.1761C129.723 26.9186 129.337 26.7898 128.875 26.7898C128.402 26.7898 128.008 26.9186 127.693 27.1761C127.383 27.4337 127.15 27.7803 126.994 28.2159C126.843 28.6477 126.767 29.1307 126.767 29.6648C126.767 30.1951 126.843 30.6761 126.994 31.108C127.15 31.5398 127.383 31.8845 127.693 32.142C128.008 32.3958 128.402 32.5227 128.875 32.5227ZM141.689 27.5795L139.814 27.7841C139.761 27.5947 139.668 27.4167 139.536 27.25C139.407 27.0833 139.232 26.9489 139.013 26.8466C138.793 26.7443 138.524 26.6932 138.206 26.6932C137.778 26.6932 137.418 26.786 137.126 26.9716C136.839 27.1572 136.696 27.3977 136.7 27.6932C136.696 27.947 136.789 28.1534 136.979 28.3125C137.172 28.4716 137.49 28.6023 137.933 28.7045L139.422 29.0227C140.248 29.2008 140.861 29.483 141.263 29.8693C141.668 30.2557 141.873 30.7614 141.876 31.3864C141.873 31.9356 141.712 32.4205 141.393 32.8409C141.079 33.2576 140.642 33.5833 140.081 33.8182C139.52 34.053 138.876 34.1705 138.149 34.1705C137.081 34.1705 136.221 33.947 135.57 33.5C134.918 33.0492 134.53 32.4223 134.405 31.6193L136.411 31.4261C136.501 31.8201 136.695 32.1174 136.99 32.3182C137.286 32.5189 137.67 32.6193 138.143 32.6193C138.632 32.6193 139.024 32.5189 139.32 32.3182C139.619 32.1174 139.768 31.8693 139.768 31.5739C139.768 31.3239 139.672 31.1174 139.479 30.9545C139.289 30.7917 138.994 30.6667 138.592 30.5795L137.104 30.267C136.267 30.0928 135.647 29.7992 135.246 29.3864C134.844 28.9697 134.645 28.4432 134.649 27.8068C134.645 27.2689 134.791 26.803 135.087 26.4091C135.386 26.0114 135.801 25.7045 136.331 25.4886C136.865 25.2689 137.481 25.1591 138.178 25.1591C139.2 25.1591 140.005 25.3769 140.592 25.8125C141.183 26.2481 141.549 26.8371 141.689 27.5795ZM146.084 34.1761C145.531 34.1761 145.033 34.0777 144.589 33.8807C144.15 33.6799 143.802 33.3845 143.544 32.9943C143.29 32.6042 143.163 32.1231 143.163 31.5511C143.163 31.0587 143.254 30.6515 143.436 30.3295C143.618 30.0076 143.866 29.75 144.18 29.5568C144.495 29.3636 144.849 29.2178 145.243 29.1193C145.641 29.017 146.052 28.9432 146.476 28.8977C146.987 28.8447 147.402 28.7973 147.72 28.7557C148.038 28.7102 148.269 28.642 148.413 28.5511C148.561 28.4564 148.635 28.3106 148.635 28.1136V28.0795C148.635 27.6515 148.508 27.3201 148.254 27.0852C148 26.8504 147.635 26.733 147.158 26.733C146.654 26.733 146.254 26.8428 145.959 27.0625C145.667 27.2822 145.47 27.5417 145.368 27.8409L143.447 27.5682C143.599 27.0379 143.849 26.5947 144.197 26.2386C144.546 25.8788 144.972 25.6098 145.476 25.4318C145.98 25.25 146.536 25.1591 147.146 25.1591C147.567 25.1591 147.985 25.2083 148.402 25.3068C148.819 25.4053 149.199 25.5682 149.544 25.7955C149.889 26.0189 150.165 26.3239 150.374 26.7102C150.586 27.0966 150.692 27.5795 150.692 28.1591V34H148.714V32.8011H148.646C148.521 33.0436 148.345 33.2708 148.118 33.483C147.894 33.6913 147.612 33.8598 147.271 33.9886C146.934 34.1136 146.538 34.1761 146.084 34.1761ZM146.618 32.6648C147.031 32.6648 147.389 32.5833 147.692 32.4205C147.995 32.2538 148.228 32.0341 148.391 31.7614C148.557 31.4886 148.641 31.1913 148.641 30.8693V29.8409C148.576 29.8939 148.466 29.9432 148.311 29.9886C148.16 30.0341 147.989 30.0739 147.8 30.108C147.61 30.142 147.423 30.1723 147.237 30.1989C147.052 30.2254 146.891 30.2481 146.754 30.267C146.447 30.3087 146.173 30.3769 145.93 30.4716C145.688 30.5663 145.497 30.6989 145.357 30.8693C145.216 31.036 145.146 31.2519 145.146 31.517C145.146 31.8958 145.285 32.1818 145.561 32.375C145.838 32.5682 146.19 32.6648 146.618 32.6648ZM154.817 22.3636V34H152.76V22.3636H154.817Z" fill="white"/>
<path d="M169.94 33.28L174.287 28.9333C174.8 28.42 174.8 27.58 174.287 27.0667L169.94 22.72" stroke="white" stroke-width="1.5" stroke-miterlimit="10" stroke-linecap="round" stroke-linejoin="round"/>
</svg>
