<svg width="40" height="40" viewBox="0 0 40 40" fill="none" xmlns="http://www.w3.org/2000/svg">
<path d="M0 20C0 8.95105 8.95105 0 20 0C31.049 0 40 8.95105 40 20C40 31.049 31.049 40 20 40C8.95105 39.9767 0 31.0256 0 20Z" fill="white"/>
<path d="M28.9976 11.8661C27.2959 11.0968 25.5244 10.5374 23.6829 10.2344C23.4498 10.654 23.1934 11.1901 23.0069 11.633C21.0489 11.3299 19.0675 11.3299 17.1095 11.633C16.8997 11.1435 16.6666 10.6773 16.4102 10.2344C14.5687 10.5374 12.7738 11.0968 11.0955 11.8894C7.73884 16.901 6.82975 21.7728 7.27264 26.598C9.25399 28.0665 11.4451 29.1854 13.7994 29.8847C14.3356 29.1621 14.8018 28.4162 15.198 27.6237C14.4288 27.3439 13.7062 26.9943 13.0069 26.5747C13.1934 26.4348 13.3566 26.295 13.543 26.1551C17.6689 28.1132 22.4708 28.1132 26.5966 26.1551C26.7831 26.295 26.9463 26.4348 27.1328 26.5747C26.4335 26.9943 25.6876 27.3439 24.9183 27.6237C25.3146 28.4162 25.7808 29.1621 26.3169 29.8847C28.6712 29.1621 30.8857 28.0665 32.8437 26.598C33.3565 21.0036 31.9113 16.1551 28.9976 11.8661ZM15.7575 23.6143C14.4754 23.6143 13.4498 22.4488 13.4498 21.0269C13.4498 19.605 14.4754 18.4162 15.7575 18.4162C17.0628 18.4162 18.0885 19.5817 18.0885 21.0269C18.0652 22.4488 17.0628 23.6143 15.7575 23.6143ZM24.3356 23.6143C23.0535 23.6143 22.0279 22.4488 22.0279 21.0269C22.0279 19.605 23.0535 18.4162 24.3356 18.4162C25.6409 18.4162 26.6666 19.5817 26.6433 21.0269C26.62 22.4721 25.6176 23.6143 24.3356 23.6143Z" fill="#13172B"/>
</svg>
