<svg width="21" height="22" viewBox="0 0 21 22" fill="none" xmlns="http://www.w3.org/2000/svg">
<path d="M7.58789 13.0386C7.58789 14.1674 8.45414 15.0774 9.53039 15.0774H11.7266C12.6629 15.0774 13.4241 14.2811 13.4241 13.3011C13.4241 12.2336 12.9604 11.8574 12.2691 11.6124L8.74289 10.3874C8.05164 10.1424 7.58789 9.76611 7.58789 8.69861C7.58789 7.71861 8.34914 6.92236 9.28539 6.92236H11.4816C12.5579 6.92236 13.4241 7.83236 13.4241 8.96111" stroke="#555761" stroke-width="1.5" stroke-linecap="round" stroke-linejoin="round"/>
<path d="M10.5 5.75V16.25" stroke="#555761" stroke-width="1.5" stroke-linecap="round" stroke-linejoin="round"/>
<path d="M10.5 19.75C15.3325 19.75 19.25 15.8325 19.25 11C19.25 6.16751 15.3325 2.25 10.5 2.25C5.66751 2.25 1.75 6.16751 1.75 11C1.75 15.8325 5.66751 19.75 10.5 19.75Z" stroke="#555761" stroke-width="1.5" stroke-linecap="round" stroke-linejoin="round"/>
</svg>
