<svg width="981" height="160" viewBox="0 0 981 160" fill="none" xmlns="http://www.w3.org/2000/svg">
<path d="M7.58789 56.0386C7.58789 57.1674 8.45414 58.0774 9.53039 58.0774H11.7266C12.6629 58.0774 13.4241 57.2811 13.4241 56.3011C13.4241 55.2336 12.9604 54.8574 12.2691 54.6124L8.74289 53.3874C8.05164 53.1424 7.58789 52.7661 7.58789 51.6986C7.58789 50.7186 8.34914 49.9224 9.28539 49.9224H11.4816C12.5579 49.9224 13.4241 50.8324 13.4241 51.9611" stroke="#555761" stroke-width="1.5" stroke-linecap="round" stroke-linejoin="round"/>
<path d="M10.5 48.75V59.25" stroke="#555761" stroke-width="1.5" stroke-linecap="round" stroke-linejoin="round"/>
<path d="M10.5 62.75C15.3325 62.75 19.25 58.8325 19.25 54C19.25 49.1675 15.3325 45.25 10.5 45.25C5.66751 45.25 1.75 49.1675 1.75 54C1.75 58.8325 5.66751 62.75 10.5 62.75Z" stroke="#555761" stroke-width="1.5" stroke-linecap="round" stroke-linejoin="round"/>
<path d="M26.9787 59.5H25.348L29.0121 49.3182H30.7869L34.451 59.5H32.8203L29.9418 51.1676H29.8622L26.9787 59.5ZM27.2521 55.5128H32.5419V56.8054H27.2521V55.5128ZM41.4696 53.728L40.1223 53.9666C40.066 53.7943 39.9765 53.6302 39.8539 53.4744C39.7346 53.3187 39.5721 53.1911 39.3667 53.0916C39.1612 52.9922 38.9043 52.9425 38.5961 52.9425C38.1751 52.9425 37.8238 53.0369 37.5421 53.2259C37.2604 53.4115 37.1195 53.6518 37.1195 53.9467C37.1195 54.2019 37.214 54.4074 37.4029 54.5632C37.5918 54.719 37.8967 54.8466 38.3176 54.946L39.5307 55.2244C40.2334 55.3868 40.757 55.6371 41.1017 55.9751C41.4464 56.3132 41.6188 56.7524 41.6188 57.2926C41.6188 57.75 41.4862 58.1577 41.2211 58.5156C40.9592 58.8703 40.593 59.1487 40.1223 59.3509C39.655 59.553 39.1131 59.6541 38.4966 59.6541C37.6415 59.6541 36.9438 59.4718 36.4036 59.1072C35.8633 58.7393 35.5319 58.2173 35.4093 57.5412L36.8461 57.3224C36.9355 57.697 37.1195 57.9804 37.3979 58.1726C37.6763 58.3615 38.0392 58.456 38.4867 58.456C38.9739 58.456 39.3633 58.3549 39.655 58.1527C39.9467 57.9472 40.0925 57.697 40.0925 57.402C40.0925 57.1634 40.003 56.9628 39.824 56.8004C39.6484 56.638 39.3783 56.5154 39.0137 56.4325L37.7211 56.1491C37.0085 55.9867 36.4815 55.7282 36.1401 55.3736C35.802 55.0189 35.633 54.5698 35.633 54.0263C35.633 53.5755 35.7589 53.1811 36.0108 52.843C36.2627 52.505 36.6107 52.2415 37.0549 52.0526C37.499 51.8603 38.0078 51.7642 38.5811 51.7642C39.4064 51.7642 40.056 51.9432 40.53 52.3011C41.004 52.6558 41.3172 53.1314 41.4696 53.728ZM48.9755 53.728L47.6282 53.9666C47.5719 53.7943 47.4824 53.6302 47.3597 53.4744C47.2404 53.3187 47.078 53.1911 46.8725 53.0916C46.667 52.9922 46.4102 52.9425 46.1019 52.9425C45.681 52.9425 45.3297 53.0369 45.0479 53.2259C44.7662 53.4115 44.6254 53.6518 44.6254 53.9467C44.6254 54.2019 44.7198 54.4074 44.9087 54.5632C45.0977 54.719 45.4026 54.8466 45.8235 54.946L47.0366 55.2244C47.7392 55.3868 48.2629 55.6371 48.6076 55.9751C48.9523 56.3132 49.1246 56.7524 49.1246 57.2926C49.1246 57.75 48.9921 58.1577 48.7269 58.5156C48.4651 58.8703 48.0988 59.1487 47.6282 59.3509C47.1609 59.553 46.619 59.6541 46.0025 59.6541C45.1474 59.6541 44.4497 59.4718 43.9094 59.1072C43.3692 58.7393 43.0378 58.2173 42.9151 57.5412L44.3519 57.3224C44.4414 57.697 44.6254 57.9804 44.9038 58.1726C45.1822 58.3615 45.5451 58.456 45.9925 58.456C46.4798 58.456 46.8692 58.3549 47.1609 58.1527C47.4525 57.9472 47.5984 57.697 47.5984 57.402C47.5984 57.1634 47.5089 56.9628 47.3299 56.8004C47.1542 56.638 46.8841 56.5154 46.5195 56.4325L45.2269 56.1491C44.5143 55.9867 43.9873 55.7282 43.646 55.3736C43.3079 55.0189 43.1388 54.5698 43.1388 54.0263C43.1388 53.5755 43.2648 53.1811 43.5167 52.843C43.7686 52.505 44.1166 52.2415 44.5607 52.0526C45.0049 51.8603 45.5136 51.7642 46.087 51.7642C46.9123 51.7642 47.5619 51.9432 48.0359 52.3011C48.5098 52.6558 48.823 53.1314 48.9755 53.728ZM54.0502 59.6541C53.2979 59.6541 52.6499 59.4934 52.1064 59.1719C51.5661 58.8471 51.1485 58.3913 50.8535 57.8047C50.5618 57.2147 50.416 56.5237 50.416 55.7315C50.416 54.9493 50.5618 54.2599 50.8535 53.6634C51.1485 53.0668 51.5595 52.6011 52.0865 52.2663C52.6168 51.9316 53.2366 51.7642 53.9458 51.7642C54.3767 51.7642 54.7943 51.8355 55.1987 51.978C55.603 52.1205 55.966 52.3442 56.2875 52.6491C56.609 52.9541 56.8625 53.3501 57.0481 53.8374C57.2337 54.3213 57.3265 54.9096 57.3265 55.6023V56.1293H51.2562V55.0156H55.8699C55.8699 54.6245 55.7903 54.2782 55.6312 53.9766C55.4721 53.6716 55.2484 53.4313 54.96 53.2557C54.675 53.08 54.3403 52.9922 53.9558 52.9922C53.5382 52.9922 53.1736 53.0949 52.862 53.3004C52.5538 53.5026 52.3152 53.7678 52.1461 54.0959C51.9804 54.4207 51.8975 54.7737 51.8975 55.1548V56.0249C51.8975 56.5353 51.987 56.9695 52.166 57.3274C52.3483 57.6854 52.6019 57.9588 52.9267 58.1477C53.2515 58.3333 53.631 58.4261 54.0652 58.4261C54.3469 58.4261 54.6038 58.3864 54.8358 58.3068C55.0678 58.224 55.2683 58.1013 55.4373 57.9389C55.6064 57.7765 55.7356 57.576 55.8251 57.3374L57.2321 57.5909C57.1194 58.0052 56.9172 58.3681 56.6255 58.6797C56.3372 58.9879 55.9743 59.2282 55.5368 59.4006C55.1026 59.5696 54.6071 59.6541 54.0502 59.6541ZM62.5405 51.8636V53.0568H58.3693V51.8636H62.5405ZM59.4879 50.0341H60.9744V57.2578C60.9744 57.5462 61.0175 57.7633 61.1037 57.9091C61.1899 58.0516 61.3009 58.1494 61.4368 58.2024C61.576 58.2521 61.7268 58.277 61.8892 58.277C62.0085 58.277 62.1129 58.2687 62.2024 58.2521C62.2919 58.2356 62.3615 58.2223 62.4112 58.2124L62.6797 59.4403C62.5935 59.4735 62.4709 59.5066 62.3118 59.5398C62.1527 59.5762 61.9538 59.5961 61.7152 59.5994C61.3241 59.6061 60.9595 59.5365 60.6214 59.3906C60.2834 59.2448 60.0099 59.0194 59.8011 58.7145C59.5923 58.4096 59.4879 58.0268 59.4879 57.5661V50.0341ZM69.7841 53.728L68.4368 53.9666C68.3804 53.7943 68.291 53.6302 68.1683 53.4744C68.049 53.3187 67.8866 53.1911 67.6811 53.0916C67.4756 52.9922 67.2188 52.9425 66.9105 52.9425C66.4896 52.9425 66.1383 53.0369 65.8565 53.2259C65.5748 53.4115 65.4339 53.6518 65.4339 53.9467C65.4339 54.2019 65.5284 54.4074 65.7173 54.5632C65.9063 54.719 66.2112 54.8466 66.6321 54.946L67.8452 55.2244C68.5478 55.3868 69.0715 55.6371 69.4162 55.9751C69.7609 56.3132 69.9332 56.7524 69.9332 57.2926C69.9332 57.75 69.8007 58.1577 69.5355 58.5156C69.2737 58.8703 68.9074 59.1487 68.4368 59.3509C67.9695 59.553 67.4276 59.6541 66.8111 59.6541C65.956 59.6541 65.2583 59.4718 64.718 59.1072C64.1778 58.7393 63.8464 58.2173 63.7237 57.5412L65.1605 57.3224C65.25 57.697 65.4339 57.9804 65.7124 58.1726C65.9908 58.3615 66.3537 58.456 66.8011 58.456C67.2884 58.456 67.6778 58.3549 67.9695 58.1527C68.2611 57.9472 68.407 57.697 68.407 57.402C68.407 57.1634 68.3175 56.9628 68.1385 56.8004C67.9628 56.638 67.6927 56.5154 67.3281 56.4325L66.0355 56.1491C65.3229 55.9867 64.7959 55.7282 64.4545 55.3736C64.1165 55.0189 63.9474 54.5698 63.9474 54.0263C63.9474 53.5755 64.0734 53.1811 64.3253 52.843C64.5772 52.505 64.9252 52.2415 65.3693 52.0526C65.8134 51.8603 66.3222 51.7642 66.8956 51.7642C67.7209 51.7642 68.3705 51.9432 68.8445 52.3011C69.3184 52.6558 69.6316 53.1314 69.7841 53.728ZM78.4893 59.6541C77.7502 59.6541 77.1139 59.4867 76.5803 59.152C76.05 58.8139 75.6423 58.3482 75.3572 57.755C75.0722 57.1617 74.9297 56.4822 74.9297 55.7166C74.9297 54.9411 75.0755 54.2566 75.3672 53.6634C75.6589 53.0668 76.0698 52.6011 76.6001 52.2663C77.1304 51.9316 77.7552 51.7642 78.4744 51.7642C79.0545 51.7642 79.5715 51.8719 80.0256 52.0874C80.4796 52.2995 80.8459 52.5978 81.1243 52.9822C81.406 53.3667 81.5734 53.8158 81.6264 54.3295H80.1797C80.1001 53.9716 79.9179 53.6634 79.6328 53.4048C79.3511 53.1463 78.9732 53.017 78.4993 53.017C78.085 53.017 77.7221 53.1264 77.4105 53.3452C77.1023 53.5606 76.862 53.8688 76.6896 54.2699C76.5173 54.6676 76.4311 55.1383 76.4311 55.6818C76.4311 56.2386 76.5156 56.7192 76.6847 57.1236C76.8537 57.5279 77.0923 57.8411 77.4006 58.0632C77.7121 58.2853 78.0784 58.3963 78.4993 58.3963C78.781 58.3963 79.0362 58.3449 79.2649 58.2422C79.4969 58.1361 79.6908 57.9853 79.8466 57.7898C80.0057 57.5942 80.1167 57.3589 80.1797 57.0838H81.6264C81.5734 57.5777 81.4126 58.0185 81.1442 58.4062C80.8757 58.794 80.5161 59.099 80.0653 59.321C79.6179 59.5431 79.0926 59.6541 78.4893 59.6541ZM86.4327 59.6541C85.7168 59.6541 85.092 59.4901 84.5584 59.1619C84.0248 58.8338 83.6105 58.3748 83.3155 57.7848C83.0205 57.1948 82.873 56.5054 82.873 55.7166C82.873 54.9245 83.0205 54.2318 83.3155 53.6385C83.6105 53.0452 84.0248 52.5845 84.5584 52.2564C85.092 51.9283 85.7168 51.7642 86.4327 51.7642C87.1486 51.7642 87.7734 51.9283 88.307 52.2564C88.8406 52.5845 89.2549 53.0452 89.5499 53.6385C89.8449 54.2318 89.9924 54.9245 89.9924 55.7166C89.9924 56.5054 89.8449 57.1948 89.5499 57.7848C89.2549 58.3748 88.8406 58.8338 88.307 59.1619C87.7734 59.4901 87.1486 59.6541 86.4327 59.6541ZM86.4377 58.4062C86.9017 58.4062 87.2862 58.2836 87.5911 58.0384C87.896 57.7931 88.1214 57.4666 88.2672 57.0589C88.4164 56.6513 88.4909 56.2022 88.4909 55.7116C88.4909 55.2244 88.4164 54.777 88.2672 54.3693C88.1214 53.9583 87.896 53.6286 87.5911 53.38C87.2862 53.1314 86.9017 53.0071 86.4377 53.0071C85.9703 53.0071 85.5826 53.1314 85.2743 53.38C84.9694 53.6286 84.7424 53.9583 84.5932 54.3693C84.4474 54.777 84.3745 55.2244 84.3745 55.7116C84.3745 56.2022 84.4474 56.6513 84.5932 57.0589C84.7424 57.4666 84.9694 57.7931 85.2743 58.0384C85.5826 58.2836 85.9703 58.4062 86.4377 58.4062ZM93.1381 54.9659V59.5H91.6516V51.8636H93.0785V53.1065H93.1729C93.3486 52.7022 93.6237 52.3774 93.9982 52.1321C94.3761 51.8868 94.8517 51.7642 95.4251 51.7642C95.9454 51.7642 96.4012 51.8736 96.7923 52.0923C97.1834 52.3078 97.4866 52.6293 97.7021 53.0568C97.9175 53.4844 98.0252 54.013 98.0252 54.6428V59.5H96.5387V54.8217C96.5387 54.2682 96.3945 53.8357 96.1062 53.5241C95.8178 53.2093 95.4218 53.0518 94.918 53.0518C94.5733 53.0518 94.2667 53.1264 93.9982 53.2756C93.7331 53.4247 93.5226 53.6435 93.3668 53.9318C93.2144 54.2169 93.1381 54.5616 93.1381 54.9659ZM103.583 51.8636V53.0568H99.4123V51.8636H103.583ZM100.531 50.0341H102.017V57.2578C102.017 57.5462 102.06 57.7633 102.147 57.9091C102.233 58.0516 102.344 58.1494 102.48 58.2024C102.619 58.2521 102.77 58.277 102.932 58.277C103.051 58.277 103.156 58.2687 103.245 58.2521C103.335 58.2356 103.404 58.2223 103.454 58.2124L103.723 59.4403C103.636 59.4735 103.514 59.5066 103.355 59.5398C103.196 59.5762 102.997 59.5961 102.758 59.5994C102.367 59.6061 102.002 59.5365 101.664 59.3906C101.326 59.2448 101.053 59.0194 100.844 58.7145C100.635 58.4096 100.531 58.0268 100.531 57.5661V50.0341ZM105.228 59.5V51.8636H106.665V53.0767H106.744C106.883 52.6657 107.129 52.3426 107.48 52.1072C107.835 51.8686 108.236 51.7493 108.683 51.7493C108.776 51.7493 108.885 51.7526 109.011 51.7592C109.14 51.7659 109.242 51.7741 109.314 51.7841V53.206C109.255 53.1894 109.149 53.1712 108.996 53.1513C108.844 53.1281 108.691 53.1165 108.539 53.1165C108.188 53.1165 107.874 53.1911 107.599 53.3402C107.327 53.486 107.112 53.6899 106.953 53.9517C106.794 54.2102 106.714 54.5052 106.714 54.8366V59.5H105.228ZM110.601 59.5V51.8636H112.087V59.5H110.601ZM111.352 50.6854C111.093 50.6854 110.871 50.5992 110.685 50.4268C110.503 50.2512 110.412 50.0424 110.412 49.8004C110.412 49.5552 110.503 49.3464 110.685 49.174C110.871 48.9983 111.093 48.9105 111.352 48.9105C111.61 48.9105 111.83 48.9983 112.013 49.174C112.198 49.3464 112.291 49.5552 112.291 49.8004C112.291 50.0424 112.198 50.2512 112.013 50.4268C111.83 50.5992 111.61 50.6854 111.352 50.6854ZM114.206 59.5V49.3182H115.693V53.1016H115.782C115.869 52.9425 115.993 52.7585 116.155 52.5497C116.318 52.3409 116.543 52.1586 116.831 52.0028C117.12 51.8438 117.501 51.7642 117.975 51.7642C118.591 51.7642 119.142 51.92 119.626 52.2315C120.109 52.5431 120.489 52.9922 120.764 53.5788C121.042 54.1655 121.182 54.8714 121.182 55.6967C121.182 56.522 121.044 57.2296 120.769 57.8196C120.494 58.4062 120.116 58.8587 119.635 59.1768C119.155 59.4917 118.606 59.6491 117.99 59.6491C117.526 59.6491 117.146 59.5713 116.851 59.4155C116.56 59.2597 116.331 59.0774 116.165 58.8686C116 58.6598 115.872 58.4742 115.782 58.3118H115.658V59.5H114.206ZM115.663 55.6818C115.663 56.2187 115.741 56.6894 115.897 57.0938C116.053 57.4981 116.278 57.8146 116.573 58.0433C116.868 58.2687 117.229 58.3814 117.657 58.3814C118.101 58.3814 118.472 58.2637 118.77 58.0284C119.069 57.7898 119.294 57.4666 119.447 57.0589C119.602 56.6513 119.68 56.1922 119.68 55.6818C119.68 55.178 119.604 54.7256 119.452 54.3246C119.302 53.9235 119.077 53.607 118.775 53.375C118.477 53.143 118.104 53.027 117.657 53.027C117.226 53.027 116.861 53.138 116.563 53.3601C116.268 53.5821 116.044 53.892 115.892 54.2898C115.739 54.6875 115.663 55.1515 115.663 55.6818ZM127.688 56.3331V51.8636H129.18V59.5H127.718V58.1776H127.638C127.463 58.5852 127.181 58.925 126.793 59.1967C126.409 59.4652 125.93 59.5994 125.357 59.5994C124.866 59.5994 124.432 59.4917 124.054 59.2763C123.679 59.0575 123.384 58.7344 123.169 58.3068C122.957 57.8793 122.851 57.3506 122.851 56.7209V51.8636H124.337V56.5419C124.337 57.0623 124.482 57.4766 124.77 57.7848C125.058 58.093 125.433 58.2472 125.893 58.2472C126.172 58.2472 126.449 58.1776 126.724 58.0384C127.002 57.8991 127.232 57.6887 127.415 57.407C127.6 57.1252 127.692 56.7673 127.688 56.3331ZM134.742 51.8636V53.0568H130.57V51.8636H134.742ZM131.689 50.0341H133.176V57.2578C133.176 57.5462 133.219 57.7633 133.305 57.9091C133.391 58.0516 133.502 58.1494 133.638 58.2024C133.777 58.2521 133.928 58.277 134.09 58.277C134.21 58.277 134.314 58.2687 134.404 58.2521C134.493 58.2356 134.563 58.2223 134.612 58.2124L134.881 59.4403C134.795 59.4735 134.672 59.5066 134.513 59.5398C134.354 59.5762 134.155 59.5961 133.916 59.5994C133.525 59.6061 133.161 59.5365 132.823 59.3906C132.485 59.2448 132.211 59.0194 132.002 58.7145C131.794 58.4096 131.689 58.0268 131.689 57.5661V50.0341ZM139.595 59.6541C138.843 59.6541 138.195 59.4934 137.651 59.1719C137.111 58.8471 136.693 58.3913 136.398 57.8047C136.107 57.2147 135.961 56.5237 135.961 55.7315C135.961 54.9493 136.107 54.2599 136.398 53.6634C136.693 53.0668 137.104 52.6011 137.631 52.2663C138.162 51.9316 138.781 51.7642 139.491 51.7642C139.922 51.7642 140.339 51.8355 140.744 51.978C141.148 52.1205 141.511 52.3442 141.832 52.6491C142.154 52.9541 142.407 53.3501 142.593 53.8374C142.779 54.3213 142.871 54.9096 142.871 55.6023V56.1293H136.801V55.0156H141.415C141.415 54.6245 141.335 54.2782 141.176 53.9766C141.017 53.6716 140.793 53.4313 140.505 53.2557C140.22 53.08 139.885 52.9922 139.501 52.9922C139.083 52.9922 138.719 53.0949 138.407 53.3004C138.099 53.5026 137.86 53.7678 137.691 54.0959C137.525 54.4207 137.442 54.7737 137.442 55.1548V56.0249C137.442 56.5353 137.532 56.9695 137.711 57.3274C137.893 57.6854 138.147 57.9588 138.472 58.1477C138.796 58.3333 139.176 58.4261 139.61 58.4261C139.892 58.4261 140.149 58.3864 140.381 58.3068C140.613 58.224 140.813 58.1013 140.982 57.9389C141.151 57.7765 141.281 57.576 141.37 57.3374L142.777 57.5909C142.664 58.0052 142.462 58.3681 142.17 58.6797C141.882 58.9879 141.519 59.2282 141.082 59.4006C140.647 59.5696 140.152 59.6541 139.595 59.6541ZM147.379 59.6491C146.763 59.6491 146.213 59.4917 145.729 59.1768C145.248 58.8587 144.87 58.4062 144.595 57.8196C144.324 57.2296 144.188 56.522 144.188 55.6967C144.188 54.8714 144.325 54.1655 144.6 53.5788C144.879 52.9922 145.26 52.5431 145.744 52.2315C146.228 51.92 146.776 51.7642 147.389 51.7642C147.863 51.7642 148.244 51.8438 148.533 52.0028C148.825 52.1586 149.05 52.3409 149.209 52.5497C149.371 52.7585 149.497 52.9425 149.587 53.1016H149.676V49.3182H151.163V59.5H149.711V58.3118H149.587C149.497 58.4742 149.368 58.6598 149.199 58.8686C149.033 59.0774 148.805 59.2597 148.513 59.4155C148.221 59.5713 147.843 59.6491 147.379 59.6491ZM147.708 58.3814C148.135 58.3814 148.496 58.2687 148.791 58.0433C149.09 57.8146 149.315 57.4981 149.468 57.0938C149.623 56.6894 149.701 56.2187 149.701 55.6818C149.701 55.1515 149.625 54.6875 149.472 54.2898C149.32 53.892 149.096 53.5821 148.801 53.3601C148.506 53.138 148.142 53.027 147.708 53.027C147.26 53.027 146.887 53.143 146.589 53.375C146.291 53.607 146.065 53.9235 145.913 54.3246C145.764 54.7256 145.689 55.178 145.689 55.6818C145.689 56.1922 145.765 56.6513 145.918 57.0589C146.07 57.4666 146.296 57.7898 146.594 58.0284C146.896 58.2637 147.267 58.3814 147.708 58.3814Z" fill="#555761"/>
<path d="M11.56 108.5V81.7H6.32C4.96 83.46 3.16 84.1 0.8 84.1V88.46H5.84V108.5H11.56ZM26.5547 108.9C32.8347 108.9 37.0347 105.14 37.0347 99.46C37.0347 93.94 33.8347 90.94 29.0747 90.94C25.4747 90.94 23.2347 92.82 22.3547 95.22L22.9547 86.86H35.1947V81.7H17.5947L16.6747 96.74L22.1147 97.3L22.1547 97.06C22.5547 95.38 24.1147 94.58 26.2747 94.58C28.9147 94.58 30.8347 95.98 30.8347 98.94C30.8347 101.74 29.2347 103.26 26.4347 103.26C23.3947 103.26 21.0747 101.66 20.1947 98.5L15.6747 102.58C16.9947 106.14 20.9147 108.9 26.5547 108.9ZM41.2319 113.78C44.4719 113.46 46.1119 111.78 46.1119 108.66V102.3H40.0319V108.5H42.7919V109.02C42.7919 110.54 41.6319 110.82 40.1119 110.9L41.2319 113.78ZM57.2241 108.5V81.7H51.9841C50.6241 83.46 48.8241 84.1 46.4641 84.1V88.46H51.5041V108.5H57.2241ZM70.7788 108.5V81.7H65.5388C64.1788 83.46 62.3788 84.1 60.0188 84.1V88.46H65.0588V108.5H70.7788ZM84.0134 108.9C91.8534 108.9 95.7334 103.9 95.7334 95.58V94.82C95.7334 85.78 92.1334 81.3 84.8934 81.3C78.8134 81.3 74.6134 85.02 74.6134 90.66C74.6134 95.46 77.0934 99.02 82.4134 99.02C86.2134 99.02 88.6934 96.98 89.4134 93.66V95.82C89.4134 101.46 87.2534 103.18 84.1734 103.18C81.7334 103.18 79.8534 102.06 78.2934 99.94L75.2934 105.26C77.0934 107.38 80.2134 108.9 84.0134 108.9ZM85.0534 95.22C82.1334 95.22 80.8134 93.42 80.8134 90.98C80.8134 88.54 82.3334 86.74 85.0934 86.74C87.8534 86.74 89.2934 88.3 89.2934 91.18C89.2934 93.66 87.7734 95.22 85.0534 95.22ZM104.862 108.5V102.3H98.7819V108.5H104.862ZM118.408 108.9C125.728 108.9 129.248 105.78 129.248 101.42C129.248 98.66 127.408 95.86 122.728 94.9C126.408 94.3 128.328 91.82 128.328 88.7C128.328 84.66 124.848 81.3 118.408 81.3C111.928 81.3 108.488 84.66 108.488 88.74C108.488 91.78 110.208 94.3 113.888 94.9C109.208 95.86 107.568 98.66 107.568 101.42C107.568 105.78 111.088 108.9 118.408 108.9ZM118.408 92.98C115.728 92.98 114.648 91.58 114.648 89.74C114.648 88.06 115.728 86.58 118.408 86.58C121.088 86.58 122.168 88.06 122.168 89.74C122.168 91.58 120.768 92.98 118.408 92.98ZM118.408 103.62C115.128 103.62 114.128 101.98 114.128 100.14C114.128 98.18 115.568 96.58 118.408 96.58C121.248 96.58 122.688 98.18 122.688 100.14C122.688 101.98 121.688 103.62 118.408 103.62ZM153.121 108.5V103.42H143.841L138.841 104.06L142.281 101.86L145.601 99.26C149.001 96.78 152.321 93.54 152.321 89.34C152.321 84.54 149.241 81.3 143.601 81.3C137.481 81.3 132.921 84.82 132.481 90.26L136.921 93.82C137.321 88.86 139.681 86.78 143.001 86.78C145.081 86.78 146.241 88.02 146.241 89.7C146.241 91.58 144.961 93.06 142.841 95.06L132.881 104.18V108.5H153.121ZM177.387 108.5C183.067 108.5 186.787 106.5 186.787 101.5C186.787 97.7 184.387 94.98 177.587 94.74C181.747 94.54 185.827 93.06 185.827 88.5C185.827 84.7 183.467 81.7 177.547 81.7H164.387V108.5H177.387ZM176.027 86.78C178.307 86.78 179.787 87.54 179.787 89.66C179.787 91.82 178.347 92.54 176.107 92.54H170.107V86.78H176.027ZM176.627 97.14C179.347 97.14 180.907 98.1 180.907 100.26C180.907 102.42 179.587 103.42 176.547 103.42H170.107V97.14H176.627ZM195.966 108.5V97.06L195.526 90.42L197.926 94.38L207.686 108.5H213.126V81.7H207.406V93.58L207.766 99.9L205.326 95.7L195.806 81.7H190.246V108.5H195.966ZM231.176 108.5C236.856 108.5 240.576 106.5 240.576 101.5C240.576 97.7 238.176 94.98 231.376 94.74C235.536 94.54 239.616 93.06 239.616 88.5C239.616 84.7 237.256 81.7 231.336 81.7H218.176V108.5H231.176ZM229.816 86.78C232.096 86.78 233.576 87.54 233.576 89.66C233.576 91.82 232.136 92.54 229.896 92.54H223.896V86.78H229.816ZM230.416 97.14C233.136 97.14 234.696 98.1 234.696 100.26C234.696 102.42 233.376 103.42 230.336 103.42H223.896V97.14H230.416Z" fill="#13172B"/>
<rect x="312" width="1" height="160" fill="#E9ECF2"/>
<path d="M401.375 49.625V58.375C401.375 61 400.062 62.75 397 62.75H390C386.938 62.75 385.625 61 385.625 58.375V49.625C385.625 47 386.938 45.25 390 45.25H397C400.062 45.25 401.375 47 401.375 49.625Z" stroke="#555761" stroke-width="1.5" stroke-miterlimit="10" stroke-linecap="round" stroke-linejoin="round"/>
<path d="M395.688 47.4375V49.1875C395.688 50.15 396.475 50.9375 397.438 50.9375H399.188" stroke="#555761" stroke-width="1.5" stroke-miterlimit="10" stroke-linecap="round" stroke-linejoin="round"/>
<path d="M390 54.875H393.5" stroke="#555761" stroke-width="1.5" stroke-miterlimit="10" stroke-linecap="round" stroke-linejoin="round"/>
<path d="M390 58.375H397" stroke="#555761" stroke-width="1.5" stroke-miterlimit="10" stroke-linecap="round" stroke-linejoin="round"/>
<path d="M408.616 50.6406V49.3182H416.496V50.6406H413.32V59.5H411.788V50.6406H408.616ZM420.228 59.6541C419.512 59.6541 418.887 59.4901 418.353 59.1619C417.82 58.8338 417.405 58.3748 417.11 57.7848C416.815 57.1948 416.668 56.5054 416.668 55.7166C416.668 54.9245 416.815 54.2318 417.11 53.6385C417.405 53.0452 417.82 52.5845 418.353 52.2564C418.887 51.9283 419.512 51.7642 420.228 51.7642C420.944 51.7642 421.568 51.9283 422.102 52.2564C422.636 52.5845 423.05 53.0452 423.345 53.6385C423.64 54.2318 423.787 54.9245 423.787 55.7166C423.787 56.5054 423.64 57.1948 423.345 57.7848C423.05 58.3748 422.636 58.8338 422.102 59.1619C421.568 59.4901 420.944 59.6541 420.228 59.6541ZM420.233 58.4062C420.697 58.4062 421.081 58.2836 421.386 58.0384C421.691 57.7931 421.916 57.4666 422.062 57.0589C422.211 56.6513 422.286 56.2022 422.286 55.7116C422.286 55.2244 422.211 54.777 422.062 54.3693C421.916 53.9583 421.691 53.6286 421.386 53.38C421.081 53.1314 420.697 53.0071 420.233 53.0071C419.765 53.0071 419.377 53.1314 419.069 53.38C418.764 53.6286 418.537 53.9583 418.388 54.3693C418.242 54.777 418.169 55.2244 418.169 55.7116C418.169 56.2022 418.242 56.6513 418.388 57.0589C418.537 57.4666 418.764 57.7931 419.069 58.0384C419.377 58.2836 419.765 58.4062 420.233 58.4062ZM429.011 51.8636V53.0568H424.84V51.8636H429.011ZM425.959 50.0341H427.445V57.2578C427.445 57.5462 427.488 57.7633 427.574 57.9091C427.661 58.0516 427.772 58.1494 427.907 58.2024C428.047 58.2521 428.198 58.277 428.36 58.277C428.479 58.277 428.584 58.2687 428.673 58.2521C428.763 58.2356 428.832 58.2223 428.882 58.2124L429.15 59.4403C429.064 59.4735 428.942 59.5066 428.782 59.5398C428.623 59.5762 428.425 59.5961 428.186 59.5994C427.795 59.6061 427.43 59.5365 427.092 59.3906C426.754 59.2448 426.481 59.0194 426.272 58.7145C426.063 58.4096 425.959 58.0268 425.959 57.5661V50.0341ZM432.878 59.669C432.394 59.669 431.956 59.5795 431.565 59.4006C431.174 59.2183 430.864 58.9548 430.636 58.6101C430.41 58.2654 430.298 57.8428 430.298 57.3423C430.298 56.9115 430.38 56.5568 430.546 56.2784C430.712 56 430.936 55.7796 431.217 55.6172C431.499 55.4548 431.814 55.3321 432.162 55.2493C432.51 55.1664 432.865 55.1035 433.226 55.0604C433.683 55.0073 434.054 54.9643 434.339 54.9311C434.625 54.8946 434.832 54.8366 434.961 54.7571C435.09 54.6776 435.155 54.5483 435.155 54.3693V54.3345C435.155 53.9003 435.032 53.5639 434.787 53.3253C434.545 53.0866 434.184 52.9673 433.703 52.9673C433.203 52.9673 432.808 53.0784 432.52 53.3004C432.235 53.5192 432.038 53.7628 431.928 54.0312L430.531 53.7131C430.697 53.2491 430.939 52.8745 431.257 52.5895C431.579 52.3011 431.948 52.0923 432.366 51.9631C432.783 51.8305 433.223 51.7642 433.683 51.7642C433.988 51.7642 434.311 51.8007 434.653 51.8736C434.997 51.9432 435.319 52.0724 435.617 52.2614C435.919 52.4503 436.166 52.7204 436.358 53.0717C436.55 53.4197 436.646 53.8722 436.646 54.429V59.5H435.195V58.456H435.135C435.039 58.6482 434.895 58.8371 434.702 59.0227C434.51 59.2083 434.263 59.3625 433.962 59.4851C433.66 59.6077 433.299 59.669 432.878 59.669ZM433.201 58.4759C433.612 58.4759 433.963 58.3946 434.255 58.2322C434.55 58.0698 434.774 57.8577 434.926 57.5959C435.082 57.3307 435.16 57.0473 435.16 56.7457V55.7614C435.107 55.8144 435.004 55.8641 434.852 55.9105C434.702 55.9536 434.532 55.9917 434.339 56.0249C434.147 56.0547 433.96 56.0829 433.778 56.1094C433.595 56.1326 433.443 56.1525 433.32 56.169C433.032 56.2055 432.768 56.2668 432.53 56.353C432.295 56.4392 432.106 56.5634 431.963 56.7259C431.824 56.8849 431.754 57.0971 431.754 57.3622C431.754 57.7301 431.89 58.0085 432.162 58.1974C432.434 58.383 432.78 58.4759 433.201 58.4759ZM440.113 49.3182V59.5H438.626V49.3182H440.113ZM445.818 62.3636V51.8636H447.269V53.1016H447.394C447.48 52.9425 447.604 52.7585 447.767 52.5497C447.929 52.3409 448.154 52.1586 448.443 52.0028C448.731 51.8438 449.112 51.7642 449.586 51.7642C450.203 51.7642 450.753 51.92 451.237 52.2315C451.721 52.5431 452.1 52.9922 452.375 53.5788C452.654 54.1655 452.793 54.8714 452.793 55.6967C452.793 56.522 452.655 57.2296 452.38 57.8196C452.105 58.4062 451.727 58.8587 451.247 59.1768C450.766 59.4917 450.218 59.6491 449.601 59.6491C449.137 59.6491 448.758 59.5713 448.463 59.4155C448.171 59.2597 447.942 59.0774 447.776 58.8686C447.611 58.6598 447.483 58.4742 447.394 58.3118H447.304V62.3636H445.818ZM447.274 55.6818C447.274 56.2187 447.352 56.6894 447.508 57.0938C447.664 57.4981 447.889 57.8146 448.184 58.0433C448.479 58.2687 448.84 58.3814 449.268 58.3814C449.712 58.3814 450.083 58.2637 450.382 58.0284C450.68 57.7898 450.905 57.4666 451.058 57.0589C451.213 56.6513 451.291 56.1922 451.291 55.6818C451.291 55.178 451.215 54.7256 451.063 54.3246C450.914 53.9235 450.688 53.607 450.387 53.375C450.088 53.143 449.715 53.027 449.268 53.027C448.837 53.027 448.472 53.138 448.174 53.3601C447.879 53.5821 447.655 53.892 447.503 54.2898C447.351 54.6875 447.274 55.1515 447.274 55.6818ZM454.458 59.5V51.8636H455.895V53.0767H455.975C456.114 52.6657 456.359 52.3426 456.71 52.1072C457.065 51.8686 457.466 51.7493 457.914 51.7493C458.006 51.7493 458.116 51.7526 458.242 51.7592C458.371 51.7659 458.472 51.7741 458.545 51.7841V53.206C458.485 53.1894 458.379 53.1712 458.227 53.1513C458.074 53.1281 457.922 53.1165 457.769 53.1165C457.418 53.1165 457.105 53.1911 456.83 53.3402C456.558 53.486 456.343 53.6899 456.183 53.9517C456.024 54.2102 455.945 54.5052 455.945 54.8366V59.5H454.458ZM462.775 59.6541C462.059 59.6541 461.434 59.4901 460.9 59.1619C460.367 58.8338 459.952 58.3748 459.657 57.7848C459.362 57.1948 459.215 56.5054 459.215 55.7166C459.215 54.9245 459.362 54.2318 459.657 53.6385C459.952 53.0452 460.367 52.5845 460.9 52.2564C461.434 51.9283 462.059 51.7642 462.775 51.7642C463.49 51.7642 464.115 51.9283 464.649 52.2564C465.182 52.5845 465.597 53.0452 465.892 53.6385C466.187 54.2318 466.334 54.9245 466.334 55.7166C466.334 56.5054 466.187 57.1948 465.892 57.7848C465.597 58.3748 465.182 58.8338 464.649 59.1619C464.115 59.4901 463.49 59.6541 462.775 59.6541ZM462.779 58.4062C463.243 58.4062 463.628 58.2836 463.933 58.0384C464.238 57.7931 464.463 57.4666 464.609 57.0589C464.758 56.6513 464.833 56.2022 464.833 55.7116C464.833 55.2244 464.758 54.777 464.609 54.3693C464.463 53.9583 464.238 53.6286 463.933 53.38C463.628 53.1314 463.243 53.0071 462.779 53.0071C462.312 53.0071 461.924 53.1314 461.616 53.38C461.311 53.6286 461.084 53.9583 460.935 54.3693C460.789 54.777 460.716 55.2244 460.716 55.7116C460.716 56.2022 460.789 56.6513 460.935 57.0589C461.084 57.4666 461.311 57.7931 461.616 58.0384C461.924 58.2836 462.312 58.4062 462.779 58.4062ZM467.993 62.3636V51.8636H469.445V53.1016H469.569C469.656 52.9425 469.78 52.7585 469.942 52.5497C470.105 52.3409 470.33 52.1586 470.618 52.0028C470.907 51.8438 471.288 51.7642 471.762 51.7642C472.378 51.7642 472.929 51.92 473.412 52.2315C473.896 52.5431 474.276 52.9922 474.551 53.5788C474.829 54.1655 474.969 54.8714 474.969 55.6967C474.969 56.522 474.831 57.2296 474.556 57.8196C474.281 58.4062 473.903 58.8587 473.422 59.1768C472.942 59.4917 472.393 59.6491 471.777 59.6491C471.313 59.6491 470.933 59.5713 470.638 59.4155C470.347 59.2597 470.118 59.0774 469.952 58.8686C469.787 58.6598 469.659 58.4742 469.569 58.3118H469.48V62.3636H467.993ZM469.45 55.6818C469.45 56.2187 469.528 56.6894 469.684 57.0938C469.84 57.4981 470.065 57.8146 470.36 58.0433C470.655 58.2687 471.016 58.3814 471.444 58.3814C471.888 58.3814 472.259 58.2637 472.557 58.0284C472.856 57.7898 473.081 57.4666 473.233 57.0589C473.389 56.6513 473.467 56.1922 473.467 55.6818C473.467 55.178 473.391 54.7256 473.238 54.3246C473.089 53.9235 472.864 53.607 472.562 53.375C472.264 53.143 471.891 53.027 471.444 53.027C471.013 53.027 470.648 53.138 470.35 53.3601C470.055 53.5821 469.831 53.892 469.679 54.2898C469.526 54.6875 469.45 55.1515 469.45 55.6818ZM479.851 59.6541C479.135 59.6541 478.51 59.4901 477.976 59.1619C477.443 58.8338 477.028 58.3748 476.733 57.7848C476.439 57.1948 476.291 56.5054 476.291 55.7166C476.291 54.9245 476.439 54.2318 476.733 53.6385C477.028 53.0452 477.443 52.5845 477.976 52.2564C478.51 51.9283 479.135 51.7642 479.851 51.7642C480.567 51.7642 481.191 51.9283 481.725 52.2564C482.259 52.5845 482.673 53.0452 482.968 53.6385C483.263 54.2318 483.41 54.9245 483.41 55.7166C483.41 56.5054 483.263 57.1948 482.968 57.7848C482.673 58.3748 482.259 58.8338 481.725 59.1619C481.191 59.4901 480.567 59.6541 479.851 59.6541ZM479.856 58.4062C480.32 58.4062 480.704 58.2836 481.009 58.0384C481.314 57.7931 481.539 57.4666 481.685 57.0589C481.834 56.6513 481.909 56.2022 481.909 55.7116C481.909 55.2244 481.834 54.777 481.685 54.3693C481.539 53.9583 481.314 53.6286 481.009 53.38C480.704 53.1314 480.32 53.0071 479.856 53.0071C479.388 53.0071 479.001 53.1314 478.692 53.38C478.387 53.6286 478.16 53.9583 478.011 54.3693C477.865 54.777 477.792 55.2244 477.792 55.7116C477.792 56.2022 477.865 56.6513 478.011 57.0589C478.16 57.4666 478.387 57.7931 478.692 58.0384C479.001 58.2836 479.388 58.4062 479.856 58.4062ZM490.792 53.728L489.445 53.9666C489.388 53.7943 489.299 53.6302 489.176 53.4744C489.057 53.3187 488.894 53.1911 488.689 53.0916C488.483 52.9922 488.227 52.9425 487.918 52.9425C487.497 52.9425 487.146 53.0369 486.864 53.2259C486.583 53.4115 486.442 53.6518 486.442 53.9467C486.442 54.2019 486.536 54.4074 486.725 54.5632C486.914 54.719 487.219 54.8466 487.64 54.946L488.853 55.2244C489.556 55.3868 490.079 55.6371 490.424 55.9751C490.769 56.3132 490.941 56.7524 490.941 57.2926C490.941 57.75 490.808 58.1577 490.543 58.5156C490.281 58.8703 489.915 59.1487 489.445 59.3509C488.977 59.553 488.435 59.6541 487.819 59.6541C486.964 59.6541 486.266 59.4718 485.726 59.1072C485.186 58.7393 484.854 58.2173 484.732 57.5412L486.168 57.3224C486.258 57.697 486.442 57.9804 486.72 58.1726C486.999 58.3615 487.362 58.456 487.809 58.456C488.296 58.456 488.686 58.3549 488.977 58.1527C489.269 57.9472 489.415 57.697 489.415 57.402C489.415 57.1634 489.325 56.9628 489.146 56.8004C488.971 56.638 488.701 56.5154 488.336 56.4325L487.043 56.1491C486.331 55.9867 485.804 55.7282 485.462 55.3736C485.124 55.0189 484.955 54.5698 484.955 54.0263C484.955 53.5755 485.081 53.1811 485.333 52.843C485.585 52.505 485.933 52.2415 486.377 52.0526C486.821 51.8603 487.33 51.7642 487.903 51.7642C488.729 51.7642 489.378 51.9432 489.852 52.3011C490.326 52.6558 490.639 53.1314 490.792 53.728ZM494.798 59.669C494.314 59.669 493.876 59.5795 493.485 59.4006C493.094 59.2183 492.784 58.9548 492.556 58.6101C492.33 58.2654 492.218 57.8428 492.218 57.3423C492.218 56.9115 492.3 56.5568 492.466 56.2784C492.632 56 492.856 55.7796 493.137 55.6172C493.419 55.4548 493.734 55.3321 494.082 55.2493C494.43 55.1664 494.785 55.1035 495.146 55.0604C495.603 55.0073 495.974 54.9643 496.259 54.9311C496.544 54.8946 496.752 54.8366 496.881 54.7571C497.01 54.6776 497.075 54.5483 497.075 54.3693V54.3345C497.075 53.9003 496.952 53.5639 496.707 53.3253C496.465 53.0866 496.104 52.9673 495.623 52.9673C495.123 52.9673 494.728 53.0784 494.44 53.3004C494.155 53.5192 493.958 53.7628 493.848 54.0312L492.451 53.7131C492.617 53.2491 492.859 52.8745 493.177 52.5895C493.499 52.3011 493.868 52.0923 494.286 51.9631C494.703 51.8305 495.142 51.7642 495.603 51.7642C495.908 51.7642 496.231 51.8007 496.573 51.8736C496.917 51.9432 497.239 52.0724 497.537 52.2614C497.839 52.4503 498.086 52.7204 498.278 53.0717C498.47 53.4197 498.566 53.8722 498.566 54.429V59.5H497.115V58.456H497.055C496.959 58.6482 496.815 58.8371 496.622 59.0227C496.43 59.2083 496.183 59.3625 495.882 59.4851C495.58 59.6077 495.219 59.669 494.798 59.669ZM495.121 58.4759C495.532 58.4759 495.883 58.3946 496.175 58.2322C496.47 58.0698 496.694 57.8577 496.846 57.5959C497.002 57.3307 497.08 57.0473 497.08 56.7457V55.7614C497.027 55.8144 496.924 55.8641 496.771 55.9105C496.622 55.9536 496.452 55.9917 496.259 56.0249C496.067 56.0547 495.88 56.0829 495.698 56.1094C495.515 56.1326 495.363 56.1525 495.24 56.169C494.952 56.2055 494.688 56.2668 494.45 56.353C494.214 56.4392 494.026 56.5634 493.883 56.7259C493.744 56.8849 493.674 57.0971 493.674 57.3622C493.674 57.7301 493.81 58.0085 494.082 58.1974C494.354 58.383 494.7 58.4759 495.121 58.4759ZM502.033 49.3182V59.5H500.546V49.3182H502.033ZM509.755 53.728L508.407 53.9666C508.351 53.7943 508.262 53.6302 508.139 53.4744C508.02 53.3187 507.857 53.1911 507.652 53.0916C507.446 52.9922 507.189 52.9425 506.881 52.9425C506.46 52.9425 506.109 53.0369 505.827 53.2259C505.546 53.4115 505.405 53.6518 505.405 53.9467C505.405 54.2019 505.499 54.4074 505.688 54.5632C505.877 54.719 506.182 54.8466 506.603 54.946L507.816 55.2244C508.519 55.3868 509.042 55.6371 509.387 55.9751C509.732 56.3132 509.904 56.7524 509.904 57.2926C509.904 57.75 509.771 58.1577 509.506 58.5156C509.244 58.8703 508.878 59.1487 508.407 59.3509C507.94 59.553 507.398 59.6541 506.782 59.6541C505.927 59.6541 505.229 59.4718 504.689 59.1072C504.148 58.7393 503.817 58.2173 503.694 57.5412L505.131 57.3224C505.221 57.697 505.405 57.9804 505.683 58.1726C505.961 58.3615 506.324 58.456 506.772 58.456C507.259 58.456 507.648 58.3549 507.94 58.1527C508.232 57.9472 508.378 57.697 508.378 57.402C508.378 57.1634 508.288 56.9628 508.109 56.8004C507.934 56.638 507.663 56.5154 507.299 56.4325L506.006 56.1491C505.294 55.9867 504.767 55.7282 504.425 55.3736C504.087 55.0189 503.918 54.5698 503.918 54.0263C503.918 53.5755 504.044 53.1811 504.296 52.843C504.548 52.505 504.896 52.2415 505.34 52.0526C505.784 51.8603 506.293 51.7642 506.866 51.7642C507.692 51.7642 508.341 51.9432 508.815 52.3011C509.289 52.6558 509.602 53.1314 509.755 53.728Z" fill="#555761"/>
<path d="M394.56 108.5V81.7H389.32C387.96 83.46 386.16 84.1 383.8 84.1V88.46H388.84V108.5H394.56ZM410.27 108.86C417.91 108.86 422.11 103.06 422.11 95.06C422.11 87.1 417.91 81.3 410.27 81.3C402.63 81.3 398.39 87.1 398.39 95.06C398.39 103.06 402.63 108.86 410.27 108.86ZM410.27 103.3C406.15 103.3 404.43 100.1 404.43 95.06C404.43 90.06 406.15 86.82 410.27 86.82C414.39 86.82 416.11 90.06 416.11 95.06C416.11 100.1 414.39 103.3 410.27 103.3Z" fill="#13172B"/>
<rect x="581" width="1" height="160" fill="#E9ECF2"/>
<path d="M658.545 59.5563L661.257 61.6562C661.607 62.0062 662.395 62.1812 662.92 62.1812H666.245C667.295 62.1812 668.432 61.3937 668.695 60.3437L670.795 53.9563C671.232 52.7313 670.445 51.6813 669.132 51.6813H665.632C665.107 51.6813 664.67 51.2437 664.757 50.6312L665.195 47.8313C665.37 47.0438 664.845 46.1688 664.057 45.9063C663.357 45.6438 662.482 45.9938 662.132 46.5188L658.545 51.8563" stroke="#555761" stroke-width="1.5" stroke-miterlimit="10"/>
<path d="M654.083 59.5563V50.9813C654.083 49.7563 654.608 49.3188 655.833 49.3188H656.708C657.933 49.3188 658.458 49.7563 658.458 50.9813V59.5563C658.458 60.7813 657.933 61.2187 656.708 61.2187H655.833C654.608 61.2187 654.083 60.7813 654.083 59.5563Z" stroke="#555761" stroke-width="1.5" stroke-linecap="round" stroke-linejoin="round"/>
<path d="M677.616 50.6406V49.3182H685.496V50.6406H682.32V59.5H680.788V50.6406H677.616ZM689.228 59.6541C688.512 59.6541 687.887 59.4901 687.353 59.1619C686.82 58.8338 686.405 58.3748 686.11 57.7848C685.815 57.1948 685.668 56.5054 685.668 55.7166C685.668 54.9245 685.815 54.2318 686.11 53.6385C686.405 53.0452 686.82 52.5845 687.353 52.2564C687.887 51.9283 688.512 51.7642 689.228 51.7642C689.944 51.7642 690.568 51.9283 691.102 52.2564C691.636 52.5845 692.05 53.0452 692.345 53.6385C692.64 54.2318 692.787 54.9245 692.787 55.7166C692.787 56.5054 692.64 57.1948 692.345 57.7848C692.05 58.3748 691.636 58.8338 691.102 59.1619C690.568 59.4901 689.944 59.6541 689.228 59.6541ZM689.233 58.4062C689.697 58.4062 690.081 58.2836 690.386 58.0384C690.691 57.7931 690.916 57.4666 691.062 57.0589C691.211 56.6513 691.286 56.2022 691.286 55.7116C691.286 55.2244 691.211 54.777 691.062 54.3693C690.916 53.9583 690.691 53.6286 690.386 53.38C690.081 53.1314 689.697 53.0071 689.233 53.0071C688.765 53.0071 688.377 53.1314 688.069 53.38C687.764 53.6286 687.537 53.9583 687.388 54.3693C687.242 54.777 687.169 55.2244 687.169 55.7116C687.169 56.2022 687.242 56.6513 687.388 57.0589C687.537 57.4666 687.764 57.7931 688.069 58.0384C688.377 58.2836 688.765 58.4062 689.233 58.4062ZM698.011 51.8636V53.0568H693.84V51.8636H698.011ZM694.959 50.0341H696.445V57.2578C696.445 57.5462 696.488 57.7633 696.574 57.9091C696.661 58.0516 696.772 58.1494 696.907 58.2024C697.047 58.2521 697.198 58.277 697.36 58.277C697.479 58.277 697.584 58.2687 697.673 58.2521C697.763 58.2356 697.832 58.2223 697.882 58.2124L698.15 59.4403C698.064 59.4735 697.942 59.5066 697.782 59.5398C697.623 59.5762 697.425 59.5961 697.186 59.5994C696.795 59.6061 696.43 59.5365 696.092 59.3906C695.754 59.2448 695.481 59.0194 695.272 58.7145C695.063 58.4096 694.959 58.0268 694.959 57.5661V50.0341ZM701.878 59.669C701.394 59.669 700.956 59.5795 700.565 59.4006C700.174 59.2183 699.864 58.9548 699.636 58.6101C699.41 58.2654 699.298 57.8428 699.298 57.3423C699.298 56.9115 699.38 56.5568 699.546 56.2784C699.712 56 699.936 55.7796 700.217 55.6172C700.499 55.4548 700.814 55.3321 701.162 55.2493C701.51 55.1664 701.865 55.1035 702.226 55.0604C702.683 55.0073 703.054 54.9643 703.339 54.9311C703.625 54.8946 703.832 54.8366 703.961 54.7571C704.09 54.6776 704.155 54.5483 704.155 54.3693V54.3345C704.155 53.9003 704.032 53.5639 703.787 53.3253C703.545 53.0866 703.184 52.9673 702.703 52.9673C702.203 52.9673 701.808 53.0784 701.52 53.3004C701.235 53.5192 701.038 53.7628 700.928 54.0312L699.531 53.7131C699.697 53.2491 699.939 52.8745 700.257 52.5895C700.579 52.3011 700.948 52.0923 701.366 51.9631C701.783 51.8305 702.223 51.7642 702.683 51.7642C702.988 51.7642 703.311 51.8007 703.653 51.8736C703.997 51.9432 704.319 52.0724 704.617 52.2614C704.919 52.4503 705.166 52.7204 705.358 53.0717C705.55 53.4197 705.646 53.8722 705.646 54.429V59.5H704.195V58.456H704.135C704.039 58.6482 703.895 58.8371 703.702 59.0227C703.51 59.2083 703.263 59.3625 702.962 59.4851C702.66 59.6077 702.299 59.669 701.878 59.669ZM702.201 58.4759C702.612 58.4759 702.963 58.3946 703.255 58.2322C703.55 58.0698 703.774 57.8577 703.926 57.5959C704.082 57.3307 704.16 57.0473 704.16 56.7457V55.7614C704.107 55.8144 704.004 55.8641 703.852 55.9105C703.702 55.9536 703.532 55.9917 703.339 56.0249C703.147 56.0547 702.96 56.0829 702.778 56.1094C702.595 56.1326 702.443 56.1525 702.32 56.169C702.032 56.2055 701.768 56.2668 701.53 56.353C701.295 56.4392 701.106 56.5634 700.963 56.7259C700.824 56.8849 700.754 57.0971 700.754 57.3622C700.754 57.7301 700.89 58.0085 701.162 58.1974C701.434 58.383 701.78 58.4759 702.201 58.4759ZM709.113 49.3182V59.5H707.626V49.3182H709.113ZM721.35 51.8636L718.581 59.5H716.99L714.216 51.8636H715.812L717.746 57.7401H717.825L719.754 51.8636H721.35ZM725.704 59.6541C724.988 59.6541 724.364 59.4901 723.83 59.1619C723.296 58.8338 722.882 58.3748 722.587 57.7848C722.292 57.1948 722.145 56.5054 722.145 55.7166C722.145 54.9245 722.292 54.2318 722.587 53.6385C722.882 53.0452 723.296 52.5845 723.83 52.2564C724.364 51.9283 724.988 51.7642 725.704 51.7642C726.42 51.7642 727.045 51.9283 727.578 52.2564C728.112 52.5845 728.526 53.0452 728.821 53.6385C729.116 54.2318 729.264 54.9245 729.264 55.7166C729.264 56.5054 729.116 57.1948 728.821 57.7848C728.526 58.3748 728.112 58.8338 727.578 59.1619C727.045 59.4901 726.42 59.6541 725.704 59.6541ZM725.709 58.4062C726.173 58.4062 726.558 58.2836 726.863 58.0384C727.167 57.7931 727.393 57.4666 727.539 57.0589C727.688 56.6513 727.762 56.2022 727.762 55.7116C727.762 55.2244 727.688 54.777 727.539 54.3693C727.393 53.9583 727.167 53.6286 726.863 53.38C726.558 53.1314 726.173 53.0071 725.709 53.0071C725.242 53.0071 724.854 53.1314 724.546 53.38C724.241 53.6286 724.014 53.9583 723.865 54.3693C723.719 54.777 723.646 55.2244 723.646 55.7116C723.646 56.2022 723.719 56.6513 723.865 57.0589C724.014 57.4666 724.241 57.7931 724.546 58.0384C724.854 58.2836 725.242 58.4062 725.709 58.4062ZM734.488 51.8636V53.0568H730.317V51.8636H734.488ZM731.435 50.0341H732.922V57.2578C732.922 57.5462 732.965 57.7633 733.051 57.9091C733.137 58.0516 733.248 58.1494 733.384 58.2024C733.523 58.2521 733.674 58.277 733.836 58.277C733.956 58.277 734.06 58.2687 734.15 58.2521C734.239 58.2356 734.309 58.2223 734.358 58.2124L734.627 59.4403C734.541 59.4735 734.418 59.5066 734.259 59.5398C734.1 59.5762 733.901 59.5961 733.662 59.5994C733.271 59.6061 732.907 59.5365 732.569 59.3906C732.231 59.2448 731.957 59.0194 731.748 58.7145C731.54 58.4096 731.435 58.0268 731.435 57.5661V50.0341ZM739.341 59.6541C738.589 59.6541 737.941 59.4934 737.397 59.1719C736.857 58.8471 736.44 58.3913 736.145 57.8047C735.853 57.2147 735.707 56.5237 735.707 55.7315C735.707 54.9493 735.853 54.2599 736.145 53.6634C736.44 53.0668 736.85 52.6011 737.377 52.2663C737.908 51.9316 738.528 51.7642 739.237 51.7642C739.668 51.7642 740.085 51.8355 740.49 51.978C740.894 52.1205 741.257 52.3442 741.578 52.6491C741.9 52.9541 742.154 53.3501 742.339 53.8374C742.525 54.3213 742.618 54.9096 742.618 55.6023V56.1293H736.547V55.0156H741.161C741.161 54.6245 741.081 54.2782 740.922 53.9766C740.763 53.6716 740.539 53.4313 740.251 53.2557C739.966 53.08 739.631 52.9922 739.247 52.9922C738.829 52.9922 738.465 53.0949 738.153 53.3004C737.845 53.5026 737.606 53.7678 737.437 54.0959C737.271 54.4207 737.189 54.7737 737.189 55.1548V56.0249C737.189 56.5353 737.278 56.9695 737.457 57.3274C737.639 57.6854 737.893 57.9588 738.218 58.1477C738.542 58.3333 738.922 58.4261 739.356 58.4261C739.638 58.4261 739.895 58.3864 740.127 58.3068C740.359 58.224 740.559 58.1013 740.728 57.9389C740.897 57.7765 741.027 57.576 741.116 57.3374L742.523 57.5909C742.41 58.0052 742.208 58.3681 741.917 58.6797C741.628 58.9879 741.265 59.2282 740.828 59.4006C740.394 59.5696 739.898 59.6541 739.341 59.6541ZM749.989 53.728L748.642 53.9666C748.586 53.7943 748.496 53.6302 748.373 53.4744C748.254 53.3187 748.092 53.1911 747.886 53.0916C747.681 52.9922 747.424 52.9425 747.116 52.9425C746.695 52.9425 746.343 53.0369 746.062 53.2259C745.78 53.4115 745.639 53.6518 745.639 53.9467C745.639 54.2019 745.733 54.4074 745.922 54.5632C746.111 54.719 746.416 54.8466 746.837 54.946L748.05 55.2244C748.753 55.3868 749.277 55.6371 749.621 55.9751C749.966 56.3132 750.138 56.7524 750.138 57.2926C750.138 57.75 750.006 58.1577 749.741 58.5156C749.479 58.8703 749.113 59.1487 748.642 59.3509C748.175 59.553 747.633 59.6541 747.016 59.6541C746.161 59.6541 745.463 59.4718 744.923 59.1072C744.383 58.7393 744.051 58.2173 743.929 57.5412L745.366 57.3224C745.455 57.697 745.639 57.9804 745.917 58.1726C746.196 58.3615 746.559 58.456 747.006 58.456C747.493 58.456 747.883 58.3549 748.175 58.1527C748.466 57.9472 748.612 57.697 748.612 57.402C748.612 57.1634 748.523 56.9628 748.344 56.8004C748.168 56.638 747.898 56.5154 747.533 56.4325L746.241 56.1491C745.528 55.9867 745.001 55.7282 744.66 55.3736C744.322 55.0189 744.153 54.5698 744.153 54.0263C744.153 53.5755 744.278 53.1811 744.53 52.843C744.782 52.505 745.13 52.2415 745.574 52.0526C746.019 51.8603 746.527 51.7642 747.101 51.7642C747.926 51.7642 748.576 51.9432 749.05 52.3011C749.523 52.6558 749.837 53.1314 749.989 53.728Z" fill="#555761"/>
<path d="M663.56 108.5V81.7H658.32C656.96 83.46 655.16 84.1 652.8 84.1V88.46H657.84V108.5H663.56ZM679.27 108.86C686.91 108.86 691.11 103.06 691.11 95.06C691.11 87.1 686.91 81.3 679.27 81.3C671.63 81.3 667.39 87.1 667.39 95.06C667.39 103.06 671.63 108.86 679.27 108.86ZM679.27 103.3C675.15 103.3 673.43 100.1 673.43 95.06C673.43 90.06 675.15 86.82 679.27 86.82C683.39 86.82 685.11 90.06 685.11 95.06C685.11 100.1 683.39 103.3 679.27 103.3ZM706.262 108.86C713.902 108.86 718.102 103.06 718.102 95.06C718.102 87.1 713.902 81.3 706.262 81.3C698.622 81.3 694.382 87.1 694.382 95.06C694.382 103.06 698.622 108.86 706.262 108.86ZM706.262 103.3C702.142 103.3 700.422 100.1 700.422 95.06C700.422 90.06 702.142 86.82 706.262 86.82C710.382 86.82 712.102 90.06 712.102 95.06C712.102 100.1 710.382 103.3 706.262 103.3ZM727.454 108.5V102.94L730.134 100.14L735.094 108.5H741.614L733.974 96.74L741.654 88.9H734.894L730.774 93.14L727.174 97.46L727.454 92.34V81.7H721.734V108.5H727.454Z" fill="#13172B"/>
<rect x="821" width="1" height="160" fill="#E9ECF2"/>
<path d="M900.015 53.0112C899.927 53.0025 899.822 53.0025 899.726 53.0112C897.644 52.9412 895.99 51.235 895.99 49.135C895.99 46.9912 897.722 45.25 899.875 45.25C902.019 45.25 903.76 46.9912 903.76 49.135C903.751 51.235 902.097 52.9412 900.015 53.0112Z" stroke="#555761" stroke-width="1.5" stroke-linecap="round" stroke-linejoin="round"/>
<path d="M906.359 47C908.056 47 909.421 48.3738 909.421 50.0625C909.421 51.7162 908.109 53.0637 906.473 53.125C906.403 53.1163 906.324 53.1163 906.245 53.125" stroke="#555761" stroke-width="1.5" stroke-linecap="round" stroke-linejoin="round"/>
<path d="M895.64 56.24C893.522 57.6575 893.522 59.9675 895.64 61.3762C898.046 62.9862 901.992 62.9862 904.399 61.3762C906.516 59.9587 906.516 57.6488 904.399 56.24C902.001 54.6388 898.055 54.6388 895.64 56.24Z" stroke="#555761" stroke-width="1.5" stroke-linecap="round" stroke-linejoin="round"/>
<path d="M908.048 61C908.678 60.8687 909.273 60.615 909.763 60.2387C911.128 59.215 911.128 57.5262 909.763 56.5025C909.281 56.135 908.695 55.89 908.074 55.75" stroke="#555761" stroke-width="1.5" stroke-linecap="round" stroke-linejoin="round"/>
<path d="M918.119 49.3182H919.983L923.224 57.233H923.344L926.585 49.3182H928.45V59.5H926.988V52.1321H926.893L923.891 59.4851H922.678L919.675 52.1271H919.58V59.5H918.119V49.3182ZM933.855 59.6541C933.103 59.6541 932.455 59.4934 931.911 59.1719C931.371 58.8471 930.953 58.3913 930.658 57.8047C930.367 57.2147 930.221 56.5237 930.221 55.7315C930.221 54.9493 930.367 54.2599 930.658 53.6634C930.953 53.0668 931.364 52.6011 931.891 52.2663C932.421 51.9316 933.041 51.7642 933.751 51.7642C934.181 51.7642 934.599 51.8355 935.003 51.978C935.408 52.1205 935.771 52.3442 936.092 52.6491C936.414 52.9541 936.667 53.3501 936.853 53.8374C937.038 54.3213 937.131 54.9096 937.131 55.6023V56.1293H931.061V55.0156H935.675C935.675 54.6245 935.595 54.2782 935.436 53.9766C935.277 53.6716 935.053 53.4313 934.765 53.2557C934.48 53.08 934.145 52.9922 933.76 52.9922C933.343 52.9922 932.978 53.0949 932.667 53.3004C932.358 53.5026 932.12 53.7678 931.951 54.0959C931.785 54.4207 931.702 54.7737 931.702 55.1548V56.0249C931.702 56.5353 931.792 56.9695 931.971 57.3274C932.153 57.6854 932.407 57.9588 932.731 58.1477C933.056 58.3333 933.436 58.4261 933.87 58.4261C934.152 58.4261 934.408 58.3864 934.64 58.3068C934.872 58.224 935.073 58.1013 935.242 57.9389C935.411 57.7765 935.54 57.576 935.63 57.3374L937.037 57.5909C936.924 58.0052 936.722 58.3681 936.43 58.6797C936.142 58.9879 935.779 59.2282 935.341 59.4006C934.907 59.5696 934.412 59.6541 933.855 59.6541ZM938.781 59.5V51.8636H940.207V53.1065H940.302C940.461 52.6856 940.721 52.3575 941.082 52.1222C941.444 51.8835 941.876 51.7642 942.38 51.7642C942.89 51.7642 943.318 51.8835 943.663 52.1222C944.011 52.3608 944.268 52.6889 944.433 53.1065H944.513C944.695 52.6989 944.985 52.3741 945.383 52.1321C945.781 51.8868 946.254 51.7642 946.805 51.7642C947.497 51.7642 948.062 51.9813 948.5 52.4155C948.941 52.8497 949.161 53.5043 949.161 54.3793V59.5H947.675V54.5185C947.675 54.0014 947.534 53.6269 947.252 53.3949C946.97 53.1629 946.634 53.0469 946.243 53.0469C945.759 53.0469 945.383 53.196 945.114 53.4943C944.846 53.7893 944.712 54.1688 944.712 54.6328V59.5H943.23V54.424C943.23 54.0097 943.101 53.6766 942.842 53.4247C942.584 53.1728 942.247 53.0469 941.833 53.0469C941.551 53.0469 941.291 53.1214 941.053 53.2706C940.817 53.4164 940.627 53.6203 940.481 53.8821C940.338 54.1439 940.267 54.4472 940.267 54.7919V59.5H938.781ZM951.273 59.5V49.3182H952.759V53.1016H952.849C952.935 52.9425 953.059 52.7585 953.222 52.5497C953.384 52.3409 953.61 52.1586 953.898 52.0028C954.186 51.8438 954.567 51.7642 955.041 51.7642C955.658 51.7642 956.208 51.92 956.692 52.2315C957.176 52.5431 957.555 52.9922 957.83 53.5788C958.109 54.1655 958.248 54.8714 958.248 55.6967C958.248 56.522 958.11 57.2296 957.835 57.8196C957.56 58.4062 957.182 58.8587 956.702 59.1768C956.221 59.4917 955.673 59.6491 955.056 59.6491C954.592 59.6491 954.213 59.5713 953.918 59.4155C953.626 59.2597 953.397 59.0774 953.232 58.8686C953.066 58.6598 952.938 58.4742 952.849 58.3118H952.725V59.5H951.273ZM952.73 55.6818C952.73 56.2187 952.807 56.6894 952.963 57.0938C953.119 57.4981 953.344 57.8146 953.639 58.0433C953.934 58.2687 954.296 58.3814 954.723 58.3814C955.167 58.3814 955.539 58.2637 955.837 58.0284C956.135 57.7898 956.36 57.4666 956.513 57.0589C956.669 56.6513 956.747 56.1922 956.747 55.6818C956.747 55.178 956.67 54.7256 956.518 54.3246C956.369 53.9235 956.143 53.607 955.842 53.375C955.544 53.143 955.171 53.027 954.723 53.027C954.292 53.027 953.928 53.138 953.629 53.3601C953.334 53.5821 953.111 53.892 952.958 54.2898C952.806 54.6875 952.73 55.1515 952.73 55.6818ZM963.208 59.6541C962.456 59.6541 961.808 59.4934 961.265 59.1719C960.724 58.8471 960.307 58.3913 960.012 57.8047C959.72 57.2147 959.574 56.5237 959.574 55.7315C959.574 54.9493 959.72 54.2599 960.012 53.6634C960.307 53.0668 960.718 52.6011 961.245 52.2663C961.775 51.9316 962.395 51.7642 963.104 51.7642C963.535 51.7642 963.953 51.8355 964.357 51.978C964.761 52.1205 965.124 52.3442 965.446 52.6491C965.767 52.9541 966.021 53.3501 966.206 53.8374C966.392 54.3213 966.485 54.9096 966.485 55.6023V56.1293H960.414V55.0156H965.028C965.028 54.6245 964.949 54.2782 964.789 53.9766C964.63 53.6716 964.407 53.4313 964.118 53.2557C963.833 53.08 963.498 52.9922 963.114 52.9922C962.696 52.9922 962.332 53.0949 962.02 53.3004C961.712 53.5026 961.473 53.7678 961.304 54.0959C961.139 54.4207 961.056 54.7737 961.056 55.1548V56.0249C961.056 56.5353 961.145 56.9695 961.324 57.3274C961.507 57.6854 961.76 57.9588 962.085 58.1477C962.41 58.3333 962.789 58.4261 963.223 58.4261C963.505 58.4261 963.762 58.3864 963.994 58.3068C964.226 58.224 964.426 58.1013 964.596 57.9389C964.765 57.7765 964.894 57.576 964.983 57.3374L966.39 57.5909C966.278 58.0052 966.075 58.3681 965.784 58.6797C965.495 58.9879 965.132 59.2282 964.695 59.4006C964.261 59.5696 963.765 59.6541 963.208 59.6541ZM968.134 59.5V51.8636H969.571V53.0767H969.65C969.79 52.6657 970.035 52.3426 970.386 52.1072C970.741 51.8686 971.142 51.7493 971.589 51.7493C971.682 51.7493 971.791 51.7526 971.917 51.7592C972.047 51.7659 972.148 51.7741 972.221 51.7841V53.206C972.161 53.1894 972.055 53.1712 971.903 53.1513C971.75 53.1281 971.598 53.1165 971.445 53.1165C971.094 53.1165 970.781 53.1911 970.506 53.3402C970.234 53.486 970.018 53.6899 969.859 53.9517C969.7 54.2102 969.621 54.5052 969.621 54.8366V59.5H968.134ZM979.229 53.728L977.882 53.9666C977.826 53.7943 977.736 53.6302 977.614 53.4744C977.494 53.3187 977.332 53.1911 977.126 53.0916C976.921 52.9922 976.664 52.9425 976.356 52.9425C975.935 52.9425 975.584 53.0369 975.302 53.2259C975.02 53.4115 974.879 53.6518 974.879 53.9467C974.879 54.2019 974.974 54.4074 975.163 54.5632C975.352 54.719 975.656 54.8466 976.077 54.946L977.29 55.2244C977.993 55.3868 978.517 55.6371 978.862 55.9751C979.206 56.3132 979.379 56.7524 979.379 57.2926C979.379 57.75 979.246 58.1577 978.981 58.5156C978.719 58.8703 978.353 59.1487 977.882 59.3509C977.415 59.553 976.873 59.6541 976.256 59.6541C975.401 59.6541 974.704 59.4718 974.163 59.1072C973.623 58.7393 973.292 58.2173 973.169 57.5412L974.606 57.3224C974.695 57.697 974.879 57.9804 975.158 58.1726C975.436 58.3615 975.799 58.456 976.246 58.456C976.734 58.456 977.123 58.3549 977.415 58.1527C977.706 57.9472 977.852 57.697 977.852 57.402C977.852 57.1634 977.763 56.9628 977.584 56.8004C977.408 56.638 977.138 56.5154 976.773 56.4325L975.481 56.1491C974.768 55.9867 974.241 55.7282 973.9 55.3736C973.562 55.0189 973.393 54.5698 973.393 54.0263C973.393 53.5755 973.519 53.1811 973.771 52.843C974.022 52.505 974.371 52.2415 974.815 52.0526C975.259 51.8603 975.768 51.7642 976.341 51.7642C977.166 51.7642 977.816 51.9432 978.29 52.3011C978.764 52.6558 979.077 53.1314 979.229 53.728Z" fill="#555761"/>
<path d="M915.16 108.5V103.42H905.88L900.88 104.06L904.32 101.86L907.64 99.26C911.04 96.78 914.36 93.54 914.36 89.34C914.36 84.54 911.28 81.3 905.64 81.3C899.52 81.3 894.96 84.82 894.52 90.26L898.96 93.82C899.36 88.86 901.72 86.78 905.04 86.78C907.12 86.78 908.28 88.02 908.28 89.7C908.28 91.58 907 93.06 904.88 95.06L894.92 104.18V108.5H915.16ZM929.661 108.86C937.301 108.86 941.501 103.06 941.501 95.06C941.501 87.1 937.301 81.3 929.661 81.3C922.021 81.3 917.781 87.1 917.781 95.06C917.781 103.06 922.021 108.86 929.661 108.86ZM929.661 103.3C925.541 103.3 923.821 100.1 923.821 95.06C923.821 90.06 925.541 86.82 929.661 86.82C933.781 86.82 935.501 90.06 935.501 95.06C935.501 100.1 933.781 103.3 929.661 103.3ZM956.653 108.86C964.293 108.86 968.493 103.06 968.493 95.06C968.493 87.1 964.293 81.3 956.653 81.3C949.013 81.3 944.773 87.1 944.773 95.06C944.773 103.06 949.013 108.86 956.653 108.86ZM956.653 103.3C952.533 103.3 950.813 100.1 950.813 95.06C950.813 90.06 952.533 86.82 956.653 86.82C960.773 86.82 962.493 90.06 962.493 95.06C962.493 100.1 960.773 103.3 956.653 103.3Z" fill="#13172B"/>
</svg>
