<svg width="21" height="22" viewBox="0 0 21 22" fill="none" xmlns="http://www.w3.org/2000/svg">
<path d="M6.54492 16.5563L9.25742 18.6562C9.60742 19.0062 10.3949 19.1812 10.9199 19.1812H14.2449C15.2949 19.1812 16.4324 18.3937 16.6949 17.3437L18.7949 10.9563C19.2324 9.73125 18.4449 8.68125 17.1324 8.68125H13.6324C13.1074 8.68125 12.6699 8.24375 12.7574 7.63125L13.1949 4.83125C13.3699 4.04375 12.8449 3.16875 12.0574 2.90625C11.3574 2.64375 10.4824 2.99375 10.1324 3.51875L6.54492 8.85625" stroke="#555761" stroke-width="1.5" stroke-miterlimit="10"/>
<path d="M2.08252 16.5563V7.98125C2.08252 6.75625 2.60752 6.31875 3.83252 6.31875H4.70752C5.93252 6.31875 6.45752 6.75625 6.45752 7.98125V16.5563C6.45752 17.7813 5.93252 18.2187 4.70752 18.2187H3.83252C2.60752 18.2187 2.08252 17.7813 2.08252 16.5563Z" stroke="#555761" stroke-width="1.5" stroke-linecap="round" stroke-linejoin="round"/>
</svg>
