<svg width="21" height="22" viewBox="0 0 21 22" fill="none" xmlns="http://www.w3.org/2000/svg">
<path d="M8.01499 10.0112C7.92749 10.0025 7.82249 10.0025 7.72624 10.0112C5.64374 9.94125 3.98999 8.235 3.98999 6.135C3.98999 3.99125 5.72249 2.25 7.87499 2.25C10.0187 2.25 11.76 3.99125 11.76 6.135C11.7512 8.235 10.0975 9.94125 8.01499 10.0112Z" stroke="#555761" stroke-width="1.5" stroke-linecap="round" stroke-linejoin="round"/>
<path d="M14.3589 4C16.0564 4 17.4214 5.37375 17.4214 7.0625C17.4214 8.71625 16.1089 10.0637 14.4726 10.125C14.4026 10.1163 14.3239 10.1163 14.2451 10.125" stroke="#555761" stroke-width="1.5" stroke-linecap="round" stroke-linejoin="round"/>
<path d="M3.63988 13.24C1.52238 14.6575 1.52238 16.9675 3.63988 18.3762C6.04613 19.9862 9.99238 19.9862 12.3986 18.3762C14.5161 16.9587 14.5161 14.6488 12.3986 13.24C10.0011 11.6388 6.05488 11.6388 3.63988 13.24Z" stroke="#555761" stroke-width="1.5" stroke-linecap="round" stroke-linejoin="round"/>
<path d="M16.0476 18C16.6776 17.8687 17.2726 17.615 17.7626 17.2387C19.1276 16.215 19.1276 14.5262 17.7626 13.5025C17.2814 13.135 16.6951 12.89 16.0739 12.75" stroke="#555761" stroke-width="1.5" stroke-linecap="round" stroke-linejoin="round"/>
</svg>
