<svg width="736" height="128" viewBox="0 0 736 128" fill="none" xmlns="http://www.w3.org/2000/svg">
<path d="M140.248 51C152.92 51 161.048 41.912 161.048 29.56C161.048 17.208 152.728 8.12 140.056 8.12H121.56V51H140.248ZM139.416 18.36C146.136 18.36 148.888 23.224 148.888 29.56C148.888 35.896 146.328 40.76 139.608 40.76H133.08V18.36H139.416ZM172.483 51L175.107 43H191.363L193.987 51H206.595L191.427 8.12H175.363L160.195 51H172.483ZM180.355 27.128L183.235 16.376L186.115 27.128L188.163 33.4H178.307L180.355 27.128ZM227.805 51.512C240.861 51.512 249.885 41.848 249.885 29.496C249.885 17.144 240.861 7.48 227.805 7.48C214.749 7.48 205.725 17.144 205.725 29.496C205.725 41.848 214.749 51.512 227.805 51.512ZM227.805 40.312C221.149 40.312 217.885 35.704 217.885 29.496C217.885 23.288 221.149 18.68 227.805 18.68C234.461 18.68 237.725 23.288 237.725 29.496C237.725 35.704 234.461 40.312 227.805 40.312ZM281.831 51.512C290.471 51.512 295.591 46.584 296.167 35.96L298.599 51H306.407V27H284.775V35.96H295.591C293.863 38.776 290.983 40.696 286.503 40.696C280.551 40.696 276.455 36.792 276.455 29.496C276.455 22.904 279.847 18.616 286.567 18.616C291.879 18.616 295.463 21.56 296.359 25.528L305.959 17.912C302.823 11.576 295.719 7.48 286.567 7.48C272.231 7.48 263.975 16.632 263.975 29.496C263.975 45.048 272.359 51.512 281.831 51.512ZM326.916 51.64C337.54 51.64 343.876 44.6 343.876 35.192C343.876 25.784 337.54 18.744 326.916 18.744C316.804 18.744 310.468 25.784 310.468 35.192C310.468 44.6 316.804 51.64 326.916 51.64ZM327.172 42.424C324.228 42.424 322.18 40.696 322.18 35.192C322.18 29.688 324.228 27.96 327.172 27.96C330.116 27.96 332.164 29.688 332.164 35.192C332.164 40.696 330.116 42.424 327.172 42.424ZM368.791 51L379.671 19.384H366.999L363.863 32.12L361.623 44.984L359.319 32.12L356.183 19.384H343.383L354.263 51H368.791ZM396.114 51.64C403.346 51.64 407.506 48.568 409.938 45.432L402.962 38.776C401.746 41.528 399.442 42.424 396.306 42.424C393.106 42.424 390.61 41.336 389.906 38.264H410.194C410.386 37.496 410.514 35.128 410.514 33.592C410.514 25.976 405.842 18.744 395.026 18.744C385.362 18.744 379.218 25.592 379.218 35.192C379.218 44.792 385.234 51.64 396.114 51.64ZM395.09 27.32C398.546 27.32 400.018 29.112 400.21 32.312H389.714C389.97 28.984 391.954 27.32 395.09 27.32ZM426.205 51V35.064C426.205 29.944 428.637 27.448 431.261 27.448C433.117 27.448 433.885 28.664 433.885 30.456C433.885 32.376 432.605 34.808 431.453 36.152H442.013C442.909 34.552 444.189 31.288 444.189 27.448C444.189 22.2 442.141 18.744 436.637 18.744C430.173 18.744 427.165 24.632 426.205 30.072V19.384H414.685V51H426.205ZM458.205 51V33.784C458.205 28.664 459.037 27.448 462.365 27.448C465.821 27.448 466.525 29.496 466.525 33.336V51H478.045V28.856C478.045 22.392 474.461 18.744 468.573 18.744C461.981 18.744 459.101 23.544 458.205 28.792V19.384H446.685V51H458.205ZM489.974 51.704C496.438 51.704 498.87 46.648 499.83 42.552V44.984C499.83 49.464 503.35 51 506.934 51H513.462V42.232H511.606C510.454 42.232 510.07 41.784 510.07 40.376V30.84C510.07 22.712 505.078 18.744 496.95 18.744C490.358 18.744 484.79 21.304 480.822 24.888L485.942 33.336C488.566 30.392 492.662 28.408 496.31 28.408C498.87 28.408 499.83 29.176 500.15 30.968L491.638 33.592C484.598 35.768 481.718 38.584 481.718 43.704C481.718 49.4 485.366 51.704 489.974 51.704ZM491.958 42.104C491.958 41.272 492.47 40.632 494.646 39.864L499.83 38.008V38.968C499.83 42.232 498.166 43.704 494.39 43.704C492.726 43.704 491.958 43.128 491.958 42.104ZM527.893 51V33.784C527.893 28.664 528.725 27.448 532.053 27.448C535.509 27.448 536.213 29.496 536.213 33.336V51H547.733V28.856C547.733 22.392 544.149 18.744 538.261 18.744C531.669 18.744 528.789 23.544 527.893 28.792V19.384H516.373V51H527.893ZM567.728 51.64C574.768 51.64 580.272 47.992 582.512 43.128L573.552 37.24C572.656 40.504 570.992 42.104 568.24 42.104C565.232 42.104 562.992 39.992 562.992 35.192C562.992 30.392 565.232 28.28 568.24 28.28C570.928 28.28 572.656 29.88 573.552 33.144L582.512 27.256C580.272 22.392 574.768 18.744 567.728 18.744C557.616 18.744 551.28 25.784 551.28 35.192C551.28 44.6 557.616 51.64 567.728 51.64ZM599.989 51.64C607.221 51.64 611.381 48.568 613.812 45.432L606.837 38.776C605.621 41.528 603.317 42.424 600.181 42.424C596.981 42.424 594.485 41.336 593.781 38.264H614.069C614.261 37.496 614.389 35.128 614.389 33.592C614.389 25.976 609.717 18.744 598.901 18.744C589.237 18.744 583.093 25.592 583.093 35.192C583.093 44.792 589.109 51.64 599.989 51.64ZM598.965 27.32C602.421 27.32 603.893 29.112 604.085 32.312H593.589C593.845 28.984 595.829 27.32 598.965 27.32Z" fill="#13172B"/>
<path d="M10.6513 86.3636H12.3331L16.2876 96.0227H16.424L20.3786 86.3636H22.0604V98H20.7422V89.1591H20.6286L16.9922 98H15.7195L12.0831 89.1591H11.9695V98H10.6513V86.3636ZM28.3629 98.1818C27.522 98.1818 26.7966 97.9962 26.1868 97.625C25.5807 97.25 25.1129 96.7273 24.7834 96.0568C24.4576 95.3826 24.2947 94.5985 24.2947 93.7045C24.2947 92.8106 24.4576 92.0227 24.7834 91.3409C25.1129 90.6553 25.5713 90.1212 26.1584 89.7386C26.7493 89.3523 27.4387 89.1591 28.2266 89.1591C28.6811 89.1591 29.13 89.2348 29.5732 89.3864C30.0163 89.5379 30.4197 89.7841 30.7834 90.125C31.147 90.4621 31.4368 90.9091 31.6527 91.4659C31.8686 92.0227 31.9766 92.7083 31.9766 93.5227V94.0909H25.2493V92.9318H30.6129C30.6129 92.4394 30.5144 92 30.3175 91.6136C30.1243 91.2273 29.8478 90.9223 29.4879 90.6989C29.1319 90.4754 28.7114 90.3636 28.2266 90.3636C27.6925 90.3636 27.2304 90.4962 26.8402 90.7614C26.4538 91.0227 26.1565 91.3636 25.9482 91.7841C25.7398 92.2045 25.6357 92.6553 25.6357 93.1364V93.9091C25.6357 94.5682 25.7493 95.1269 25.9766 95.5852C26.2076 96.0398 26.5277 96.3864 26.9368 96.625C27.3459 96.8598 27.8213 96.9773 28.3629 96.9773C28.7152 96.9773 29.0334 96.928 29.3175 96.8295C29.6054 96.7273 29.8535 96.5758 30.0618 96.375C30.2701 96.1705 30.4311 95.9167 30.5447 95.6136L31.8402 95.9773C31.7038 96.4167 31.4747 96.803 31.1527 97.1364C30.8307 97.4659 30.433 97.7235 29.9595 97.9091C29.486 98.0909 28.9538 98.1818 28.3629 98.1818ZM34.0163 98V89.2727H35.3118V90.6364H35.4254C35.6072 90.1705 35.9008 89.8087 36.3061 89.5511C36.7114 89.2898 37.1982 89.1591 37.7663 89.1591C38.3421 89.1591 38.8213 89.2898 39.2038 89.5511C39.5902 89.8087 39.8913 90.1705 40.1072 90.6364H40.1982C40.4216 90.1856 40.7569 89.8277 41.2038 89.5625C41.6508 89.2936 42.1868 89.1591 42.8118 89.1591C43.5921 89.1591 44.2304 89.4034 44.7266 89.892C45.2228 90.3769 45.4709 91.1326 45.4709 92.1591V98H44.13V92.1591C44.13 91.5152 43.9538 91.0549 43.6016 90.7784C43.2493 90.5019 42.8345 90.3636 42.3572 90.3636C41.7436 90.3636 41.2682 90.5492 40.9311 90.9205C40.594 91.2879 40.4254 91.7538 40.4254 92.3182V98H39.0618V92.0227C39.0618 91.5265 38.9008 91.1269 38.5788 90.8239C38.2569 90.517 37.8421 90.3636 37.3345 90.3636C36.986 90.3636 36.6603 90.4564 36.3572 90.642C36.058 90.8277 35.8156 91.0852 35.63 91.4148C35.4482 91.7405 35.3572 92.1174 35.3572 92.5455V98H34.0163ZM48.1044 98V86.3636H49.4453V90.6591H49.5589C49.6574 90.5076 49.7938 90.3144 49.968 90.0795C50.1461 89.8409 50.3999 89.6288 50.7294 89.4432C51.0627 89.2538 51.5135 89.1591 52.0817 89.1591C52.8165 89.1591 53.4643 89.3428 54.0249 89.7102C54.5855 90.0777 55.023 90.5985 55.3374 91.2727C55.6518 91.947 55.8089 92.7424 55.8089 93.6591C55.8089 94.5833 55.6518 95.3845 55.3374 96.0625C55.023 96.7367 54.5874 97.2595 54.0305 97.6307C53.4737 97.9981 52.8317 98.1818 52.1044 98.1818C51.5438 98.1818 51.0949 98.089 50.7578 97.9034C50.4207 97.714 50.1612 97.5 49.9794 97.2614C49.7976 97.0189 49.6574 96.8182 49.5589 96.6591H49.3999V98H48.1044ZM49.4226 93.6364C49.4226 94.2955 49.5192 94.8769 49.7124 95.3807C49.9055 95.8807 50.1877 96.2727 50.5589 96.5568C50.9302 96.8371 51.3847 96.9773 51.9226 96.9773C52.4832 96.9773 52.951 96.8295 53.326 96.5341C53.7048 96.2348 53.9889 95.8333 54.1783 95.3295C54.3714 94.822 54.468 94.2576 54.468 93.6364C54.468 93.0227 54.3733 92.4697 54.1839 91.9773C53.9983 91.4811 53.7161 91.089 53.3374 90.8011C52.9624 90.5095 52.4908 90.3636 51.9226 90.3636C51.3771 90.3636 50.9188 90.5019 50.5476 90.7784C50.1764 91.0511 49.8961 91.4337 49.7067 91.9261C49.5173 92.4148 49.4226 92.9848 49.4226 93.6364ZM61.5192 98.1818C60.6783 98.1818 59.9529 97.9962 59.343 97.625C58.737 97.25 58.2692 96.7273 57.9396 96.0568C57.6139 95.3826 57.451 94.5985 57.451 93.7045C57.451 92.8106 57.6139 92.0227 57.9396 91.3409C58.2692 90.6553 58.7275 90.1212 59.3146 89.7386C59.9055 89.3523 60.5949 89.1591 61.3828 89.1591C61.8374 89.1591 62.2862 89.2348 62.7294 89.3864C63.1726 89.5379 63.576 89.7841 63.9396 90.125C64.3033 90.4621 64.593 90.9091 64.8089 91.4659C65.0249 92.0227 65.1328 92.7083 65.1328 93.5227V94.0909H58.4055V92.9318H63.7692C63.7692 92.4394 63.6707 92 63.4737 91.6136C63.2805 91.2273 63.004 90.9223 62.6442 90.6989C62.2881 90.4754 61.8677 90.3636 61.3828 90.3636C60.8487 90.3636 60.3866 90.4962 59.9964 90.7614C59.6101 91.0227 59.3127 91.3636 59.1044 91.7841C58.8961 92.2045 58.7919 92.6553 58.7919 93.1364V93.9091C58.7919 94.5682 58.9055 95.1269 59.1328 95.5852C59.3639 96.0398 59.6839 96.3864 60.093 96.625C60.5021 96.8598 60.9775 96.9773 61.5192 96.9773C61.8714 96.9773 62.1896 96.928 62.4737 96.8295C62.7616 96.7273 63.0097 96.5758 63.218 96.375C63.4264 96.1705 63.5874 95.9167 63.701 95.6136L64.9964 95.9773C64.8601 96.4167 64.6309 96.803 64.3089 97.1364C63.987 97.4659 63.5893 97.7235 63.1158 97.9091C62.6423 98.0909 62.1101 98.1818 61.5192 98.1818ZM67.1726 98V89.2727H68.468V90.5909H68.5589C68.718 90.1591 69.0059 89.8087 69.4226 89.5398C69.8393 89.2708 70.3089 89.1364 70.8317 89.1364C70.9302 89.1364 71.0533 89.1383 71.201 89.142C71.3487 89.1458 71.4605 89.1515 71.5362 89.1591V90.5227C71.4908 90.5114 71.3866 90.4943 71.2237 90.4716C71.0646 90.4451 70.8961 90.4318 70.718 90.4318C70.2938 90.4318 69.915 90.5208 69.5817 90.6989C69.2521 90.8731 68.9908 91.1155 68.7976 91.4261C68.6082 91.733 68.5135 92.0833 68.5135 92.4773V98H67.1726ZM79.3075 91.2273L78.103 91.5682C78.0272 91.3674 77.9155 91.1723 77.7678 90.983C77.6238 90.7898 77.4268 90.6307 77.1768 90.5057C76.9268 90.3807 76.6068 90.3182 76.2166 90.3182C75.6825 90.3182 75.2375 90.4413 74.8814 90.6875C74.5291 90.9299 74.353 91.2386 74.353 91.6136C74.353 91.947 74.4742 92.2102 74.7166 92.4034C74.959 92.5966 75.3378 92.7576 75.853 92.8864L77.1484 93.2045C77.9287 93.3939 78.5102 93.6837 78.8928 94.0739C79.2753 94.4602 79.4666 94.9583 79.4666 95.5682C79.4666 96.0682 79.3227 96.5152 79.0348 96.9091C78.7507 97.303 78.353 97.6136 77.8416 97.8409C77.3303 98.0682 76.7356 98.1818 76.0575 98.1818C75.1674 98.1818 74.4306 97.9886 73.8473 97.6023C73.264 97.2159 72.8946 96.6515 72.7393 95.9091L74.0121 95.5909C74.1333 96.0606 74.3625 96.4129 74.6996 96.6477C75.0405 96.8826 75.4856 97 76.0348 97C76.6598 97 77.156 96.8674 77.5234 96.6023C77.8946 96.3333 78.0803 96.0114 78.0803 95.6364C78.0803 95.3333 77.9742 95.0795 77.7621 94.875C77.55 94.6667 77.2242 94.5114 76.7848 94.4091L75.3303 94.0682C74.531 93.8788 73.9439 93.5852 73.5689 93.1875C73.1977 92.786 73.0121 92.2841 73.0121 91.6818C73.0121 91.1894 73.1503 90.7538 73.4268 90.375C73.7071 89.9962 74.0878 89.6989 74.5689 89.483C75.0537 89.267 75.603 89.1591 76.2166 89.1591C77.0803 89.1591 77.7583 89.3485 78.2507 89.7273C78.7469 90.1061 79.0992 90.6061 79.3075 91.2273ZM89.5305 98.1818C88.7124 98.1818 88.0078 97.9886 87.4169 97.6023C86.826 97.2159 86.3714 96.6837 86.0533 96.0057C85.7351 95.3277 85.576 94.553 85.576 93.6818C85.576 92.7955 85.7389 92.0133 86.0646 91.3352C86.3942 90.6534 86.8525 90.1212 87.4396 89.7386C88.0305 89.3523 88.7199 89.1591 89.5078 89.1591C90.1214 89.1591 90.6745 89.2727 91.1669 89.5C91.6593 89.7273 92.0627 90.0455 92.3771 90.4545C92.6915 90.8636 92.8866 91.3409 92.9624 91.8864H91.6214C91.5192 91.4886 91.2919 91.1364 90.9396 90.8295C90.5911 90.5189 90.1214 90.3636 89.5305 90.3636C89.0078 90.3636 88.5495 90.5 88.1555 90.7727C87.7654 91.0417 87.4605 91.4223 87.2408 91.9148C87.0249 92.4034 86.9169 92.9773 86.9169 93.6364C86.9169 94.3106 87.023 94.8977 87.2351 95.3977C87.451 95.8977 87.754 96.286 88.1442 96.5625C88.5381 96.839 89.0002 96.9773 89.5305 96.9773C89.879 96.9773 90.1953 96.9167 90.4794 96.7955C90.7635 96.6742 91.004 96.5 91.201 96.2727C91.398 96.0455 91.5381 95.7727 91.6214 95.4545H92.9624C92.8866 95.9697 92.6991 96.4337 92.3999 96.8466C92.1044 97.2557 91.7124 97.5814 91.2237 97.8239C90.7389 98.0625 90.1745 98.1818 89.5305 98.1818ZM97.4908 98.2045C96.9377 98.2045 96.4358 98.1004 95.9851 97.892C95.5343 97.6799 95.1764 97.375 94.9112 96.9773C94.6461 96.5758 94.5135 96.0909 94.5135 95.5227C94.5135 95.0227 94.612 94.6174 94.8089 94.3068C95.0059 93.9924 95.2692 93.7462 95.5987 93.5682C95.9283 93.3902 96.2919 93.2576 96.6896 93.1705C97.0911 93.0795 97.4946 93.0076 97.8999 92.9545C98.4302 92.8864 98.8601 92.8352 99.1896 92.8011C99.523 92.7633 99.7654 92.7008 99.9169 92.6136C100.072 92.5265 100.15 92.375 100.15 92.1591V92.1136C100.15 91.553 99.9964 91.1174 99.6896 90.8068C99.3866 90.4962 98.9264 90.3409 98.3089 90.3409C97.6688 90.3409 97.1669 90.4811 96.8033 90.7614C96.4396 91.0417 96.1839 91.3409 96.0362 91.6591L94.7635 91.2045C94.9908 90.6742 95.2938 90.2614 95.6726 89.9659C96.0552 89.6667 96.4718 89.4583 96.9226 89.3409C97.3771 89.2197 97.8241 89.1591 98.2635 89.1591C98.5438 89.1591 98.8658 89.1932 99.2294 89.2614C99.5968 89.3258 99.951 89.4602 100.292 89.6648C100.637 89.8693 100.923 90.178 101.15 90.5909C101.377 91.0038 101.491 91.5568 101.491 92.25V98H100.15V96.8182H100.082C99.9908 97.0076 99.8393 97.2102 99.6271 97.4261C99.415 97.642 99.1328 97.8258 98.7805 97.9773C98.4283 98.1288 97.9983 98.2045 97.4908 98.2045ZM97.6953 97C98.2256 97 98.6726 96.8958 99.0362 96.6875C99.4036 96.4792 99.6802 96.2102 99.8658 95.8807C100.055 95.5511 100.15 95.2045 100.15 94.8409V93.6136C100.093 93.6818 99.968 93.7443 99.7749 93.8011C99.5855 93.8542 99.3658 93.9015 99.1158 93.9432C98.8696 93.9811 98.629 94.0152 98.3942 94.0455C98.1631 94.072 97.9756 94.0947 97.8317 94.1136C97.4832 94.1591 97.1574 94.233 96.8544 94.3352C96.5552 94.4337 96.3127 94.5833 96.1271 94.7841C95.9453 94.9811 95.8544 95.25 95.8544 95.5909C95.8544 96.0568 96.0268 96.4091 96.3714 96.6477C96.7199 96.8826 97.1612 97 97.6953 97ZM105.279 92.75V98H103.938V89.2727H105.234V90.6364H105.347C105.552 90.1932 105.862 89.8371 106.279 89.5682C106.696 89.2955 107.234 89.1591 107.893 89.1591C108.484 89.1591 109.001 89.2803 109.444 89.5227C109.887 89.7614 110.232 90.125 110.478 90.6136C110.724 91.0985 110.847 91.7121 110.847 92.4545V98H109.506V92.5455C109.506 91.8598 109.328 91.3258 108.972 90.9432C108.616 90.5568 108.128 90.3636 107.506 90.3636C107.078 90.3636 106.696 90.4564 106.359 90.642C106.025 90.8277 105.762 91.0985 105.569 91.4545C105.376 91.8106 105.279 92.2424 105.279 92.75ZM124.934 89.2727L121.707 98H120.343L117.116 89.2727H118.57L120.979 96.2273H121.07L123.479 89.2727H124.934ZM129.937 98.1818C129.149 98.1818 128.458 97.9943 127.863 97.6193C127.272 97.2443 126.81 96.7197 126.477 96.0455C126.147 95.3712 125.982 94.5833 125.982 93.6818C125.982 92.7727 126.147 91.9792 126.477 91.3011C126.81 90.6231 127.272 90.0966 127.863 89.7216C128.458 89.3466 129.149 89.1591 129.937 89.1591C130.725 89.1591 131.414 89.3466 132.005 89.7216C132.6 90.0966 133.062 90.6231 133.391 91.3011C133.725 91.9792 133.891 92.7727 133.891 93.6818C133.891 94.5833 133.725 95.3712 133.391 96.0455C133.062 96.7197 132.6 97.2443 132.005 97.6193C131.414 97.9943 130.725 98.1818 129.937 98.1818ZM129.937 96.9773C130.535 96.9773 131.028 96.8239 131.414 96.517C131.8 96.2102 132.086 95.8068 132.272 95.3068C132.458 94.8068 132.55 94.2652 132.55 93.6818C132.55 93.0985 132.458 92.5549 132.272 92.0511C132.086 91.5473 131.8 91.1402 131.414 90.8295C131.028 90.5189 130.535 90.3636 129.937 90.3636C129.338 90.3636 128.846 90.5189 128.46 90.8295C128.073 91.1402 127.787 91.5473 127.602 92.0511C127.416 92.5549 127.323 93.0985 127.323 93.6818C127.323 94.2652 127.416 94.8068 127.602 95.3068C127.787 95.8068 128.073 96.2102 128.46 96.517C128.846 96.8239 129.338 96.9773 129.937 96.9773ZM139.734 89.2727V90.4091H135.211V89.2727H139.734ZM136.529 87.1818H137.87V95.5C137.87 95.8788 137.925 96.1629 138.035 96.3523C138.148 96.5379 138.292 96.6629 138.467 96.7273C138.645 96.7879 138.832 96.8182 139.029 96.8182C139.177 96.8182 139.298 96.8106 139.393 96.7955C139.487 96.7765 139.563 96.7614 139.62 96.75L139.893 97.9545C139.802 97.9886 139.675 98.0227 139.512 98.0568C139.349 98.0947 139.143 98.1136 138.893 98.1136C138.514 98.1136 138.143 98.0322 137.779 97.8693C137.419 97.7064 137.12 97.4583 136.881 97.125C136.647 96.7917 136.529 96.3712 136.529 95.8636V87.1818ZM145.316 98.1818C144.475 98.1818 143.75 97.9962 143.14 97.625C142.534 97.25 142.066 96.7273 141.737 96.0568C141.411 95.3826 141.248 94.5985 141.248 93.7045C141.248 92.8106 141.411 92.0227 141.737 91.3409C142.066 90.6553 142.524 90.1212 143.112 89.7386C143.702 89.3523 144.392 89.1591 145.18 89.1591C145.634 89.1591 146.083 89.2348 146.526 89.3864C146.969 89.5379 147.373 89.7841 147.737 90.125C148.1 90.4621 148.39 90.9091 148.606 91.4659C148.822 92.0227 148.93 92.7083 148.93 93.5227V94.0909H142.202V92.9318H147.566C147.566 92.4394 147.468 92 147.271 91.6136C147.077 91.2273 146.801 90.9223 146.441 90.6989C146.085 90.4754 145.665 90.3636 145.18 90.3636C144.646 90.3636 144.183 90.4962 143.793 90.7614C143.407 91.0227 143.11 91.3636 142.901 91.7841C142.693 92.2045 142.589 92.6553 142.589 93.1364V93.9091C142.589 94.5682 142.702 95.1269 142.93 95.5852C143.161 96.0398 143.481 96.3864 143.89 96.625C144.299 96.8598 144.774 96.9773 145.316 96.9773C145.668 96.9773 145.987 96.928 146.271 96.8295C146.558 96.7273 146.807 96.5758 147.015 96.375C147.223 96.1705 147.384 95.9167 147.498 95.6136L148.793 95.9773C148.657 96.4167 148.428 96.803 148.106 97.1364C147.784 97.4659 147.386 97.7235 146.913 97.9091C146.439 98.0909 145.907 98.1818 145.316 98.1818ZM159.015 98.1818C158.227 98.1818 157.536 97.9943 156.941 97.6193C156.35 97.2443 155.888 96.7197 155.555 96.0455C155.225 95.3712 155.06 94.5833 155.06 93.6818C155.06 92.7727 155.225 91.9792 155.555 91.3011C155.888 90.6231 156.35 90.0966 156.941 89.7216C157.536 89.3466 158.227 89.1591 159.015 89.1591C159.803 89.1591 160.492 89.3466 161.083 89.7216C161.678 90.0966 162.14 90.6231 162.469 91.3011C162.803 91.9792 162.969 92.7727 162.969 93.6818C162.969 94.5833 162.803 95.3712 162.469 96.0455C162.14 96.7197 161.678 97.2443 161.083 97.6193C160.492 97.9943 159.803 98.1818 159.015 98.1818ZM159.015 96.9773C159.613 96.9773 160.106 96.8239 160.492 96.517C160.879 96.2102 161.165 95.8068 161.35 95.3068C161.536 94.8068 161.629 94.2652 161.629 93.6818C161.629 93.0985 161.536 92.5549 161.35 92.0511C161.165 91.5473 160.879 91.1402 160.492 90.8295C160.106 90.5189 159.613 90.3636 159.015 90.3636C158.416 90.3636 157.924 90.5189 157.538 90.8295C157.151 91.1402 156.865 91.5473 156.68 92.0511C156.494 92.5549 156.401 93.0985 156.401 93.6818C156.401 94.2652 156.494 94.8068 156.68 95.3068C156.865 95.8068 157.151 96.2102 157.538 96.517C157.924 96.8239 158.416 96.9773 159.015 96.9773ZM166.357 92.75V98H165.016V89.2727H166.312V90.6364H166.425C166.63 90.1932 166.941 89.8371 167.357 89.5682C167.774 89.2955 168.312 89.1591 168.971 89.1591C169.562 89.1591 170.079 89.2803 170.522 89.5227C170.965 89.7614 171.31 90.125 171.556 90.6136C171.802 91.0985 171.925 91.7121 171.925 92.4545V98H170.585V92.5455C170.585 91.8598 170.406 91.3258 170.05 90.9432C169.694 90.5568 169.206 90.3636 168.585 90.3636C168.156 90.3636 167.774 90.4564 167.437 90.642C167.103 90.8277 166.84 91.0985 166.647 91.4545C166.454 91.8106 166.357 92.2424 166.357 92.75ZM178.876 101.273V89.2727H180.171V90.6591H180.33C180.429 90.5076 180.565 90.3144 180.739 90.0795C180.917 89.8409 181.171 89.6288 181.501 89.4432C181.834 89.2538 182.285 89.1591 182.853 89.1591C183.588 89.1591 184.236 89.3428 184.796 89.7102C185.357 90.0777 185.794 90.5985 186.109 91.2727C186.423 91.947 186.58 92.7424 186.58 93.6591C186.58 94.5833 186.423 95.3845 186.109 96.0625C185.794 96.7367 185.359 97.2595 184.802 97.6307C184.245 97.9981 183.603 98.1818 182.876 98.1818C182.315 98.1818 181.866 98.089 181.529 97.9034C181.192 97.714 180.933 97.5 180.751 97.2614C180.569 97.0189 180.429 96.8182 180.33 96.6591H180.217V101.273H178.876ZM180.194 93.6364C180.194 94.2955 180.29 94.8769 180.484 95.3807C180.677 95.8807 180.959 96.2727 181.33 96.5568C181.701 96.8371 182.156 96.9773 182.694 96.9773C183.254 96.9773 183.722 96.8295 184.097 96.5341C184.476 96.2348 184.76 95.8333 184.95 95.3295C185.143 94.822 185.239 94.2576 185.239 93.6364C185.239 93.0227 185.145 92.4697 184.955 91.9773C184.77 91.4811 184.487 91.089 184.109 90.8011C183.734 90.5095 183.262 90.3636 182.694 90.3636C182.148 90.3636 181.69 90.5019 181.319 90.7784C180.948 91.0511 180.667 91.4337 180.478 91.9261C180.289 92.4148 180.194 92.9848 180.194 93.6364ZM188.626 98V89.2727H189.921V90.5909H190.012C190.171 90.1591 190.459 89.8087 190.876 89.5398C191.292 89.2708 191.762 89.1364 192.285 89.1364C192.383 89.1364 192.506 89.1383 192.654 89.142C192.802 89.1458 192.914 89.1515 192.989 89.1591V90.5227C192.944 90.5114 192.84 90.4943 192.677 90.4716C192.518 90.4451 192.349 90.4318 192.171 90.4318C191.747 90.4318 191.368 90.5208 191.035 90.6989C190.705 90.8731 190.444 91.1155 190.251 91.4261C190.061 91.733 189.967 92.0833 189.967 92.4773V98H188.626ZM197.859 98.1818C197.071 98.1818 196.379 97.9943 195.785 97.6193C195.194 97.2443 194.732 96.7197 194.398 96.0455C194.069 95.3712 193.904 94.5833 193.904 93.6818C193.904 92.7727 194.069 91.9792 194.398 91.3011C194.732 90.6231 195.194 90.0966 195.785 89.7216C196.379 89.3466 197.071 89.1591 197.859 89.1591C198.647 89.1591 199.336 89.3466 199.927 89.7216C200.522 90.0966 200.984 90.6231 201.313 91.3011C201.647 91.9792 201.813 92.7727 201.813 93.6818C201.813 94.5833 201.647 95.3712 201.313 96.0455C200.984 96.7197 200.522 97.2443 199.927 97.6193C199.336 97.9943 198.647 98.1818 197.859 98.1818ZM197.859 96.9773C198.457 96.9773 198.95 96.8239 199.336 96.517C199.722 96.2102 200.008 95.8068 200.194 95.3068C200.379 94.8068 200.472 94.2652 200.472 93.6818C200.472 93.0985 200.379 92.5549 200.194 92.0511C200.008 91.5473 199.722 91.1402 199.336 90.8295C198.95 90.5189 198.457 90.3636 197.859 90.3636C197.26 90.3636 196.768 90.5189 196.381 90.8295C195.995 91.1402 195.709 91.5473 195.523 92.0511C195.338 92.5549 195.245 93.0985 195.245 93.6818C195.245 94.2652 195.338 94.8068 195.523 95.3068C195.709 95.8068 195.995 96.2102 196.381 96.517C196.768 96.8239 197.26 96.9773 197.859 96.9773ZM203.86 101.273V89.2727H205.156V90.6591H205.315C205.413 90.5076 205.549 90.3144 205.724 90.0795C205.902 89.8409 206.156 89.6288 206.485 89.4432C206.818 89.2538 207.269 89.1591 207.837 89.1591C208.572 89.1591 209.22 89.3428 209.781 89.7102C210.341 90.0777 210.779 90.5985 211.093 91.2727C211.407 91.947 211.565 92.7424 211.565 93.6591C211.565 94.5833 211.407 95.3845 211.093 96.0625C210.779 96.7367 210.343 97.2595 209.786 97.6307C209.229 97.9981 208.587 98.1818 207.86 98.1818C207.299 98.1818 206.851 98.089 206.513 97.9034C206.176 97.714 205.917 97.5 205.735 97.2614C205.553 97.0189 205.413 96.8182 205.315 96.6591H205.201V101.273H203.86ZM205.178 93.6364C205.178 94.2955 205.275 94.8769 205.468 95.3807C205.661 95.8807 205.943 96.2727 206.315 96.5568C206.686 96.8371 207.14 96.9773 207.678 96.9773C208.239 96.9773 208.707 96.8295 209.082 96.5341C209.46 96.2348 209.745 95.8333 209.934 95.3295C210.127 94.822 210.224 94.2576 210.224 93.6364C210.224 93.0227 210.129 92.4697 209.94 91.9773C209.754 91.4811 209.472 91.089 209.093 90.8011C208.718 90.5095 208.246 90.3636 207.678 90.3636C207.133 90.3636 206.674 90.5019 206.303 90.7784C205.932 91.0511 205.652 91.4337 205.462 91.9261C205.273 92.4148 205.178 92.9848 205.178 93.6364ZM217.156 98.1818C216.368 98.1818 215.676 97.9943 215.082 97.6193C214.491 97.2443 214.029 96.7197 213.695 96.0455C213.366 95.3712 213.201 94.5833 213.201 93.6818C213.201 92.7727 213.366 91.9792 213.695 91.3011C214.029 90.6231 214.491 90.0966 215.082 89.7216C215.676 89.3466 216.368 89.1591 217.156 89.1591C217.943 89.1591 218.633 89.3466 219.224 89.7216C219.818 90.0966 220.281 90.6231 220.61 91.3011C220.943 91.9792 221.11 92.7727 221.11 93.6818C221.11 94.5833 220.943 95.3712 220.61 96.0455C220.281 96.7197 219.818 97.2443 219.224 97.6193C218.633 97.9943 217.943 98.1818 217.156 98.1818ZM217.156 96.9773C217.754 96.9773 218.246 96.8239 218.633 96.517C219.019 96.2102 219.305 95.8068 219.491 95.3068C219.676 94.8068 219.769 94.2652 219.769 93.6818C219.769 93.0985 219.676 92.5549 219.491 92.0511C219.305 91.5473 219.019 91.1402 218.633 90.8295C218.246 90.5189 217.754 90.3636 217.156 90.3636C216.557 90.3636 216.065 90.5189 215.678 90.8295C215.292 91.1402 215.006 91.5473 214.82 92.0511C214.635 92.5549 214.542 93.0985 214.542 93.6818C214.542 94.2652 214.635 94.8068 214.82 95.3068C215.006 95.8068 215.292 96.2102 215.678 96.517C216.065 96.8239 216.557 96.9773 217.156 96.9773ZM229.339 91.2273L228.134 91.5682C228.058 91.3674 227.947 91.1723 227.799 90.983C227.655 90.7898 227.458 90.6307 227.208 90.5057C226.958 90.3807 226.638 90.3182 226.248 90.3182C225.714 90.3182 225.269 90.4413 224.913 90.6875C224.56 90.9299 224.384 91.2386 224.384 91.6136C224.384 91.947 224.505 92.2102 224.748 92.4034C224.99 92.5966 225.369 92.7576 225.884 92.8864L227.18 93.2045C227.96 93.3939 228.541 93.6837 228.924 94.0739C229.307 94.4602 229.498 94.9583 229.498 95.5682C229.498 96.0682 229.354 96.5152 229.066 96.9091C228.782 97.303 228.384 97.6136 227.873 97.8409C227.362 98.0682 226.767 98.1818 226.089 98.1818C225.199 98.1818 224.462 97.9886 223.879 97.6023C223.295 97.2159 222.926 96.6515 222.771 95.9091L224.043 95.5909C224.165 96.0606 224.394 96.4129 224.731 96.6477C225.072 96.8826 225.517 97 226.066 97C226.691 97 227.187 96.8674 227.555 96.6023C227.926 96.3333 228.112 96.0114 228.112 95.6364C228.112 95.3333 228.005 95.0795 227.793 94.875C227.581 94.6667 227.255 94.5114 226.816 94.4091L225.362 94.0682C224.562 93.8788 223.975 93.5852 223.6 93.1875C223.229 92.786 223.043 92.2841 223.043 91.6818C223.043 91.1894 223.182 90.7538 223.458 90.375C223.738 89.9962 224.119 89.6989 224.6 89.483C225.085 89.267 225.634 89.1591 226.248 89.1591C227.112 89.1591 227.79 89.3485 228.282 89.7273C228.778 90.1061 229.13 90.6061 229.339 91.2273ZM234.085 98.2045C233.531 98.2045 233.03 98.1004 232.579 97.892C232.128 97.6799 231.77 97.375 231.505 96.9773C231.24 96.5758 231.107 96.0909 231.107 95.5227C231.107 95.0227 231.206 94.6174 231.403 94.3068C231.6 93.9924 231.863 93.7462 232.192 93.5682C232.522 93.3902 232.886 93.2576 233.283 93.1705C233.685 93.0795 234.088 93.0076 234.494 92.9545C235.024 92.8864 235.454 92.8352 235.783 92.8011C236.117 92.7633 236.359 92.7008 236.511 92.6136C236.666 92.5265 236.744 92.375 236.744 92.1591V92.1136C236.744 91.553 236.59 91.1174 236.283 90.8068C235.98 90.4962 235.52 90.3409 234.903 90.3409C234.263 90.3409 233.761 90.4811 233.397 90.7614C233.033 91.0417 232.778 91.3409 232.63 91.6591L231.357 91.2045C231.585 90.6742 231.888 90.2614 232.266 89.9659C232.649 89.6667 233.066 89.4583 233.516 89.3409C233.971 89.2197 234.418 89.1591 234.857 89.1591C235.138 89.1591 235.46 89.1932 235.823 89.2614C236.191 89.3258 236.545 89.4602 236.886 89.6648C237.23 89.8693 237.516 90.178 237.744 90.5909C237.971 91.0038 238.085 91.5568 238.085 92.25V98H236.744V96.8182H236.675C236.585 97.0076 236.433 97.2102 236.221 97.4261C236.009 97.642 235.727 97.8258 235.374 97.9773C235.022 98.1288 234.592 98.2045 234.085 98.2045ZM234.289 97C234.819 97 235.266 96.8958 235.63 96.6875C235.997 96.4792 236.274 96.2102 236.46 95.8807C236.649 95.5511 236.744 95.2045 236.744 94.8409V93.6136C236.687 93.6818 236.562 93.7443 236.369 93.8011C236.179 93.8542 235.96 93.9015 235.71 93.9432C235.463 93.9811 235.223 94.0152 234.988 94.0455C234.757 94.072 234.569 94.0947 234.425 94.1136C234.077 94.1591 233.751 94.233 233.448 94.3352C233.149 94.4337 232.906 94.5833 232.721 94.7841C232.539 94.9811 232.448 95.25 232.448 95.5909C232.448 96.0568 232.621 96.4091 232.965 96.6477C233.314 96.8826 233.755 97 234.289 97ZM241.873 86.3636V98H240.532V86.3636H241.873ZM250.511 91.2273L249.306 91.5682C249.23 91.3674 249.119 91.1723 248.971 90.983C248.827 90.7898 248.63 90.6307 248.38 90.5057C248.13 90.3807 247.81 90.3182 247.42 90.3182C246.886 90.3182 246.441 90.4413 246.085 90.6875C245.732 90.9299 245.556 91.2386 245.556 91.6136C245.556 91.947 245.677 92.2102 245.92 92.4034C246.162 92.5966 246.541 92.7576 247.056 92.8864L248.352 93.2045C249.132 93.3939 249.713 93.6837 250.096 94.0739C250.478 94.4602 250.67 94.9583 250.67 95.5682C250.67 96.0682 250.526 96.5152 250.238 96.9091C249.954 97.303 249.556 97.6136 249.045 97.8409C248.533 98.0682 247.939 98.1818 247.261 98.1818C246.371 98.1818 245.634 97.9886 245.05 97.6023C244.467 97.2159 244.098 96.6515 243.942 95.9091L245.215 95.5909C245.336 96.0606 245.566 96.4129 245.903 96.6477C246.244 96.8826 246.689 97 247.238 97C247.863 97 248.359 96.8674 248.727 96.6023C249.098 96.3333 249.283 96.0114 249.283 95.6364C249.283 95.3333 249.177 95.0795 248.965 94.875C248.753 94.6667 248.427 94.5114 247.988 94.4091L246.533 94.0682C245.734 93.8788 245.147 93.5852 244.772 93.1875C244.401 92.786 244.215 92.2841 244.215 91.6818C244.215 91.1894 244.353 90.7538 244.63 90.375C244.91 89.9962 245.291 89.6989 245.772 89.483C246.257 89.267 246.806 89.1591 247.42 89.1591C248.283 89.1591 248.961 89.3485 249.454 89.7273C249.95 90.1061 250.302 90.6061 250.511 91.2273ZM260.734 98.1818C259.946 98.1818 259.254 97.9943 258.66 97.6193C258.069 97.2443 257.607 96.7197 257.273 96.0455C256.944 95.3712 256.779 94.5833 256.779 93.6818C256.779 92.7727 256.944 91.9792 257.273 91.3011C257.607 90.6231 258.069 90.0966 258.66 89.7216C259.254 89.3466 259.946 89.1591 260.734 89.1591C261.522 89.1591 262.211 89.3466 262.802 89.7216C263.397 90.0966 263.859 90.6231 264.188 91.3011C264.522 91.9792 264.688 92.7727 264.688 93.6818C264.688 94.5833 264.522 95.3712 264.188 96.0455C263.859 96.7197 263.397 97.2443 262.802 97.6193C262.211 97.9943 261.522 98.1818 260.734 98.1818ZM260.734 96.9773C261.332 96.9773 261.825 96.8239 262.211 96.517C262.597 96.2102 262.883 95.8068 263.069 95.3068C263.254 94.8068 263.347 94.2652 263.347 93.6818C263.347 93.0985 263.254 92.5549 263.069 92.0511C262.883 91.5473 262.597 91.1402 262.211 90.8295C261.825 90.5189 261.332 90.3636 260.734 90.3636C260.135 90.3636 259.643 90.5189 259.256 90.8295C258.87 91.1402 258.584 91.5473 258.398 92.0511C258.213 92.5549 258.12 93.0985 258.12 93.6818C258.12 94.2652 258.213 94.8068 258.398 95.3068C258.584 95.8068 258.87 96.2102 259.256 96.517C259.643 96.8239 260.135 96.9773 260.734 96.9773ZM266.735 98V89.2727H268.031V90.5909H268.121C268.281 90.1591 268.568 89.8087 268.985 89.5398C269.402 89.2708 269.871 89.1364 270.394 89.1364C270.493 89.1364 270.616 89.1383 270.763 89.142C270.911 89.1458 271.023 89.1515 271.099 89.1591V90.5227C271.053 90.5114 270.949 90.4943 270.786 90.4716C270.627 90.4451 270.459 90.4318 270.281 90.4318C269.856 90.4318 269.478 90.5208 269.144 90.6989C268.815 90.8731 268.553 91.1155 268.36 91.4261C268.171 91.733 268.076 92.0833 268.076 92.4773V98H266.735ZM280.484 98.1818C279.756 98.1818 279.114 97.9981 278.558 97.6307C278.001 97.2595 277.565 96.7367 277.251 96.0625C276.936 95.3845 276.779 94.5833 276.779 93.6591C276.779 92.7424 276.936 91.947 277.251 91.2727C277.565 90.5985 278.003 90.0777 278.563 89.7102C279.124 89.3428 279.772 89.1591 280.506 89.1591C281.075 89.1591 281.523 89.2538 281.853 89.4432C282.186 89.6288 282.44 89.8409 282.614 90.0795C282.792 90.3144 282.931 90.5076 283.029 90.6591H283.143V86.3636H284.484V98H283.188V96.6591H283.029C282.931 96.8182 282.79 97.0189 282.609 97.2614C282.427 97.5 282.167 97.714 281.83 97.9034C281.493 98.089 281.044 98.1818 280.484 98.1818ZM280.665 96.9773C281.203 96.9773 281.658 96.8371 282.029 96.5568C282.4 96.2727 282.683 95.8807 282.876 95.3807C283.069 94.8769 283.165 94.2955 283.165 93.6364C283.165 92.9848 283.071 92.4148 282.881 91.9261C282.692 91.4337 282.412 91.0511 282.04 90.7784C281.669 90.5019 281.211 90.3636 280.665 90.3636C280.097 90.3636 279.624 90.5095 279.245 90.8011C278.87 91.089 278.588 91.4811 278.398 91.9773C278.213 92.4697 278.12 93.0227 278.12 93.6364C278.12 94.2576 278.215 94.822 278.404 95.3295C278.597 95.8333 278.881 96.2348 279.256 96.5341C279.635 96.8295 280.105 96.9773 280.665 96.9773ZM290.785 98.1818C289.944 98.1818 289.219 97.9962 288.609 97.625C288.003 97.25 287.535 96.7273 287.205 96.0568C286.879 95.3826 286.717 94.5985 286.717 93.7045C286.717 92.8106 286.879 92.0227 287.205 91.3409C287.535 90.6553 287.993 90.1212 288.58 89.7386C289.171 89.3523 289.861 89.1591 290.648 89.1591C291.103 89.1591 291.552 89.2348 291.995 89.3864C292.438 89.5379 292.842 89.7841 293.205 90.125C293.569 90.4621 293.859 90.9091 294.075 91.4659C294.29 92.0227 294.398 92.7083 294.398 93.5227V94.0909H287.671V92.9318H293.035C293.035 92.4394 292.936 92 292.739 91.6136C292.546 91.2273 292.27 90.9223 291.91 90.6989C291.554 90.4754 291.133 90.3636 290.648 90.3636C290.114 90.3636 289.652 90.4962 289.262 90.7614C288.876 91.0227 288.578 91.3636 288.37 91.7841C288.162 92.2045 288.058 92.6553 288.058 93.1364V93.9091C288.058 94.5682 288.171 95.1269 288.398 95.5852C288.629 96.0398 288.95 96.3864 289.359 96.625C289.768 96.8598 290.243 96.9773 290.785 96.9773C291.137 96.9773 291.455 96.928 291.739 96.8295C292.027 96.7273 292.275 96.5758 292.484 96.375C292.692 96.1705 292.853 95.9167 292.967 95.6136L294.262 95.9773C294.126 96.4167 293.897 96.803 293.575 97.1364C293.253 97.4659 292.855 97.7235 292.381 97.9091C291.908 98.0909 291.376 98.1818 290.785 98.1818ZM297.779 86.3636V98H296.438V86.3636H297.779ZM303.894 98.1818C303.053 98.1818 302.328 97.9962 301.718 97.625C301.112 97.25 300.644 96.7273 300.315 96.0568C299.989 95.3826 299.826 94.5985 299.826 93.7045C299.826 92.8106 299.989 92.0227 300.315 91.3409C300.644 90.6553 301.103 90.1212 301.69 89.7386C302.281 89.3523 302.97 89.1591 303.758 89.1591C304.212 89.1591 304.661 89.2348 305.104 89.3864C305.548 89.5379 305.951 89.7841 306.315 90.125C306.678 90.4621 306.968 90.9091 307.184 91.4659C307.4 92.0227 307.508 92.7083 307.508 93.5227V94.0909H300.781V92.9318H306.144C306.144 92.4394 306.046 92 305.849 91.6136C305.656 91.2273 305.379 90.9223 305.019 90.6989C304.663 90.4754 304.243 90.3636 303.758 90.3636C303.224 90.3636 302.762 90.4962 302.371 90.7614C301.985 91.0227 301.688 91.3636 301.479 91.7841C301.271 92.2045 301.167 92.6553 301.167 93.1364V93.9091C301.167 94.5682 301.281 95.1269 301.508 95.5852C301.739 96.0398 302.059 96.3864 302.468 96.625C302.877 96.8598 303.353 96.9773 303.894 96.9773C304.246 96.9773 304.565 96.928 304.849 96.8295C305.137 96.7273 305.385 96.5758 305.593 96.375C305.801 96.1705 305.962 95.9167 306.076 95.6136L307.371 95.9773C307.235 96.4167 307.006 96.803 306.684 97.1364C306.362 97.4659 305.964 97.7235 305.491 97.9091C305.017 98.0909 304.485 98.1818 303.894 98.1818ZM313.07 101.455C312.423 101.455 311.866 101.371 311.4 101.205C310.934 101.042 310.546 100.826 310.235 100.557C309.928 100.292 309.684 100.008 309.502 99.7045L310.57 98.9545C310.692 99.1136 310.845 99.2955 311.031 99.5C311.216 99.7083 311.47 99.8883 311.792 100.04C312.118 100.195 312.544 100.273 313.07 100.273C313.775 100.273 314.356 100.102 314.815 99.7614C315.273 99.4205 315.502 98.8864 315.502 98.1591V96.3864H315.388C315.29 96.5455 315.15 96.7424 314.968 96.9773C314.79 97.2083 314.532 97.4148 314.195 97.5966C313.862 97.7746 313.411 97.8636 312.843 97.8636C312.138 97.8636 311.506 97.697 310.945 97.3636C310.388 97.0303 309.947 96.5455 309.621 95.9091C309.299 95.2727 309.138 94.5 309.138 93.5909C309.138 92.697 309.296 91.9186 309.61 91.2557C309.924 90.589 310.362 90.0739 310.923 89.7102C311.483 89.3428 312.131 89.1591 312.866 89.1591C313.434 89.1591 313.885 89.2538 314.218 89.4432C314.555 89.6288 314.813 89.8409 314.991 90.0795C315.173 90.3144 315.313 90.5076 315.411 90.6591H315.548V89.2727H316.843V98.25C316.843 99 316.673 99.6098 316.332 100.08C315.995 100.553 315.54 100.9 314.968 101.119C314.4 101.343 313.767 101.455 313.07 101.455ZM313.025 96.6591C313.563 96.6591 314.017 96.536 314.388 96.2898C314.76 96.0436 315.042 95.6894 315.235 95.2273C315.428 94.7652 315.525 94.2121 315.525 93.5682C315.525 92.9394 315.43 92.3845 315.241 91.9034C315.051 91.4223 314.771 91.0455 314.4 90.7727C314.029 90.5 313.57 90.3636 313.025 90.3636C312.457 90.3636 311.983 90.5076 311.604 90.7955C311.229 91.0833 310.947 91.4697 310.758 91.9545C310.572 92.4394 310.479 92.9773 310.479 93.5682C310.479 94.1742 310.574 94.7102 310.763 95.1761C310.957 95.6383 311.241 96.0019 311.616 96.267C311.995 96.5284 312.464 96.6591 313.025 96.6591ZM321.866 98.2045C321.313 98.2045 320.811 98.1004 320.36 97.892C319.909 97.6799 319.551 97.375 319.286 96.9773C319.021 96.5758 318.888 96.0909 318.888 95.5227C318.888 95.0227 318.987 94.6174 319.184 94.3068C319.381 93.9924 319.644 93.7462 319.974 93.5682C320.303 93.3902 320.667 93.2576 321.065 93.1705C321.466 93.0795 321.87 93.0076 322.275 92.9545C322.805 92.8864 323.235 92.8352 323.565 92.8011C323.898 92.7633 324.14 92.7008 324.292 92.6136C324.447 92.5265 324.525 92.375 324.525 92.1591V92.1136C324.525 91.553 324.371 91.1174 324.065 90.8068C323.762 90.4962 323.301 90.3409 322.684 90.3409C322.044 90.3409 321.542 90.4811 321.178 90.7614C320.815 91.0417 320.559 91.3409 320.411 91.6591L319.138 91.2045C319.366 90.6742 319.669 90.2614 320.048 89.9659C320.43 89.6667 320.847 89.4583 321.298 89.3409C321.752 89.2197 322.199 89.1591 322.638 89.1591C322.919 89.1591 323.241 89.1932 323.604 89.2614C323.972 89.3258 324.326 89.4602 324.667 89.6648C325.012 89.8693 325.298 90.178 325.525 90.5909C325.752 91.0038 325.866 91.5568 325.866 92.25V98H324.525V96.8182H324.457C324.366 97.0076 324.214 97.2102 324.002 97.4261C323.79 97.642 323.508 97.8258 323.156 97.9773C322.803 98.1288 322.373 98.2045 321.866 98.2045ZM322.07 97C322.601 97 323.048 96.8958 323.411 96.6875C323.779 96.4792 324.055 96.2102 324.241 95.8807C324.43 95.5511 324.525 95.2045 324.525 94.8409V93.6136C324.468 93.6818 324.343 93.7443 324.15 93.8011C323.96 93.8542 323.741 93.9015 323.491 93.9432C323.245 93.9811 323.004 94.0152 322.769 94.0455C322.538 94.072 322.351 94.0947 322.207 94.1136C321.858 94.1591 321.532 94.233 321.229 94.3352C320.93 94.4337 320.688 94.5833 320.502 94.7841C320.32 94.9811 320.229 95.25 320.229 95.5909C320.229 96.0568 320.402 96.4091 320.746 96.6477C321.095 96.8826 321.536 97 322.07 97ZM332.109 89.2727V90.4091H327.586V89.2727H332.109ZM328.904 87.1818H330.245V95.5C330.245 95.8788 330.3 96.1629 330.41 96.3523C330.523 96.5379 330.667 96.6629 330.842 96.7273C331.02 96.7879 331.207 96.8182 331.404 96.8182C331.552 96.8182 331.673 96.8106 331.768 96.7955C331.862 96.7765 331.938 96.7614 331.995 96.75L332.268 97.9545C332.177 97.9886 332.05 98.0227 331.887 98.0568C331.724 98.0947 331.518 98.1136 331.268 98.1136C330.889 98.1136 330.518 98.0322 330.154 97.8693C329.794 97.7064 329.495 97.4583 329.256 97.125C329.022 96.7917 328.904 96.3712 328.904 95.8636V87.1818ZM337.691 98.1818C336.85 98.1818 336.125 97.9962 335.515 97.625C334.909 97.25 334.441 96.7273 334.112 96.0568C333.786 95.3826 333.623 94.5985 333.623 93.7045C333.623 92.8106 333.786 92.0227 334.112 91.3409C334.441 90.6553 334.899 90.1212 335.487 89.7386C336.077 89.3523 336.767 89.1591 337.555 89.1591C338.009 89.1591 338.458 89.2348 338.901 89.3864C339.344 89.5379 339.748 89.7841 340.112 90.125C340.475 90.4621 340.765 90.9091 340.981 91.4659C341.197 92.0227 341.305 92.7083 341.305 93.5227V94.0909H334.577V92.9318H339.941C339.941 92.4394 339.843 92 339.646 91.6136C339.452 91.2273 339.176 90.9223 338.816 90.6989C338.46 90.4754 338.04 90.3636 337.555 90.3636C337.021 90.3636 336.558 90.4962 336.168 90.7614C335.782 91.0227 335.485 91.3636 335.276 91.7841C335.068 92.2045 334.964 92.6553 334.964 93.1364V93.9091C334.964 94.5682 335.077 95.1269 335.305 95.5852C335.536 96.0398 335.856 96.3864 336.265 96.625C336.674 96.8598 337.149 96.9773 337.691 96.9773C338.043 96.9773 338.362 96.928 338.646 96.8295C338.933 96.7273 339.182 96.5758 339.39 96.375C339.598 96.1705 339.759 95.9167 339.873 95.6136L341.168 95.9773C341.032 96.4167 340.803 96.803 340.481 97.1364C340.159 97.4659 339.761 97.7235 339.288 97.9091C338.814 98.0909 338.282 98.1818 337.691 98.1818ZM351.64 89.2727V90.4091H347.117V89.2727H351.64ZM348.435 87.1818H349.776V95.5C349.776 95.8788 349.831 96.1629 349.941 96.3523C350.055 96.5379 350.199 96.6629 350.373 96.7273C350.551 96.7879 350.738 96.8182 350.935 96.8182C351.083 96.8182 351.204 96.8106 351.299 96.7955C351.394 96.7765 351.469 96.7614 351.526 96.75L351.799 97.9545C351.708 97.9886 351.581 98.0227 351.418 98.0568C351.255 98.0947 351.049 98.1136 350.799 98.1136C350.42 98.1136 350.049 98.0322 349.685 97.8693C349.326 97.7064 349.026 97.4583 348.788 97.125C348.553 96.7917 348.435 96.3712 348.435 95.8636V87.1818ZM355.185 92.75V98H353.844V86.3636H355.185V90.6364H355.299C355.504 90.1856 355.81 89.8277 356.219 89.5625C356.632 89.2936 357.182 89.1591 357.867 89.1591C358.462 89.1591 358.983 89.2784 359.43 89.517C359.877 89.7519 360.223 90.1136 360.469 90.6023C360.719 91.0871 360.844 91.7045 360.844 92.4545V98H359.504V92.5455C359.504 91.8523 359.324 91.3163 358.964 90.9375C358.608 90.5549 358.113 90.3636 357.481 90.3636C357.041 90.3636 356.647 90.4564 356.299 90.642C355.954 90.8277 355.682 91.0985 355.481 91.4545C355.284 91.8106 355.185 92.2424 355.185 92.75ZM366.957 98.1818C366.116 98.1818 365.39 97.9962 364.781 97.625C364.174 97.25 363.707 96.7273 363.377 96.0568C363.051 95.3826 362.888 94.5985 362.888 93.7045C362.888 92.8106 363.051 92.0227 363.377 91.3409C363.707 90.6553 364.165 90.1212 364.752 89.7386C365.343 89.3523 366.032 89.1591 366.82 89.1591C367.275 89.1591 367.724 89.2348 368.167 89.3864C368.61 89.5379 369.013 89.7841 369.377 90.125C369.741 90.4621 370.031 90.9091 370.246 91.4659C370.462 92.0227 370.57 92.7083 370.57 93.5227V94.0909H363.843V92.9318H369.207C369.207 92.4394 369.108 92 368.911 91.6136C368.718 91.2273 368.442 90.9223 368.082 90.6989C367.726 90.4754 367.305 90.3636 366.82 90.3636C366.286 90.3636 365.824 90.4962 365.434 90.7614C365.048 91.0227 364.75 91.3636 364.542 91.7841C364.334 92.2045 364.229 92.6553 364.229 93.1364V93.9091C364.229 94.5682 364.343 95.1269 364.57 95.5852C364.801 96.0398 365.121 96.3864 365.531 96.625C365.94 96.8598 366.415 96.9773 366.957 96.9773C367.309 96.9773 367.627 96.928 367.911 96.8295C368.199 96.7273 368.447 96.5758 368.656 96.375C368.864 96.1705 369.025 95.9167 369.138 95.6136L370.434 95.9773C370.298 96.4167 370.068 96.803 369.746 97.1364C369.424 97.4659 369.027 97.7235 368.553 97.9091C368.08 98.0909 367.548 98.1818 366.957 98.1818ZM372.61 98V89.2727H373.951V98H372.61ZM373.292 87.8182C373.031 87.8182 372.805 87.7292 372.616 87.5511C372.43 87.3731 372.337 87.1591 372.337 86.9091C372.337 86.6591 372.43 86.4451 372.616 86.267C372.805 86.089 373.031 86 373.292 86C373.553 86 373.777 86.089 373.962 86.267C374.152 86.4451 374.246 86.6591 374.246 86.9091C374.246 87.1591 374.152 87.3731 373.962 87.5511C373.777 87.7292 373.553 87.8182 373.292 87.8182ZM376.407 98V89.2727H377.702V90.5909H377.793C377.952 90.1591 378.24 89.8087 378.657 89.5398C379.074 89.2708 379.543 89.1364 380.066 89.1364C380.165 89.1364 380.288 89.1383 380.435 89.142C380.583 89.1458 380.695 89.1515 380.771 89.1591V90.5227C380.725 90.5114 380.621 90.4943 380.458 90.4716C380.299 90.4451 380.13 90.4318 379.952 90.4318C379.528 90.4318 379.149 90.5208 378.816 90.6989C378.487 90.8731 378.225 91.1155 378.032 91.4261C377.843 91.733 377.748 92.0833 377.748 92.4773V98H376.407ZM393.996 89.2727L390.769 98H389.406L386.178 89.2727H387.633L390.042 96.2273H390.133L392.542 89.2727H393.996ZM398.999 98.1818C398.211 98.1818 397.52 97.9943 396.925 97.6193C396.335 97.2443 395.872 96.7197 395.539 96.0455C395.21 95.3712 395.045 94.5833 395.045 93.6818C395.045 92.7727 395.21 91.9792 395.539 91.3011C395.872 90.6231 396.335 90.0966 396.925 89.7216C397.52 89.3466 398.211 89.1591 398.999 89.1591C399.787 89.1591 400.477 89.3466 401.067 89.7216C401.662 90.0966 402.124 90.6231 402.454 91.3011C402.787 91.9792 402.954 92.7727 402.954 93.6818C402.954 94.5833 402.787 95.3712 402.454 96.0455C402.124 96.7197 401.662 97.2443 401.067 97.6193C400.477 97.9943 399.787 98.1818 398.999 98.1818ZM398.999 96.9773C399.598 96.9773 400.09 96.8239 400.477 96.517C400.863 96.2102 401.149 95.8068 401.335 95.3068C401.52 94.8068 401.613 94.2652 401.613 93.6818C401.613 93.0985 401.52 92.5549 401.335 92.0511C401.149 91.5473 400.863 91.1402 400.477 90.8295C400.09 90.5189 399.598 90.3636 398.999 90.3636C398.401 90.3636 397.908 90.5189 397.522 90.8295C397.136 91.1402 396.85 91.5473 396.664 92.0511C396.478 92.5549 396.386 93.0985 396.386 93.6818C396.386 94.2652 396.478 94.8068 396.664 95.3068C396.85 95.8068 397.136 96.2102 397.522 96.517C397.908 96.8239 398.401 96.9773 398.999 96.9773ZM408.796 89.2727V90.4091H404.273V89.2727H408.796ZM405.592 87.1818H406.933V95.5C406.933 95.8788 406.987 96.1629 407.097 96.3523C407.211 96.5379 407.355 96.6629 407.529 96.7273C407.707 96.7879 407.895 96.8182 408.092 96.8182C408.239 96.8182 408.361 96.8106 408.455 96.7955C408.55 96.7765 408.626 96.7614 408.683 96.75L408.955 97.9545C408.864 97.9886 408.737 98.0227 408.575 98.0568C408.412 98.0947 408.205 98.1136 407.955 98.1136C407.576 98.1136 407.205 98.0322 406.842 97.8693C406.482 97.7064 406.183 97.4583 405.944 97.125C405.709 96.7917 405.592 96.3712 405.592 95.8636V87.1818ZM414.379 98.1818C413.538 98.1818 412.812 97.9962 412.202 97.625C411.596 97.25 411.129 96.7273 410.799 96.0568C410.473 95.3826 410.31 94.5985 410.31 93.7045C410.31 92.8106 410.473 92.0227 410.799 91.3409C411.129 90.6553 411.587 90.1212 412.174 89.7386C412.765 89.3523 413.454 89.1591 414.242 89.1591C414.697 89.1591 415.146 89.2348 415.589 89.3864C416.032 89.5379 416.435 89.7841 416.799 90.125C417.163 90.4621 417.452 90.9091 417.668 91.4659C417.884 92.0227 417.992 92.7083 417.992 93.5227V94.0909H411.265V92.9318H416.629C416.629 92.4394 416.53 92 416.333 91.6136C416.14 91.2273 415.863 90.9223 415.504 90.6989C415.147 90.4754 414.727 90.3636 414.242 90.3636C413.708 90.3636 413.246 90.4962 412.856 90.7614C412.469 91.0227 412.172 91.3636 411.964 91.7841C411.755 92.2045 411.651 92.6553 411.651 93.1364V93.9091C411.651 94.5682 411.765 95.1269 411.992 95.5852C412.223 96.0398 412.543 96.3864 412.952 96.625C413.362 96.8598 413.837 96.9773 414.379 96.9773C414.731 96.9773 415.049 96.928 415.333 96.8295C415.621 96.7273 415.869 96.5758 416.077 96.375C416.286 96.1705 416.447 95.9167 416.56 95.6136L417.856 95.9773C417.719 96.4167 417.49 96.803 417.168 97.1364C416.846 97.4659 416.449 97.7235 415.975 97.9091C415.502 98.0909 414.969 98.1818 414.379 98.1818ZM428.327 89.2727V90.4091H423.805V89.2727H428.327ZM425.123 87.1818H426.464V95.5C426.464 95.8788 426.519 96.1629 426.629 96.3523C426.742 96.5379 426.886 96.6629 427.06 96.7273C427.238 96.7879 427.426 96.8182 427.623 96.8182C427.771 96.8182 427.892 96.8106 427.987 96.7955C428.081 96.7765 428.157 96.7614 428.214 96.75L428.487 97.9545C428.396 97.9886 428.269 98.0227 428.106 98.0568C427.943 98.0947 427.737 98.1136 427.487 98.1136C427.108 98.1136 426.737 98.0322 426.373 97.8693C426.013 97.7064 425.714 97.4583 425.475 97.125C425.24 96.7917 425.123 96.3712 425.123 95.8636V87.1818ZM433.796 98.1818C433.008 98.1818 432.317 97.9943 431.722 97.6193C431.131 97.2443 430.669 96.7197 430.336 96.0455C430.006 95.3712 429.842 94.5833 429.842 93.6818C429.842 92.7727 430.006 91.9792 430.336 91.3011C430.669 90.6231 431.131 90.0966 431.722 89.7216C432.317 89.3466 433.008 89.1591 433.796 89.1591C434.584 89.1591 435.273 89.3466 435.864 89.7216C436.459 90.0966 436.921 90.6231 437.251 91.3011C437.584 91.9792 437.751 92.7727 437.751 93.6818C437.751 94.5833 437.584 95.3712 437.251 96.0455C436.921 96.7197 436.459 97.2443 435.864 97.6193C435.273 97.9943 434.584 98.1818 433.796 98.1818ZM433.796 96.9773C434.395 96.9773 434.887 96.8239 435.273 96.517C435.66 96.2102 435.946 95.8068 436.131 95.3068C436.317 94.8068 436.41 94.2652 436.41 93.6818C436.41 93.0985 436.317 92.5549 436.131 92.0511C435.946 91.5473 435.66 91.1402 435.273 90.8295C434.887 90.5189 434.395 90.3636 433.796 90.3636C433.198 90.3636 432.705 90.5189 432.319 90.8295C431.933 91.1402 431.647 91.5473 431.461 92.0511C431.275 92.5549 431.183 93.0985 431.183 93.6818C431.183 94.2652 431.275 94.8068 431.461 95.3068C431.647 95.8068 431.933 96.2102 432.319 96.517C432.705 96.8239 433.198 96.9773 433.796 96.9773ZM446.866 98.2045C446.313 98.2045 445.811 98.1004 445.36 97.892C444.909 97.6799 444.551 97.375 444.286 96.9773C444.021 96.5758 443.888 96.0909 443.888 95.5227C443.888 95.0227 443.987 94.6174 444.184 94.3068C444.381 93.9924 444.644 93.7462 444.974 93.5682C445.303 93.3902 445.667 93.2576 446.065 93.1705C446.466 93.0795 446.87 93.0076 447.275 92.9545C447.805 92.8864 448.235 92.8352 448.565 92.8011C448.898 92.7633 449.14 92.7008 449.292 92.6136C449.447 92.5265 449.525 92.375 449.525 92.1591V92.1136C449.525 91.553 449.371 91.1174 449.065 90.8068C448.762 90.4962 448.301 90.3409 447.684 90.3409C447.044 90.3409 446.542 90.4811 446.178 90.7614C445.815 91.0417 445.559 91.3409 445.411 91.6591L444.138 91.2045C444.366 90.6742 444.669 90.2614 445.048 89.9659C445.43 89.6667 445.847 89.4583 446.298 89.3409C446.752 89.2197 447.199 89.1591 447.638 89.1591C447.919 89.1591 448.241 89.1932 448.604 89.2614C448.972 89.3258 449.326 89.4602 449.667 89.6648C450.012 89.8693 450.298 90.178 450.525 90.5909C450.752 91.0038 450.866 91.5568 450.866 92.25V98H449.525V96.8182H449.457C449.366 97.0076 449.214 97.2102 449.002 97.4261C448.79 97.642 448.508 97.8258 448.156 97.9773C447.803 98.1288 447.373 98.2045 446.866 98.2045ZM447.07 97C447.601 97 448.048 96.8958 448.411 96.6875C448.779 96.4792 449.055 96.2102 449.241 95.8807C449.43 95.5511 449.525 95.2045 449.525 94.8409V93.6136C449.468 93.6818 449.343 93.7443 449.15 93.8011C448.96 93.8542 448.741 93.9015 448.491 93.9432C448.245 93.9811 448.004 94.0152 447.769 94.0455C447.538 94.072 447.351 94.0947 447.207 94.1136C446.858 94.1591 446.532 94.233 446.229 94.3352C445.93 94.4337 445.688 94.5833 445.502 94.7841C445.32 94.9811 445.229 95.25 445.229 95.5909C445.229 96.0568 445.402 96.4091 445.746 96.6477C446.095 96.8826 446.536 97 447.07 97ZM461.609 89.2727V90.4091H457.086V89.2727H461.609ZM458.404 87.1818H459.745V95.5C459.745 95.8788 459.8 96.1629 459.91 96.3523C460.023 96.5379 460.167 96.6629 460.342 96.7273C460.52 96.7879 460.707 96.8182 460.904 96.8182C461.052 96.8182 461.173 96.8106 461.268 96.7955C461.362 96.7765 461.438 96.7614 461.495 96.75L461.768 97.9545C461.677 97.9886 461.55 98.0227 461.387 98.0568C461.224 98.0947 461.018 98.1136 460.768 98.1136C460.389 98.1136 460.018 98.0322 459.654 97.8693C459.294 97.7064 458.995 97.4583 458.756 97.125C458.522 96.7917 458.404 96.3712 458.404 95.8636V87.1818ZM465.154 92.75V98H463.813V86.3636H465.154V90.6364H465.268C465.472 90.1856 465.779 89.8277 466.188 89.5625C466.601 89.2936 467.15 89.1591 467.836 89.1591C468.431 89.1591 468.951 89.2784 469.398 89.517C469.845 89.7519 470.192 90.1136 470.438 90.6023C470.688 91.0871 470.813 91.7045 470.813 92.4545V98H469.472V92.5455C469.472 91.8523 469.292 91.3163 468.933 90.9375C468.576 90.5549 468.082 90.3636 467.45 90.3636C467.01 90.3636 466.616 90.4564 466.268 90.642C465.923 90.8277 465.65 91.0985 465.45 91.4545C465.253 91.8106 465.154 92.2424 465.154 92.75ZM473.266 98V89.2727H474.607V98H473.266ZM473.948 87.8182C473.687 87.8182 473.461 87.7292 473.272 87.5511C473.086 87.3731 472.994 87.1591 472.994 86.9091C472.994 86.6591 473.086 86.4451 473.272 86.267C473.461 86.089 473.687 86 473.948 86C474.21 86 474.433 86.089 474.619 86.267C474.808 86.4451 474.903 86.6591 474.903 86.9091C474.903 87.1591 474.808 87.3731 474.619 87.5511C474.433 87.7292 474.21 87.8182 473.948 87.8182ZM477.063 98V89.2727H478.359V90.5909H478.45C478.609 90.1591 478.897 89.8087 479.313 89.5398C479.73 89.2708 480.2 89.1364 480.722 89.1364C480.821 89.1364 480.944 89.1383 481.092 89.142C481.239 89.1458 481.351 89.1515 481.427 89.1591V90.5227C481.381 90.5114 481.277 90.4943 481.114 90.4716C480.955 90.4451 480.787 90.4318 480.609 90.4318C480.184 90.4318 479.806 90.5208 479.472 90.6989C479.143 90.8731 478.881 91.1155 478.688 91.4261C478.499 91.733 478.404 92.0833 478.404 92.4773V98H477.063ZM486.046 98.1818C485.319 98.1818 484.677 97.9981 484.12 97.6307C483.563 97.2595 483.128 96.7367 482.813 96.0625C482.499 95.3845 482.342 94.5833 482.342 93.6591C482.342 92.7424 482.499 91.947 482.813 91.2727C483.128 90.5985 483.565 90.0777 484.126 89.7102C484.686 89.3428 485.334 89.1591 486.069 89.1591C486.637 89.1591 487.086 89.2538 487.415 89.4432C487.749 89.6288 488.003 89.8409 488.177 90.0795C488.355 90.3144 488.493 90.5076 488.592 90.6591H488.705V86.3636H490.046V98H488.751V96.6591H488.592C488.493 96.8182 488.353 97.0189 488.171 97.2614C487.989 97.5 487.73 97.714 487.393 97.9034C487.056 98.089 486.607 98.1818 486.046 98.1818ZM486.228 96.9773C486.766 96.9773 487.22 96.8371 487.592 96.5568C487.963 96.2727 488.245 95.8807 488.438 95.3807C488.631 94.8769 488.728 94.2955 488.728 93.6364C488.728 92.9848 488.633 92.4148 488.444 91.9261C488.254 91.4337 487.974 91.0511 487.603 90.7784C487.232 90.5019 486.773 90.3636 486.228 90.3636C485.66 90.3636 485.186 90.5095 484.808 90.8011C484.433 91.089 484.15 91.4811 483.961 91.9773C483.775 92.4697 483.683 93.0227 483.683 93.6364C483.683 94.2576 483.777 94.822 483.967 95.3295C484.16 95.8333 484.444 96.2348 484.819 96.5341C485.198 96.8295 485.667 96.9773 486.228 96.9773ZM497.188 101.273V89.2727H498.484V90.6591H498.643C498.741 90.5076 498.878 90.3144 499.052 90.0795C499.23 89.8409 499.484 89.6288 499.813 89.4432C500.147 89.2538 500.597 89.1591 501.165 89.1591C501.9 89.1591 502.548 89.3428 503.109 89.7102C503.669 90.0777 504.107 90.5985 504.421 91.2727C504.736 91.947 504.893 92.7424 504.893 93.6591C504.893 94.5833 504.736 95.3845 504.421 96.0625C504.107 96.7367 503.671 97.2595 503.114 97.6307C502.558 97.9981 501.915 98.1818 501.188 98.1818C500.628 98.1818 500.179 98.089 499.842 97.9034C499.504 97.714 499.245 97.5 499.063 97.2614C498.881 97.0189 498.741 96.8182 498.643 96.6591H498.529V101.273H497.188ZM498.506 93.6364C498.506 94.2955 498.603 94.8769 498.796 95.3807C498.989 95.8807 499.272 96.2727 499.643 96.5568C500.014 96.8371 500.469 96.9773 501.006 96.9773C501.567 96.9773 502.035 96.8295 502.41 96.5341C502.789 96.2348 503.073 95.8333 503.262 95.3295C503.455 94.822 503.552 94.2576 503.552 93.6364C503.552 93.0227 503.457 92.4697 503.268 91.9773C503.082 91.4811 502.8 91.089 502.421 90.8011C502.046 90.5095 501.575 90.3636 501.006 90.3636C500.461 90.3636 500.003 90.5019 499.631 90.7784C499.26 91.0511 498.98 91.4337 498.79 91.9261C498.601 92.4148 498.506 92.9848 498.506 93.6364ZM509.506 98.2045C508.953 98.2045 508.451 98.1004 508.001 97.892C507.55 97.6799 507.192 97.375 506.927 96.9773C506.662 96.5758 506.529 96.0909 506.529 95.5227C506.529 95.0227 506.628 94.6174 506.825 94.3068C507.022 93.9924 507.285 93.7462 507.614 93.5682C507.944 93.3902 508.308 93.2576 508.705 93.1705C509.107 93.0795 509.51 93.0076 509.915 92.9545C510.446 92.8864 510.876 92.8352 511.205 92.8011C511.539 92.7633 511.781 92.7008 511.933 92.6136C512.088 92.5265 512.165 92.375 512.165 92.1591V92.1136C512.165 91.553 512.012 91.1174 511.705 90.8068C511.402 90.4962 510.942 90.3409 510.325 90.3409C509.684 90.3409 509.183 90.4811 508.819 90.7614C508.455 91.0417 508.2 91.3409 508.052 91.6591L506.779 91.2045C507.006 90.6742 507.309 90.2614 507.688 89.9659C508.071 89.6667 508.487 89.4583 508.938 89.3409C509.393 89.2197 509.84 89.1591 510.279 89.1591C510.559 89.1591 510.881 89.1932 511.245 89.2614C511.612 89.3258 511.967 89.4602 512.308 89.6648C512.652 89.8693 512.938 90.178 513.165 90.5909C513.393 91.0038 513.506 91.5568 513.506 92.25V98H512.165V96.8182H512.097C512.006 97.0076 511.855 97.2102 511.643 97.4261C511.431 97.642 511.148 97.8258 510.796 97.9773C510.444 98.1288 510.014 98.2045 509.506 98.2045ZM509.711 97C510.241 97 510.688 96.8958 511.052 96.6875C511.419 96.4792 511.696 96.2102 511.881 95.8807C512.071 95.5511 512.165 95.2045 512.165 94.8409V93.6136C512.109 93.6818 511.984 93.7443 511.79 93.8011C511.601 93.8542 511.381 93.9015 511.131 93.9432C510.885 93.9811 510.645 94.0152 510.41 94.0455C510.179 94.072 509.991 94.0947 509.847 94.1136C509.499 94.1591 509.173 94.233 508.87 94.3352C508.571 94.4337 508.328 94.5833 508.143 94.7841C507.961 94.9811 507.87 95.25 507.87 95.5909C507.87 96.0568 508.042 96.4091 508.387 96.6477C508.736 96.8826 509.177 97 509.711 97ZM515.954 98V89.2727H517.249V90.5909H517.34C517.499 90.1591 517.787 89.8087 518.204 89.5398C518.621 89.2708 519.09 89.1364 519.613 89.1364C519.711 89.1364 519.835 89.1383 519.982 89.142C520.13 89.1458 520.242 89.1515 520.317 89.1591V90.5227C520.272 90.5114 520.168 90.4943 520.005 90.4716C519.846 90.4451 519.677 90.4318 519.499 90.4318C519.075 90.4318 518.696 90.5208 518.363 90.6989C518.033 90.8731 517.772 91.1155 517.579 91.4261C517.389 91.733 517.295 92.0833 517.295 92.4773V98H515.954ZM526.249 89.2727V90.4091H521.727V89.2727H526.249ZM523.045 87.1818H524.386V95.5C524.386 95.8788 524.441 96.1629 524.55 96.3523C524.664 96.5379 524.808 96.6629 524.982 96.7273C525.16 96.7879 525.348 96.8182 525.545 96.8182C525.692 96.8182 525.814 96.8106 525.908 96.7955C526.003 96.7765 526.079 96.7614 526.136 96.75L526.408 97.9545C526.317 97.9886 526.191 98.0227 526.028 98.0568C525.865 98.0947 525.658 98.1136 525.408 98.1136C525.03 98.1136 524.658 98.0322 524.295 97.8693C523.935 97.7064 523.636 97.4583 523.397 97.125C523.162 96.7917 523.045 96.3712 523.045 95.8636V87.1818ZM529.13 101.273C528.903 101.273 528.7 101.254 528.522 101.216C528.344 101.182 528.221 101.148 528.153 101.114L528.494 99.9318C528.819 100.015 529.107 100.045 529.357 100.023C529.607 100 529.829 99.8883 530.022 99.6875C530.219 99.4905 530.399 99.1705 530.562 98.7273L530.812 98.0455L527.585 89.2727H529.039L531.448 96.2273H531.539L533.948 89.2727H535.403L531.698 99.2727C531.531 99.7235 531.325 100.097 531.079 100.392C530.833 100.691 530.547 100.913 530.221 101.057C529.899 101.201 529.535 101.273 529.13 101.273ZM537.603 98.0909C537.323 98.0909 537.082 97.9905 536.881 97.7898C536.681 97.589 536.58 97.3485 536.58 97.0682C536.58 96.7879 536.681 96.5473 536.881 96.3466C537.082 96.1458 537.323 96.0455 537.603 96.0455C537.883 96.0455 538.124 96.1458 538.325 96.3466C538.525 96.5473 538.626 96.7879 538.626 97.0682C538.626 97.2538 538.578 97.4242 538.484 97.5795C538.393 97.7348 538.27 97.8598 538.114 97.9545C537.963 98.0455 537.792 98.0909 537.603 98.0909ZM546.191 98H544.714L548.987 86.3636H550.441L554.714 98H553.237L549.759 88.2045H549.668L546.191 98ZM546.737 93.4545H552.691V94.7045H546.737V93.4545ZM560.844 98V89.2727H562.14V90.6364H562.254C562.435 90.1705 562.729 89.8087 563.134 89.5511C563.54 89.2898 564.026 89.1591 564.594 89.1591C565.17 89.1591 565.649 89.2898 566.032 89.5511C566.418 89.8087 566.719 90.1705 566.935 90.6364H567.026C567.25 90.1856 567.585 89.8277 568.032 89.5625C568.479 89.2936 569.015 89.1591 569.64 89.1591C570.42 89.1591 571.058 89.4034 571.555 89.892C572.051 90.3769 572.299 91.1326 572.299 92.1591V98H570.958V92.1591C570.958 91.5152 570.782 91.0549 570.43 90.7784C570.077 90.5019 569.663 90.3636 569.185 90.3636C568.572 90.3636 568.096 90.5492 567.759 90.9205C567.422 91.2879 567.254 91.7538 567.254 92.3182V98H565.89V92.0227C565.89 91.5265 565.729 91.1269 565.407 90.8239C565.085 90.517 564.67 90.3636 564.163 90.3636C563.814 90.3636 563.488 90.4564 563.185 90.642C562.886 90.8277 562.644 91.0852 562.458 91.4148C562.276 91.7405 562.185 92.1174 562.185 92.5455V98H560.844ZM574.751 98V89.2727H576.092V98H574.751ZM575.433 87.8182C575.171 87.8182 574.946 87.7292 574.756 87.5511C574.571 87.3731 574.478 87.1591 574.478 86.9091C574.478 86.6591 574.571 86.4451 574.756 86.267C574.946 86.089 575.171 86 575.433 86C575.694 86 575.917 86.089 576.103 86.267C576.292 86.4451 576.387 86.6591 576.387 86.9091C576.387 87.1591 576.292 87.3731 576.103 87.5511C575.917 87.7292 575.694 87.8182 575.433 87.8182ZM579.888 92.75V98H578.548V89.2727H579.843V90.6364H579.957C580.161 90.1932 580.472 89.8371 580.888 89.5682C581.305 89.2955 581.843 89.1591 582.502 89.1591C583.093 89.1591 583.61 89.2803 584.053 89.5227C584.496 89.7614 584.841 90.125 585.087 90.6136C585.334 91.0985 585.457 91.7121 585.457 92.4545V98H584.116V92.5455C584.116 91.8598 583.938 91.3258 583.582 90.9432C583.226 90.5568 582.737 90.3636 582.116 90.3636C581.688 90.3636 581.305 90.4564 580.968 90.642C580.635 90.8277 580.371 91.0985 580.178 91.4545C579.985 91.8106 579.888 92.2424 579.888 92.75ZM587.907 98V89.2727H589.248V98H587.907ZM588.589 87.8182C588.327 87.8182 588.102 87.7292 587.913 87.5511C587.727 87.3731 587.634 87.1591 587.634 86.9091C587.634 86.6591 587.727 86.4451 587.913 86.267C588.102 86.089 588.327 86 588.589 86C588.85 86 589.074 86.089 589.259 86.267C589.449 86.4451 589.543 86.6591 589.543 86.9091C589.543 87.1591 589.449 87.3731 589.259 87.5511C589.074 87.7292 588.85 87.8182 588.589 87.8182ZM591.704 98V89.2727H592.999V90.6364H593.113C593.295 90.1705 593.588 89.8087 593.994 89.5511C594.399 89.2898 594.886 89.1591 595.454 89.1591C596.03 89.1591 596.509 89.2898 596.891 89.5511C597.278 89.8087 597.579 90.1705 597.795 90.6364H597.886C598.109 90.1856 598.444 89.8277 598.891 89.5625C599.338 89.2936 599.874 89.1591 600.499 89.1591C601.28 89.1591 601.918 89.4034 602.414 89.892C602.91 90.3769 603.158 91.1326 603.158 92.1591V98H601.817V92.1591C601.817 91.5152 601.641 91.0549 601.289 90.7784C600.937 90.5019 600.522 90.3636 600.045 90.3636C599.431 90.3636 598.956 90.5492 598.619 90.9205C598.281 91.2879 598.113 91.7538 598.113 92.3182V98H596.749V92.0227C596.749 91.5265 596.588 91.1269 596.266 90.8239C595.944 90.517 595.53 90.3636 595.022 90.3636C594.674 90.3636 594.348 90.4564 594.045 90.642C593.746 90.8277 593.503 91.0852 593.317 91.4148C593.136 91.7405 593.045 92.1174 593.045 92.5455V98H591.704ZM611.11 94.4318V89.2727H612.451V98H611.11V96.5227H611.019C610.815 96.9659 610.496 97.3428 610.065 97.6534C609.633 97.9602 609.087 98.1136 608.428 98.1136C607.883 98.1136 607.398 97.9943 606.974 97.7557C606.549 97.5133 606.216 97.1496 605.974 96.6648C605.731 96.1761 605.61 95.5606 605.61 94.8182V89.2727H606.951V94.7273C606.951 95.3636 607.129 95.8712 607.485 96.25C607.845 96.6288 608.303 96.8182 608.86 96.8182C609.193 96.8182 609.532 96.733 609.877 96.5625C610.226 96.392 610.517 96.1307 610.752 95.7784C610.991 95.4261 611.11 94.9773 611.11 94.4318ZM614.907 98V89.2727H616.202V90.6364H616.316C616.498 90.1705 616.791 89.8087 617.197 89.5511C617.602 89.2898 618.089 89.1591 618.657 89.1591C619.233 89.1591 619.712 89.2898 620.094 89.5511C620.481 89.8087 620.782 90.1705 620.998 90.6364H621.089C621.312 90.1856 621.647 89.8277 622.094 89.5625C622.541 89.2936 623.077 89.1591 623.702 89.1591C624.483 89.1591 625.121 89.4034 625.617 89.892C626.113 90.3769 626.362 91.1326 626.362 92.1591V98H625.021V92.1591C625.021 91.5152 624.844 91.0549 624.492 90.7784C624.14 90.5019 623.725 90.3636 623.248 90.3636C622.634 90.3636 622.159 90.5492 621.822 90.9205C621.485 91.2879 621.316 91.7538 621.316 92.3182V98H619.952V92.0227C619.952 91.5265 619.791 91.1269 619.469 90.8239C619.147 90.517 618.733 90.3636 618.225 90.3636C617.877 90.3636 617.551 90.4564 617.248 90.642C616.949 90.8277 616.706 91.0852 616.521 91.4148C616.339 91.7405 616.248 92.1174 616.248 92.5455V98H614.907ZM636.859 98.1818C636.071 98.1818 635.379 97.9943 634.785 97.6193C634.194 97.2443 633.732 96.7197 633.398 96.0455C633.069 95.3712 632.904 94.5833 632.904 93.6818C632.904 92.7727 633.069 91.9792 633.398 91.3011C633.732 90.6231 634.194 90.0966 634.785 89.7216C635.379 89.3466 636.071 89.1591 636.859 89.1591C637.647 89.1591 638.336 89.3466 638.927 89.7216C639.522 90.0966 639.984 90.6231 640.313 91.3011C640.647 91.9792 640.813 92.7727 640.813 93.6818C640.813 94.5833 640.647 95.3712 640.313 96.0455C639.984 96.7197 639.522 97.2443 638.927 97.6193C638.336 97.9943 637.647 98.1818 636.859 98.1818ZM636.859 96.9773C637.457 96.9773 637.95 96.8239 638.336 96.517C638.722 96.2102 639.008 95.8068 639.194 95.3068C639.379 94.8068 639.472 94.2652 639.472 93.6818C639.472 93.0985 639.379 92.5549 639.194 92.0511C639.008 91.5473 638.722 91.1402 638.336 90.8295C637.95 90.5189 637.457 90.3636 636.859 90.3636C636.26 90.3636 635.768 90.5189 635.381 90.8295C634.995 91.1402 634.709 91.5473 634.523 92.0511C634.338 92.5549 634.245 93.0985 634.245 93.6818C634.245 94.2652 634.338 94.8068 634.523 95.3068C634.709 95.8068 634.995 96.2102 635.381 96.517C635.768 96.8239 636.26 96.9773 636.859 96.9773ZM646.746 89.2727V90.4091H642.042V89.2727H646.746ZM643.451 98V88.0682C643.451 87.5682 643.568 87.1515 643.803 86.8182C644.038 86.4848 644.343 86.2348 644.718 86.0682C645.093 85.9015 645.489 85.8182 645.906 85.8182C646.235 85.8182 646.504 85.8447 646.712 85.8977C646.921 85.9508 647.076 86 647.178 86.0455L646.792 87.2045C646.724 87.1818 646.629 87.1534 646.508 87.1193C646.39 87.0852 646.235 87.0682 646.042 87.0682C645.599 87.0682 645.279 87.1799 645.082 87.4034C644.888 87.6269 644.792 87.9545 644.792 88.3864V98H643.451ZM656.739 98.1591C656.073 98.1591 655.472 98.0265 654.938 97.7614C654.404 97.4962 653.976 97.1326 653.654 96.6705C653.332 96.2083 653.156 95.6818 653.126 95.0909H654.489C654.542 95.6174 654.781 96.053 655.205 96.3977C655.633 96.7386 656.145 96.9091 656.739 96.9091C657.217 96.9091 657.641 96.7973 658.012 96.5739C658.387 96.3504 658.681 96.0436 658.893 95.6534C659.109 95.2595 659.217 94.8144 659.217 94.3182C659.217 93.8106 659.105 93.358 658.881 92.9602C658.662 92.5587 658.359 92.2424 657.972 92.0114C657.586 91.7803 657.145 91.6629 656.648 91.6591C656.292 91.6553 655.927 91.7102 655.552 91.8239C655.177 91.9337 654.868 92.0758 654.626 92.25L653.308 92.0909L654.012 86.3636H660.058V87.6136H655.194L654.785 91.0455H654.853C655.092 90.8561 655.391 90.6989 655.751 90.5739C656.111 90.4489 656.486 90.3864 656.876 90.3864C657.588 90.3864 658.222 90.5568 658.779 90.8977C659.34 91.2348 659.779 91.697 660.097 92.2841C660.419 92.8712 660.58 93.5417 660.58 94.2955C660.58 95.0379 660.414 95.7008 660.08 96.2841C659.751 96.8636 659.296 97.322 658.717 97.6591C658.137 97.9924 657.478 98.1591 656.739 98.1591ZM667.542 98V86.3636H671.61C672.421 86.3636 673.089 86.5038 673.616 86.7841C674.142 87.0606 674.534 87.4337 674.792 87.9034C675.049 88.3693 675.178 88.8864 675.178 89.4545C675.178 89.9545 675.089 90.3674 674.911 90.6932C674.737 91.0189 674.506 91.2765 674.218 91.4659C673.934 91.6553 673.625 91.7955 673.292 91.8864V92C673.648 92.0227 674.006 92.1477 674.366 92.375C674.726 92.6023 675.027 92.928 675.269 93.3523C675.512 93.7765 675.633 94.2955 675.633 94.9091C675.633 95.4924 675.5 96.017 675.235 96.483C674.97 96.9489 674.551 97.3182 673.979 97.5909C673.407 97.8636 672.663 98 671.746 98H667.542ZM668.951 96.75H671.746C672.667 96.75 673.32 96.572 673.707 96.2159C674.097 95.8561 674.292 95.4205 674.292 94.9091C674.292 94.5152 674.192 94.1515 673.991 93.8182C673.79 93.4811 673.504 93.2121 673.133 93.0114C672.762 92.8068 672.322 92.7045 671.815 92.7045H668.951V96.75ZM668.951 91.4773H671.565C671.989 91.4773 672.371 91.3939 672.712 91.2273C673.057 91.0606 673.33 90.8258 673.531 90.5227C673.735 90.2197 673.837 89.8636 673.837 89.4545C673.837 88.9432 673.659 88.5095 673.303 88.1534C672.947 87.7936 672.383 87.6136 671.61 87.6136H668.951V91.4773ZM685.585 86.3636H686.994V94.0682C686.994 94.8636 686.806 95.5739 686.431 96.1989C686.06 96.8201 685.535 97.3106 684.857 97.6705C684.179 98.0265 683.384 98.2045 682.471 98.2045C681.558 98.2045 680.763 98.0265 680.085 97.6705C679.406 97.3106 678.88 96.8201 678.505 96.1989C678.134 95.5739 677.948 94.8636 677.948 94.0682V86.3636H679.357V93.9545C679.357 94.5227 679.482 95.0284 679.732 95.4716C679.982 95.911 680.338 96.2576 680.8 96.5114C681.266 96.7614 681.823 96.8864 682.471 96.8864C683.119 96.8864 683.675 96.7614 684.141 96.5114C684.607 96.2576 684.963 95.911 685.21 95.4716C685.46 95.0284 685.585 94.5227 685.585 93.9545V86.3636ZM696.171 89.2727C696.103 88.697 695.826 88.25 695.342 87.9318C694.857 87.6136 694.262 87.4545 693.558 87.4545C693.042 87.4545 692.592 87.5379 692.205 87.7045C691.823 87.8712 691.523 88.1004 691.308 88.392C691.095 88.6837 690.989 89.0152 690.989 89.3864C690.989 89.697 691.063 89.964 691.211 90.1875C691.362 90.4072 691.556 90.5909 691.79 90.7386C692.025 90.8826 692.272 91.0019 692.529 91.0966C692.787 91.1875 693.023 91.2614 693.239 91.3182L694.421 91.6364C694.724 91.7159 695.061 91.8258 695.433 91.9659C695.808 92.1061 696.165 92.2973 696.506 92.5398C696.851 92.7784 697.135 93.0852 697.359 93.4602C697.582 93.8352 697.694 94.2955 697.694 94.8409C697.694 95.4697 697.529 96.0379 697.2 96.5455C696.874 97.053 696.397 97.4564 695.768 97.7557C695.143 98.0549 694.383 98.2045 693.489 98.2045C692.656 98.2045 691.934 98.0701 691.325 97.8011C690.719 97.5322 690.241 97.1572 689.893 96.6761C689.548 96.1951 689.353 95.6364 689.308 95H690.762C690.8 95.4394 690.948 95.803 691.205 96.0909C691.467 96.375 691.796 96.5871 692.194 96.7273C692.595 96.8636 693.027 96.9318 693.489 96.9318C694.027 96.9318 694.51 96.8447 694.938 96.6705C695.366 96.4924 695.705 96.2462 695.955 95.9318C696.205 95.6136 696.33 95.2424 696.33 94.8182C696.33 94.4318 696.222 94.1174 696.006 93.875C695.79 93.6326 695.506 93.4356 695.154 93.2841C694.802 93.1326 694.421 93 694.012 92.8864L692.58 92.4773C691.671 92.2159 690.951 91.8428 690.421 91.358C689.891 90.8731 689.626 90.2386 689.626 89.4545C689.626 88.803 689.802 88.2348 690.154 87.75C690.51 87.2614 690.987 86.8826 691.586 86.6136C692.188 86.3409 692.861 86.2045 693.603 86.2045C694.353 86.2045 695.02 86.339 695.603 86.608C696.186 86.8731 696.648 87.2367 696.989 87.6989C697.334 88.161 697.516 88.6856 697.535 89.2727H696.171ZM703.602 98H700.011V86.3636H703.761C704.889 86.3636 705.855 86.5966 706.658 87.0625C707.461 87.5246 708.077 88.1894 708.505 89.0568C708.933 89.9205 709.147 90.9545 709.147 92.1591C709.147 93.3712 708.931 94.4148 708.499 95.2898C708.067 96.161 707.439 96.8314 706.613 97.3011C705.787 97.767 704.783 98 703.602 98ZM701.42 96.75H703.511C704.473 96.75 705.27 96.5644 705.903 96.1932C706.535 95.822 707.007 95.2936 707.317 94.608C707.628 93.9223 707.783 93.1061 707.783 92.1591C707.783 91.2197 707.63 90.411 707.323 89.733C707.016 89.0511 706.558 88.5284 705.948 88.1648C705.338 87.7973 704.579 87.6136 703.67 87.6136H701.42V96.75ZM715.829 98V89.2727H717.17V98H715.829ZM716.511 87.8182C716.249 87.8182 716.024 87.7292 715.835 87.5511C715.649 87.3731 715.556 87.1591 715.556 86.9091C715.556 86.6591 715.649 86.4451 715.835 86.267C716.024 86.089 716.249 86 716.511 86C716.772 86 716.996 86.089 717.181 86.267C717.371 86.4451 717.465 86.6591 717.465 86.9091C717.465 87.1591 717.371 87.3731 717.181 87.5511C716.996 87.7292 716.772 87.8182 716.511 87.8182ZM725.808 91.2273L724.603 91.5682C724.527 91.3674 724.415 91.1723 724.268 90.983C724.124 90.7898 723.927 90.6307 723.677 90.5057C723.427 90.3807 723.107 90.3182 722.717 90.3182C722.183 90.3182 721.737 90.4413 721.381 90.6875C721.029 90.9299 720.853 91.2386 720.853 91.6136C720.853 91.947 720.974 92.2102 721.217 92.4034C721.459 92.5966 721.838 92.7576 722.353 92.8864L723.648 93.2045C724.429 93.3939 725.01 93.6837 725.393 94.0739C725.775 94.4602 725.967 94.9583 725.967 95.5682C725.967 96.0682 725.823 96.5152 725.535 96.9091C725.251 97.303 724.853 97.6136 724.342 97.8409C723.83 98.0682 723.236 98.1818 722.558 98.1818C721.667 98.1818 720.931 97.9886 720.347 97.6023C719.764 97.2159 719.395 96.6515 719.239 95.9091L720.512 95.5909C720.633 96.0606 720.862 96.4129 721.2 96.6477C721.54 96.8826 721.986 97 722.535 97C723.16 97 723.656 96.8674 724.023 96.6023C724.395 96.3333 724.58 96.0114 724.58 95.6364C724.58 95.3333 724.474 95.0795 724.262 94.875C724.05 94.6667 723.724 94.5114 723.285 94.4091L721.83 94.0682C721.031 93.8788 720.444 93.5852 720.069 93.1875C719.698 92.786 719.512 92.2841 719.512 91.6818C719.512 91.1894 719.65 90.7538 719.927 90.375C720.207 89.9962 720.588 89.6989 721.069 89.483C721.554 89.267 722.103 89.1591 722.717 89.1591C723.58 89.1591 724.258 89.3485 724.751 89.7273C725.247 90.1061 725.599 90.6061 725.808 91.2273ZM258.79 122V113.273H260.085V114.591H260.176C260.335 114.159 260.623 113.809 261.04 113.54C261.456 113.271 261.926 113.136 262.449 113.136C262.547 113.136 262.67 113.138 262.818 113.142C262.966 113.146 263.078 113.152 263.153 113.159V114.523C263.108 114.511 263.004 114.494 262.841 114.472C262.682 114.445 262.513 114.432 262.335 114.432C261.911 114.432 261.532 114.521 261.199 114.699C260.869 114.873 260.608 115.116 260.415 115.426C260.225 115.733 260.131 116.083 260.131 116.477V122H258.79ZM268.136 122.182C267.295 122.182 266.57 121.996 265.96 121.625C265.354 121.25 264.886 120.727 264.557 120.057C264.231 119.383 264.068 118.598 264.068 117.705C264.068 116.811 264.231 116.023 264.557 115.341C264.886 114.655 265.345 114.121 265.932 113.739C266.523 113.352 267.212 113.159 268 113.159C268.455 113.159 268.903 113.235 269.347 113.386C269.79 113.538 270.193 113.784 270.557 114.125C270.92 114.462 271.21 114.909 271.426 115.466C271.642 116.023 271.75 116.708 271.75 117.523V118.091H265.023V116.932H270.386C270.386 116.439 270.288 116 270.091 115.614C269.898 115.227 269.621 114.922 269.261 114.699C268.905 114.475 268.485 114.364 268 114.364C267.466 114.364 267.004 114.496 266.614 114.761C266.227 115.023 265.93 115.364 265.722 115.784C265.513 116.205 265.409 116.655 265.409 117.136V117.909C265.409 118.568 265.523 119.127 265.75 119.585C265.981 120.04 266.301 120.386 266.71 120.625C267.119 120.86 267.595 120.977 268.136 120.977C268.489 120.977 268.807 120.928 269.091 120.83C269.379 120.727 269.627 120.576 269.835 120.375C270.044 120.17 270.205 119.917 270.318 119.614L271.614 119.977C271.477 120.417 271.248 120.803 270.926 121.136C270.604 121.466 270.206 121.723 269.733 121.909C269.259 122.091 268.727 122.182 268.136 122.182ZM279.744 125.273V120.659H279.631C279.532 120.818 279.392 121.019 279.21 121.261C279.028 121.5 278.769 121.714 278.432 121.903C278.095 122.089 277.646 122.182 277.085 122.182C276.358 122.182 275.716 121.998 275.159 121.631C274.602 121.259 274.167 120.737 273.852 120.062C273.538 119.384 273.381 118.583 273.381 117.659C273.381 116.742 273.538 115.947 273.852 115.273C274.167 114.598 274.604 114.078 275.165 113.71C275.725 113.343 276.373 113.159 277.108 113.159C277.676 113.159 278.125 113.254 278.455 113.443C278.788 113.629 279.042 113.841 279.216 114.08C279.394 114.314 279.532 114.508 279.631 114.659H279.79V113.273H281.085V125.273H279.744ZM277.267 120.977C277.805 120.977 278.259 120.837 278.631 120.557C279.002 120.273 279.284 119.881 279.477 119.381C279.67 118.877 279.767 118.295 279.767 117.636C279.767 116.985 279.672 116.415 279.483 115.926C279.294 115.434 279.013 115.051 278.642 114.778C278.271 114.502 277.813 114.364 277.267 114.364C276.699 114.364 276.225 114.509 275.847 114.801C275.472 115.089 275.189 115.481 275 115.977C274.814 116.47 274.722 117.023 274.722 117.636C274.722 118.258 274.816 118.822 275.006 119.33C275.199 119.833 275.483 120.235 275.858 120.534C276.237 120.83 276.706 120.977 277.267 120.977ZM289.04 118.432V113.273H290.381V122H289.04V120.523H288.949C288.744 120.966 288.426 121.343 287.994 121.653C287.563 121.96 287.017 122.114 286.358 122.114C285.812 122.114 285.328 121.994 284.903 121.756C284.479 121.513 284.146 121.15 283.903 120.665C283.661 120.176 283.54 119.561 283.54 118.818V113.273H284.881V118.727C284.881 119.364 285.059 119.871 285.415 120.25C285.775 120.629 286.233 120.818 286.79 120.818C287.123 120.818 287.462 120.733 287.807 120.562C288.155 120.392 288.447 120.131 288.682 119.778C288.92 119.426 289.04 118.977 289.04 118.432ZM292.837 122V113.273H294.178V122H292.837ZM293.518 111.818C293.257 111.818 293.032 111.729 292.842 111.551C292.657 111.373 292.564 111.159 292.564 110.909C292.564 110.659 292.657 110.445 292.842 110.267C293.032 110.089 293.257 110 293.518 110C293.78 110 294.003 110.089 294.189 110.267C294.378 110.445 294.473 110.659 294.473 110.909C294.473 111.159 294.378 111.373 294.189 111.551C294.003 111.729 293.78 111.818 293.518 111.818ZM296.634 122V113.273H297.929V114.591H298.02C298.179 114.159 298.467 113.809 298.884 113.54C299.3 113.271 299.77 113.136 300.293 113.136C300.391 113.136 300.514 113.138 300.662 113.142C300.81 113.146 300.921 113.152 300.997 113.159V114.523C300.952 114.511 300.848 114.494 300.685 114.472C300.526 114.445 300.357 114.432 300.179 114.432C299.755 114.432 299.376 114.521 299.043 114.699C298.713 114.873 298.452 115.116 298.259 115.426C298.069 115.733 297.974 116.083 297.974 116.477V122H296.634ZM305.98 122.182C305.139 122.182 304.414 121.996 303.804 121.625C303.198 121.25 302.73 120.727 302.401 120.057C302.075 119.383 301.912 118.598 301.912 117.705C301.912 116.811 302.075 116.023 302.401 115.341C302.73 114.655 303.188 114.121 303.776 113.739C304.366 113.352 305.056 113.159 305.844 113.159C306.298 113.159 306.747 113.235 307.19 113.386C307.634 113.538 308.037 113.784 308.401 114.125C308.764 114.462 309.054 114.909 309.27 115.466C309.486 116.023 309.594 116.708 309.594 117.523V118.091H302.866V116.932H308.23C308.23 116.439 308.132 116 307.935 115.614C307.741 115.227 307.465 114.922 307.105 114.699C306.749 114.475 306.329 114.364 305.844 114.364C305.31 114.364 304.848 114.496 304.457 114.761C304.071 115.023 303.774 115.364 303.565 115.784C303.357 116.205 303.253 116.655 303.253 117.136V117.909C303.253 118.568 303.366 119.127 303.594 119.585C303.825 120.04 304.145 120.386 304.554 120.625C304.963 120.86 305.438 120.977 305.98 120.977C306.332 120.977 306.651 120.928 306.935 120.83C307.223 120.727 307.471 120.576 307.679 120.375C307.887 120.17 308.048 119.917 308.162 119.614L309.457 119.977C309.321 120.417 309.092 120.803 308.77 121.136C308.448 121.466 308.05 121.723 307.577 121.909C307.103 122.091 306.571 122.182 305.98 122.182ZM314.929 122.182C314.202 122.182 313.56 121.998 313.003 121.631C312.446 121.259 312.01 120.737 311.696 120.062C311.382 119.384 311.224 118.583 311.224 117.659C311.224 116.742 311.382 115.947 311.696 115.273C312.01 114.598 312.448 114.078 313.009 113.71C313.569 113.343 314.217 113.159 314.952 113.159C315.52 113.159 315.969 113.254 316.298 113.443C316.632 113.629 316.885 113.841 317.06 114.08C317.238 114.314 317.376 114.508 317.474 114.659H317.588V110.364H318.929V122H317.634V120.659H317.474C317.376 120.818 317.236 121.019 317.054 121.261C316.872 121.5 316.613 121.714 316.276 121.903C315.938 122.089 315.49 122.182 314.929 122.182ZM315.111 120.977C315.649 120.977 316.103 120.837 316.474 120.557C316.846 120.273 317.128 119.881 317.321 119.381C317.514 118.877 317.611 118.295 317.611 117.636C317.611 116.985 317.516 116.415 317.327 115.926C317.137 115.434 316.857 115.051 316.486 114.778C316.115 114.502 315.656 114.364 315.111 114.364C314.543 114.364 314.069 114.509 313.69 114.801C313.315 115.089 313.033 115.481 312.844 115.977C312.658 116.47 312.565 117.023 312.565 117.636C312.565 118.258 312.66 118.822 312.849 119.33C313.043 119.833 313.327 120.235 313.702 120.534C314.08 120.83 314.55 120.977 315.111 120.977ZM329.866 113.273V114.409H325.344V113.273H329.866ZM326.662 111.182H328.003V119.5C328.003 119.879 328.058 120.163 328.168 120.352C328.281 120.538 328.425 120.663 328.599 120.727C328.777 120.788 328.965 120.818 329.162 120.818C329.31 120.818 329.431 120.811 329.526 120.795C329.62 120.777 329.696 120.761 329.753 120.75L330.026 121.955C329.935 121.989 329.808 122.023 329.645 122.057C329.482 122.095 329.276 122.114 329.026 122.114C328.647 122.114 328.276 122.032 327.912 121.869C327.552 121.706 327.253 121.458 327.014 121.125C326.779 120.792 326.662 120.371 326.662 119.864V111.182ZM335.335 122.182C334.547 122.182 333.856 121.994 333.261 121.619C332.67 121.244 332.208 120.72 331.875 120.045C331.545 119.371 331.381 118.583 331.381 117.682C331.381 116.773 331.545 115.979 331.875 115.301C332.208 114.623 332.67 114.097 333.261 113.722C333.856 113.347 334.547 113.159 335.335 113.159C336.123 113.159 336.813 113.347 337.403 113.722C337.998 114.097 338.46 114.623 338.79 115.301C339.123 115.979 339.29 116.773 339.29 117.682C339.29 118.583 339.123 119.371 338.79 120.045C338.46 120.72 337.998 121.244 337.403 121.619C336.813 121.994 336.123 122.182 335.335 122.182ZM335.335 120.977C335.934 120.977 336.426 120.824 336.812 120.517C337.199 120.21 337.485 119.807 337.67 119.307C337.856 118.807 337.949 118.265 337.949 117.682C337.949 117.098 337.856 116.555 337.67 116.051C337.485 115.547 337.199 115.14 336.812 114.83C336.426 114.519 335.934 114.364 335.335 114.364C334.737 114.364 334.244 114.519 333.858 114.83C333.472 115.14 333.186 115.547 333 116.051C332.814 116.555 332.722 117.098 332.722 117.682C332.722 118.265 332.814 118.807 333 119.307C333.186 119.807 333.472 120.21 333.858 120.517C334.244 120.824 334.737 120.977 335.335 120.977ZM352.018 115.227L350.814 115.568C350.738 115.367 350.626 115.172 350.479 114.983C350.335 114.79 350.138 114.631 349.888 114.506C349.638 114.381 349.318 114.318 348.928 114.318C348.393 114.318 347.948 114.441 347.592 114.688C347.24 114.93 347.064 115.239 347.064 115.614C347.064 115.947 347.185 116.21 347.428 116.403C347.67 116.597 348.049 116.758 348.564 116.886L349.859 117.205C350.64 117.394 351.221 117.684 351.604 118.074C351.986 118.46 352.178 118.958 352.178 119.568C352.178 120.068 352.034 120.515 351.746 120.909C351.462 121.303 351.064 121.614 350.553 121.841C350.041 122.068 349.446 122.182 348.768 122.182C347.878 122.182 347.142 121.989 346.558 121.602C345.975 121.216 345.606 120.652 345.45 119.909L346.723 119.591C346.844 120.061 347.073 120.413 347.411 120.648C347.751 120.883 348.196 121 348.746 121C349.371 121 349.867 120.867 350.234 120.602C350.606 120.333 350.791 120.011 350.791 119.636C350.791 119.333 350.685 119.08 350.473 118.875C350.261 118.667 349.935 118.511 349.496 118.409L348.041 118.068C347.242 117.879 346.655 117.585 346.28 117.188C345.909 116.786 345.723 116.284 345.723 115.682C345.723 115.189 345.861 114.754 346.138 114.375C346.418 113.996 346.799 113.699 347.28 113.483C347.765 113.267 348.314 113.159 348.928 113.159C349.791 113.159 350.469 113.348 350.962 113.727C351.458 114.106 351.81 114.606 352.018 115.227ZM359.696 118.432V113.273H361.037V122H359.696V120.523H359.605C359.401 120.966 359.082 121.343 358.651 121.653C358.219 121.96 357.673 122.114 357.014 122.114C356.469 122.114 355.984 121.994 355.56 121.756C355.135 121.513 354.802 121.15 354.56 120.665C354.317 120.176 354.196 119.561 354.196 118.818V113.273H355.537V118.727C355.537 119.364 355.715 119.871 356.071 120.25C356.431 120.629 356.889 120.818 357.446 120.818C357.779 120.818 358.118 120.733 358.463 120.562C358.812 120.392 359.103 120.131 359.338 119.778C359.577 119.426 359.696 118.977 359.696 118.432ZM363.675 122V110.364H365.016V114.659H365.129C365.228 114.508 365.364 114.314 365.538 114.08C365.716 113.841 365.97 113.629 366.3 113.443C366.633 113.254 367.084 113.159 367.652 113.159C368.387 113.159 369.035 113.343 369.595 113.71C370.156 114.078 370.593 114.598 370.908 115.273C371.222 115.947 371.379 116.742 371.379 117.659C371.379 118.583 371.222 119.384 370.908 120.062C370.593 120.737 370.158 121.259 369.601 121.631C369.044 121.998 368.402 122.182 367.675 122.182C367.114 122.182 366.665 122.089 366.328 121.903C365.991 121.714 365.732 121.5 365.55 121.261C365.368 121.019 365.228 120.818 365.129 120.659H364.97V122H363.675ZM364.993 117.636C364.993 118.295 365.089 118.877 365.283 119.381C365.476 119.881 365.758 120.273 366.129 120.557C366.5 120.837 366.955 120.977 367.493 120.977C368.054 120.977 368.521 120.83 368.896 120.534C369.275 120.235 369.559 119.833 369.749 119.33C369.942 118.822 370.038 118.258 370.038 117.636C370.038 117.023 369.944 116.47 369.754 115.977C369.569 115.481 369.286 115.089 368.908 114.801C368.533 114.509 368.061 114.364 367.493 114.364C366.947 114.364 366.489 114.502 366.118 114.778C365.747 115.051 365.466 115.434 365.277 115.926C365.088 116.415 364.993 116.985 364.993 117.636ZM373.43 122V113.273H374.726V114.636H374.839C375.021 114.17 375.315 113.809 375.72 113.551C376.125 113.29 376.612 113.159 377.18 113.159C377.756 113.159 378.235 113.29 378.618 113.551C379.004 113.809 379.305 114.17 379.521 114.636H379.612C379.836 114.186 380.171 113.828 380.618 113.562C381.065 113.294 381.601 113.159 382.226 113.159C383.006 113.159 383.644 113.403 384.141 113.892C384.637 114.377 384.885 115.133 384.885 116.159V122H383.544V116.159C383.544 115.515 383.368 115.055 383.016 114.778C382.663 114.502 382.249 114.364 381.771 114.364C381.158 114.364 380.682 114.549 380.345 114.92C380.008 115.288 379.839 115.754 379.839 116.318V122H378.476V116.023C378.476 115.527 378.315 115.127 377.993 114.824C377.671 114.517 377.256 114.364 376.749 114.364C376.4 114.364 376.074 114.456 375.771 114.642C375.472 114.828 375.23 115.085 375.044 115.415C374.862 115.741 374.771 116.117 374.771 116.545V122H373.43ZM387.337 122V113.273H388.678V122H387.337ZM388.018 111.818C387.757 111.818 387.532 111.729 387.342 111.551C387.157 111.373 387.064 111.159 387.064 110.909C387.064 110.659 387.157 110.445 387.342 110.267C387.532 110.089 387.757 110 388.018 110C388.28 110 388.503 110.089 388.689 110.267C388.878 110.445 388.973 110.659 388.973 110.909C388.973 111.159 388.878 111.373 388.689 111.551C388.503 111.729 388.28 111.818 388.018 111.818ZM394.929 113.273V114.409H390.406V113.273H394.929ZM391.724 111.182H393.065V119.5C393.065 119.879 393.12 120.163 393.23 120.352C393.344 120.538 393.488 120.663 393.662 120.727C393.84 120.788 394.027 120.818 394.224 120.818C394.372 120.818 394.493 120.811 394.588 120.795C394.683 120.777 394.759 120.761 394.815 120.75L395.088 121.955C394.997 121.989 394.87 122.023 394.707 122.057C394.545 122.095 394.338 122.114 394.088 122.114C393.709 122.114 393.338 122.032 392.974 121.869C392.615 121.706 392.315 121.458 392.077 121.125C391.842 120.792 391.724 120.371 391.724 119.864V111.182ZM401.446 125.273V113.273H402.741V114.659H402.901C402.999 114.508 403.135 114.314 403.31 114.08C403.488 113.841 403.741 113.629 404.071 113.443C404.404 113.254 404.855 113.159 405.423 113.159C406.158 113.159 406.806 113.343 407.366 113.71C407.927 114.078 408.365 114.598 408.679 115.273C408.993 115.947 409.151 116.742 409.151 117.659C409.151 118.583 408.993 119.384 408.679 120.062C408.365 120.737 407.929 121.259 407.372 121.631C406.815 121.998 406.173 122.182 405.446 122.182C404.885 122.182 404.437 122.089 404.099 121.903C403.762 121.714 403.503 121.5 403.321 121.261C403.139 121.019 402.999 120.818 402.901 120.659H402.787V125.273H401.446ZM402.764 117.636C402.764 118.295 402.861 118.877 403.054 119.381C403.247 119.881 403.529 120.273 403.901 120.557C404.272 120.837 404.726 120.977 405.264 120.977C405.825 120.977 406.293 120.83 406.668 120.534C407.046 120.235 407.33 119.833 407.52 119.33C407.713 118.822 407.81 118.258 407.81 117.636C407.81 117.023 407.715 116.47 407.526 115.977C407.34 115.481 407.058 115.089 406.679 114.801C406.304 114.509 405.832 114.364 405.264 114.364C404.719 114.364 404.26 114.502 403.889 114.778C403.518 115.051 403.238 115.434 403.048 115.926C402.859 116.415 402.764 116.985 402.764 117.636ZM411.196 122V113.273H412.491V114.591H412.582C412.741 114.159 413.029 113.809 413.446 113.54C413.863 113.271 414.332 113.136 414.855 113.136C414.954 113.136 415.077 113.138 415.224 113.142C415.372 113.146 415.484 113.152 415.56 113.159V114.523C415.514 114.511 415.41 114.494 415.247 114.472C415.088 114.445 414.92 114.432 414.741 114.432C414.317 114.432 413.938 114.521 413.605 114.699C413.276 114.873 413.014 115.116 412.821 115.426C412.632 115.733 412.537 116.083 412.537 116.477V122H411.196ZM420.429 122.182C419.641 122.182 418.95 121.994 418.355 121.619C417.764 121.244 417.302 120.72 416.969 120.045C416.639 119.371 416.474 118.583 416.474 117.682C416.474 116.773 416.639 115.979 416.969 115.301C417.302 114.623 417.764 114.097 418.355 113.722C418.95 113.347 419.641 113.159 420.429 113.159C421.217 113.159 421.906 113.347 422.497 113.722C423.092 114.097 423.554 114.623 423.884 115.301C424.217 115.979 424.384 116.773 424.384 117.682C424.384 118.583 424.217 119.371 423.884 120.045C423.554 120.72 423.092 121.244 422.497 121.619C421.906 121.994 421.217 122.182 420.429 122.182ZM420.429 120.977C421.027 120.977 421.52 120.824 421.906 120.517C422.293 120.21 422.579 119.807 422.764 119.307C422.95 118.807 423.043 118.265 423.043 117.682C423.043 117.098 422.95 116.555 422.764 116.051C422.579 115.547 422.293 115.14 421.906 114.83C421.52 114.519 421.027 114.364 420.429 114.364C419.83 114.364 419.338 114.519 418.952 114.83C418.565 115.14 418.279 115.547 418.094 116.051C417.908 116.555 417.815 117.098 417.815 117.682C417.815 118.265 417.908 118.807 418.094 119.307C418.279 119.807 418.565 120.21 418.952 120.517C419.338 120.824 419.83 120.977 420.429 120.977ZM426.43 125.273V113.273H427.726V114.659H427.885C427.983 114.508 428.12 114.314 428.294 114.08C428.472 113.841 428.726 113.629 429.055 113.443C429.389 113.254 429.839 113.159 430.408 113.159C431.143 113.159 431.79 113.343 432.351 113.71C432.911 114.078 433.349 114.598 433.663 115.273C433.978 115.947 434.135 116.742 434.135 117.659C434.135 118.583 433.978 119.384 433.663 120.062C433.349 120.737 432.913 121.259 432.357 121.631C431.8 121.998 431.158 122.182 430.43 122.182C429.87 122.182 429.421 122.089 429.084 121.903C428.747 121.714 428.487 121.5 428.305 121.261C428.124 121.019 427.983 120.818 427.885 120.659H427.771V125.273H426.43ZM427.749 117.636C427.749 118.295 427.845 118.877 428.038 119.381C428.232 119.881 428.514 120.273 428.885 120.557C429.256 120.837 429.711 120.977 430.249 120.977C430.809 120.977 431.277 120.83 431.652 120.534C432.031 120.235 432.315 119.833 432.504 119.33C432.697 118.822 432.794 118.258 432.794 117.636C432.794 117.023 432.699 116.47 432.51 115.977C432.324 115.481 432.042 115.089 431.663 114.801C431.288 114.509 430.817 114.364 430.249 114.364C429.703 114.364 429.245 114.502 428.874 114.778C428.502 115.051 428.222 115.434 428.033 115.926C427.843 116.415 427.749 116.985 427.749 117.636ZM439.726 122.182C438.938 122.182 438.247 121.994 437.652 121.619C437.061 121.244 436.599 120.72 436.266 120.045C435.936 119.371 435.771 118.583 435.771 117.682C435.771 116.773 435.936 115.979 436.266 115.301C436.599 114.623 437.061 114.097 437.652 113.722C438.247 113.347 438.938 113.159 439.726 113.159C440.514 113.159 441.203 113.347 441.794 113.722C442.389 114.097 442.851 114.623 443.18 115.301C443.514 115.979 443.68 116.773 443.68 117.682C443.68 118.583 443.514 119.371 443.18 120.045C442.851 120.72 442.389 121.244 441.794 121.619C441.203 121.994 440.514 122.182 439.726 122.182ZM439.726 120.977C440.324 120.977 440.817 120.824 441.203 120.517C441.589 120.21 441.875 119.807 442.061 119.307C442.247 118.807 442.339 118.265 442.339 117.682C442.339 117.098 442.247 116.555 442.061 116.051C441.875 115.547 441.589 115.14 441.203 114.83C440.817 114.519 440.324 114.364 439.726 114.364C439.127 114.364 438.635 114.519 438.249 114.83C437.862 115.14 437.576 115.547 437.391 116.051C437.205 116.555 437.112 117.098 437.112 117.682C437.112 118.265 437.205 118.807 437.391 119.307C437.576 119.807 437.862 120.21 438.249 120.517C438.635 120.824 439.127 120.977 439.726 120.977ZM451.909 115.227L450.705 115.568C450.629 115.367 450.517 115.172 450.369 114.983C450.225 114.79 450.028 114.631 449.778 114.506C449.528 114.381 449.208 114.318 448.818 114.318C448.284 114.318 447.839 114.441 447.483 114.688C447.131 114.93 446.955 115.239 446.955 115.614C446.955 115.947 447.076 116.21 447.318 116.403C447.561 116.597 447.939 116.758 448.455 116.886L449.75 117.205C450.53 117.394 451.112 117.684 451.494 118.074C451.877 118.46 452.068 118.958 452.068 119.568C452.068 120.068 451.924 120.515 451.636 120.909C451.352 121.303 450.955 121.614 450.443 121.841C449.932 122.068 449.337 122.182 448.659 122.182C447.769 122.182 447.032 121.989 446.449 121.602C445.866 121.216 445.496 120.652 445.341 119.909L446.614 119.591C446.735 120.061 446.964 120.413 447.301 120.648C447.642 120.883 448.087 121 448.636 121C449.261 121 449.758 120.867 450.125 120.602C450.496 120.333 450.682 120.011 450.682 119.636C450.682 119.333 450.576 119.08 450.364 118.875C450.152 118.667 449.826 118.511 449.386 118.409L447.932 118.068C447.133 117.879 446.545 117.585 446.17 117.188C445.799 116.786 445.614 116.284 445.614 115.682C445.614 115.189 445.752 114.754 446.028 114.375C446.309 113.996 446.689 113.699 447.17 113.483C447.655 113.267 448.205 113.159 448.818 113.159C449.682 113.159 450.36 113.348 450.852 113.727C451.348 114.106 451.701 114.606 451.909 115.227ZM456.655 122.205C456.102 122.205 455.6 122.1 455.149 121.892C454.698 121.68 454.34 121.375 454.075 120.977C453.81 120.576 453.678 120.091 453.678 119.523C453.678 119.023 453.776 118.617 453.973 118.307C454.17 117.992 454.433 117.746 454.763 117.568C455.092 117.39 455.456 117.258 455.854 117.17C456.255 117.08 456.659 117.008 457.064 116.955C457.594 116.886 458.024 116.835 458.354 116.801C458.687 116.763 458.929 116.701 459.081 116.614C459.236 116.527 459.314 116.375 459.314 116.159V116.114C459.314 115.553 459.161 115.117 458.854 114.807C458.551 114.496 458.09 114.341 457.473 114.341C456.833 114.341 456.331 114.481 455.967 114.761C455.604 115.042 455.348 115.341 455.2 115.659L453.928 115.205C454.155 114.674 454.458 114.261 454.837 113.966C455.219 113.667 455.636 113.458 456.087 113.341C456.541 113.22 456.988 113.159 457.428 113.159C457.708 113.159 458.03 113.193 458.393 113.261C458.761 113.326 459.115 113.46 459.456 113.665C459.801 113.869 460.087 114.178 460.314 114.591C460.541 115.004 460.655 115.557 460.655 116.25V122H459.314V120.818H459.246C459.155 121.008 459.003 121.21 458.791 121.426C458.579 121.642 458.297 121.826 457.945 121.977C457.592 122.129 457.162 122.205 456.655 122.205ZM456.859 121C457.39 121 457.837 120.896 458.2 120.688C458.568 120.479 458.844 120.21 459.03 119.881C459.219 119.551 459.314 119.205 459.314 118.841V117.614C459.257 117.682 459.132 117.744 458.939 117.801C458.75 117.854 458.53 117.902 458.28 117.943C458.034 117.981 457.793 118.015 457.558 118.045C457.327 118.072 457.14 118.095 456.996 118.114C456.647 118.159 456.321 118.233 456.018 118.335C455.719 118.434 455.477 118.583 455.291 118.784C455.109 118.981 455.018 119.25 455.018 119.591C455.018 120.057 455.191 120.409 455.536 120.648C455.884 120.883 456.325 121 456.859 121ZM464.443 110.364V122H463.102V110.364H464.443ZM473.081 115.227L471.876 115.568C471.801 115.367 471.689 115.172 471.541 114.983C471.397 114.79 471.2 114.631 470.95 114.506C470.7 114.381 470.38 114.318 469.99 114.318C469.456 114.318 469.011 114.441 468.655 114.688C468.303 114.93 468.126 115.239 468.126 115.614C468.126 115.947 468.248 116.21 468.49 116.403C468.732 116.597 469.111 116.758 469.626 116.886L470.922 117.205C471.702 117.394 472.284 117.684 472.666 118.074C473.049 118.46 473.24 118.958 473.24 119.568C473.24 120.068 473.096 120.515 472.808 120.909C472.524 121.303 472.126 121.614 471.615 121.841C471.104 122.068 470.509 122.182 469.831 122.182C468.941 122.182 468.204 121.989 467.621 121.602C467.037 121.216 466.668 120.652 466.513 119.909L467.786 119.591C467.907 120.061 468.136 120.413 468.473 120.648C468.814 120.883 469.259 121 469.808 121C470.433 121 470.929 120.867 471.297 120.602C471.668 120.333 471.854 120.011 471.854 119.636C471.854 119.333 471.748 119.08 471.536 118.875C471.323 118.667 470.998 118.511 470.558 118.409L469.104 118.068C468.304 117.879 467.717 117.585 467.342 117.188C466.971 116.786 466.786 116.284 466.786 115.682C466.786 115.189 466.924 114.754 467.2 114.375C467.481 113.996 467.861 113.699 468.342 113.483C468.827 113.267 469.376 113.159 469.99 113.159C470.854 113.159 471.532 113.348 472.024 113.727C472.52 114.106 472.873 114.606 473.081 115.227ZM476.236 122.091C475.955 122.091 475.715 121.991 475.514 121.79C475.313 121.589 475.213 121.348 475.213 121.068C475.213 120.788 475.313 120.547 475.514 120.347C475.715 120.146 475.955 120.045 476.236 120.045C476.516 120.045 476.757 120.146 476.957 120.347C477.158 120.547 477.259 120.788 477.259 121.068C477.259 121.254 477.211 121.424 477.116 121.58C477.026 121.735 476.902 121.86 476.747 121.955C476.596 122.045 476.425 122.091 476.236 122.091Z" fill="#555761"/>
</svg>
