<svg width="40" height="40" viewBox="0 0 40 40" fill="none" xmlns="http://www.w3.org/2000/svg">
<circle cx="20" cy="20" r="20" fill="white"/>
<path d="M28.293 15.637C28.3062 15.8272 28.3062 16.0174 28.3062 16.2076C28.3062 22.0092 24.0017 28.694 16.1343 28.694C13.7105 28.694 11.4589 27.9739 9.56494 26.724C9.90932 26.7647 10.2404 26.7783 10.598 26.7783C12.5979 26.7783 14.439 26.0854 15.9092 24.9033C14.0284 24.8625 12.4523 23.5989 11.9092 21.8598C12.1742 21.9005 12.439 21.9277 12.7172 21.9277C13.1013 21.9277 13.4854 21.8733 13.843 21.7783C11.8828 21.3706 10.4126 19.6044 10.4126 17.4712V17.4169C10.9821 17.743 11.6444 17.9468 12.3463 17.9739C11.194 17.1859 10.4391 15.8408 10.4391 14.319C10.4391 13.5038 10.6509 12.7565 11.0218 12.1043C13.1277 14.7674 16.2933 16.5065 19.8428 16.6967C19.7766 16.3706 19.7368 16.031 19.7368 15.6913C19.7368 13.2728 21.6441 11.3027 24.0149 11.3027C25.2466 11.3027 26.3592 11.8326 27.1407 12.6886C28.1075 12.4984 29.0346 12.1315 29.8558 11.6288C29.5379 12.6479 28.8625 13.5038 27.9751 14.0473C28.836 13.9522 29.6704 13.7076 30.4386 13.368C29.8559 14.2375 29.1274 15.0119 28.293 15.637Z" fill="#13172B"/>
</svg>
